<svg width="151" height="134" viewBox="0 0 151 134" fill="none" xmlns="http://www.w3.org/2000/svg">
<path d="M85.6403 0C90.477 0.450862 99.2644 2.30501 103.635 4.107C103.912 5.92447 104.077 7.27105 104.805 9.00574C107.295 14.9461 113.885 16.5613 120.175 14.2717C120.749 14.0628 121.612 13.7053 122.21 13.5704C123.055 13.9845 124.037 14.8254 124.819 15.3976C128.799 18.309 131.998 21.4784 135.324 24.9741C134.937 25.8645 134.442 26.7177 134.109 27.6205C133.168 30.1757 132.869 33.1368 134.147 35.6477C136.303 39.8778 141.315 41.2454 146.132 41.5215C146.527 42.1717 146.998 43.471 147.296 44.2345C148.672 47.74 149.744 51.3335 150.505 54.9836C150.589 55.3748 150.964 56.9783 150.833 57.2191C150.557 57.7238 148.642 58.7885 148.089 59.2369C144.253 62.3501 142.425 66.7596 145.021 71.0343C146.61 73.6507 148.363 74.8509 151 76.5351C149.767 82.404 148.801 86.5004 146.247 92.1275C145.155 92.4113 143.87 92.414 142.738 92.639C132.878 94.5993 131.399 101.58 135.367 108.835C132.416 112.179 128.534 115.657 124.925 118.448C124.379 118.87 122.881 119.974 122.303 120.299C117.695 118.603 112.834 117.397 108.394 120.271C104.778 122.612 104.253 126.09 103.6 129.679C103.485 130.31 92.237 133.019 90.7533 133.21C89.2103 133.408 87.2189 133.696 85.768 134C84.6357 132.593 83.6782 131.482 82.2189 130.363C78.2574 127.325 73.182 127.071 68.8813 129.757C66.8442 131.029 65.983 132.255 64.4857 133.9C58.9385 133.154 51.6059 131.603 46.5075 129.446C46.6083 128.19 46.6994 127.421 47.0197 126.181C45.141 125.065 42.7609 123.321 40.9506 122.038C39.9184 121.467 36.3459 119.099 35.5786 118.327C34.7708 117.988 29.5349 119.746 28.3412 120.128C27.1202 119.362 25.8598 118.319 24.7464 117.42C21.2213 114.609 17.9811 111.53 15.0625 108.217C16.6457 105.474 17.3202 102.323 16.4534 99.2961C14.56 94.1237 10.1204 93.142 4.77667 92.1723C2.54379 88.3848 0.54927 80.205 0 75.94C1.73512 74.7423 2.89482 74.1289 4.18434 72.4134C6.15995 69.7852 6.63416 67.8441 6.02281 64.8179C5.10928 61.6042 2.79248 59.8147 0.078405 57.7272C0.115707 56.6595 0.243387 56.0204 0.453171 54.9598C1.20336 51.2091 2.31764 47.5228 3.78351 43.9423C4.91709 41.0898 4.59212 41.5351 7.95805 41.138C10.4704 40.8419 13.055 40.1786 15.1515 38.8735C15.2126 38.7451 15.2757 38.4972 15.3186 38.3533C15.4607 37.9116 15.565 37.1181 15.6651 36.6276C15.9234 35.3608 16.6314 32.7388 17.4367 31.7404C17.4308 30.162 15.8508 27.0925 15.1006 25.6163C18.0931 21.9832 24.4047 16.3647 28.4326 13.6611C28.9762 13.7907 30.1682 14.2649 30.812 14.4608C32.875 15.0878 34.3196 15.1441 36.4314 15.1373C38.5802 15.0782 41.758 13.472 43.271 12.1362C45.6501 10.036 45.8678 7.00954 46.5591 4.37585C50.8197 2.79493 60.0604 0.288782 64.634 0.0916385C65.5496 1.15427 66.3099 2.04027 67.3917 2.94976C71.2419 6.18723 76.2614 6.8975 80.827 4.31204C83.0501 3.05301 84.0435 1.76439 85.6403 0Z" fill="#FEFEFE"/>
<path d="M85.6402 0C90.4769 0.450862 99.2643 2.30501 103.635 4.107C103.912 5.92447 104.077 7.27105 104.804 9.00574C107.295 14.9461 113.885 16.5613 120.175 14.2717C120.749 14.0628 121.612 13.7053 122.21 13.5704C123.055 13.9845 124.036 14.8254 124.819 15.3976C128.799 18.309 131.998 21.4784 135.324 24.9741C134.937 25.8645 134.442 26.7177 134.109 27.6205C133.168 30.1757 132.869 33.1368 134.147 35.6477C136.303 39.8778 141.315 41.2454 146.132 41.5215C146.526 42.1717 146.998 43.471 147.296 44.2345C148.672 47.74 149.744 51.3335 150.504 54.9836C150.589 55.3748 150.964 56.9783 150.833 57.2191C150.557 57.7238 148.642 58.7885 148.089 59.2369C144.253 62.3501 142.425 66.7596 145.021 71.0343C146.61 73.6507 148.363 74.8509 151 76.5351C149.767 82.404 148.801 86.5004 146.247 92.1275C145.155 92.4113 143.87 92.414 142.738 92.639C132.878 94.5993 131.399 101.58 135.367 108.835C132.416 112.179 128.534 115.657 124.924 118.448C124.379 118.87 122.881 119.974 122.303 120.299C117.695 118.603 112.834 117.397 108.394 120.271C104.778 122.612 104.253 126.09 103.6 129.679C103.485 130.31 92.237 133.019 90.7533 133.21C89.2102 133.408 87.2188 133.696 85.7679 134C84.6356 132.593 83.6781 131.482 82.2188 130.363C78.2573 127.325 73.1819 127.071 68.8812 129.757C66.8441 131.029 65.9829 132.255 64.4856 133.9C58.9384 133.154 51.6058 131.603 46.5074 129.446C46.6082 128.19 46.6993 127.421 47.0196 126.181C45.1409 125.065 42.7608 123.321 40.9505 122.038C39.9183 121.467 36.3458 119.099 35.5785 118.327C35.984 117.93 38.4091 117.846 39.1129 117.804C43.9071 117.793 45.5792 119.003 50.0254 120.075C53.3233 120.871 56.5464 121.324 59.9399 121.58C75.5478 122.85 91.0799 118.53 103.075 109.583C111.696 103.173 118.127 94.7556 121.643 85.2785C122.479 83.0437 123.401 80.0992 123.619 77.774C123.772 77.2457 123.932 76.719 124.099 76.1944C121.377 76.104 118.363 76.1709 115.599 76.1452C116.181 75.4501 117.023 74.101 117.516 73.335L120.347 68.9366L129.425 54.9811C133.475 60.6733 137.111 67.1648 141.168 72.9067C141.933 72.0423 141.679 66.0831 141.614 64.7297C141.104 52.4195 136.401 40.5349 128.124 30.6421C127.698 30.124 127.135 29.3663 126.432 29.2676C127.459 25.9081 128.672 22.838 124.967 20.3027C122.706 18.7552 120.323 19.0762 117.656 19.3272C111.262 19.9291 104.761 20.1684 98.3927 20.9449C73.4695 7.06555 42.8302 10.1282 21.6972 28.1838C21.0702 28.7929 18.2737 31.595 17.7434 31.9713C17.5326 31.8683 17.5978 31.9147 17.4366 31.7404C17.4307 30.162 15.8507 27.0925 15.1005 25.6163C18.093 21.9832 24.4047 16.3647 28.4325 13.6611C28.9762 13.7907 30.1681 14.2649 30.8119 14.4608C32.8749 15.0878 34.3195 15.1441 36.4313 15.1373C38.5801 15.0782 41.7579 13.472 43.2709 12.1362C45.65 10.036 45.8678 7.00954 46.559 4.37585C50.8196 2.79493 60.0603 0.288782 64.6339 0.0916385C65.5495 1.15427 66.3099 2.04027 67.3916 2.94976C71.2418 6.18723 76.2613 6.8975 80.8269 4.31204C83.05 3.05301 84.0435 1.76439 85.6402 0Z" fill="#2C89C6"/>
<path d="M129.425 54.9812C133.475 60.6733 137.111 67.1648 141.168 72.9068C141.857 73.9906 142.554 75.0704 143.258 76.1468C140.592 76.0756 137.925 76.0874 135.261 76.1827C134.893 78.4243 134.026 81.2106 133.26 83.3696C128.925 95.5034 120.398 106.121 108.886 113.72C93.9965 123.562 75.3179 127.773 56.9367 125.432C53.8025 125.008 50.6958 124.437 47.629 123.724C46.5057 123.455 41.6774 122.067 40.9506 122.038C39.9184 121.467 36.3459 119.099 35.5786 118.327C35.9841 117.93 38.4092 117.846 39.113 117.804C43.9072 117.793 45.5793 119.003 50.0255 120.076C53.3234 120.871 56.5466 121.324 59.94 121.58C75.5479 122.85 91.08 118.53 103.075 109.583C111.696 103.173 118.127 94.7557 121.644 85.2785C122.48 83.0437 123.401 80.0993 123.62 77.7741C123.772 77.2458 123.932 76.719 124.099 76.1945C121.377 76.1041 118.363 76.1709 115.599 76.1452C116.181 75.4501 117.023 74.1011 117.517 73.3351L120.347 68.9366L129.425 54.9812Z" fill="#FEFEFE"/>
<path d="M28.4325 13.6611C28.9762 13.7908 30.1681 14.2649 30.8119 14.4609C32.8749 15.0879 34.3195 15.1442 36.4313 15.1374L36.4728 15.3194L36.7775 15.4636C36.537 16.0467 33.697 17.6993 33.033 18.1144C29.4654 20.3253 26.2373 22.9387 23.4304 25.8887C22.7008 26.6445 21.4606 27.0685 21.6972 28.1839C21.0702 28.7929 18.2737 31.5951 17.7434 31.9714C17.5326 31.8683 17.5978 31.9148 17.4366 31.7405C17.4307 30.1621 15.8507 27.0926 15.1005 25.6164C18.093 21.9833 24.4047 16.3648 28.4325 13.6611Z" fill="#3194D3"/>
<path d="M15.3186 38.3532L15.3518 38.6955L15.4617 38.74C16.6708 37.8218 18.1388 35.8411 19.2439 34.6328C20.8895 32.839 22.6653 31.1421 24.5593 29.5532C36.6823 19.3079 53.1457 14.119 69.8395 15.2824C76.9453 15.7305 83.89 17.3761 90.3011 20.1305C91.0095 20.4412 92.5221 21.0754 93.1481 21.4353C91.0168 21.0218 89.8273 20.5369 87.8268 19.9718C85.9261 19.453 83.9947 19.026 82.0417 18.6929C68.9417 16.3591 55.3312 18.5769 44.0216 24.888C32.2151 31.459 23.8778 41.9587 20.879 54.0315C17.9148 65.9747 20.4299 78.4728 27.8701 88.7685C35.5119 99.2964 47.5955 106.666 61.4146 109.225C74.7212 111.671 88.5784 109.369 99.9857 102.819C105.249 99.7946 108.728 96.7511 112.694 92.5133L112.95 92.5966C113.486 92.3536 114.353 91.206 114.778 90.7526C118.504 86.7742 120.911 82.3021 123.62 77.7739C123.401 80.0991 122.48 83.0436 121.643 85.2784C118.127 94.7556 111.696 103.173 103.075 109.583C91.08 118.53 75.5478 122.85 59.94 121.58C56.5465 121.324 53.3233 120.87 50.0255 120.075C45.5793 119.003 43.9071 117.793 39.113 117.804C38.4092 117.846 35.9841 117.93 35.5786 118.327C34.7708 117.988 29.5349 119.745 28.3412 120.128C27.1202 119.361 25.8598 118.318 24.7464 117.42C21.2213 114.609 17.9811 111.53 15.0625 108.216C16.6457 105.473 17.3202 102.323 16.4534 99.2961C14.56 94.1236 10.1204 93.1419 4.77667 92.1723C2.54379 88.3847 0.54927 80.205 0 75.9399C1.73512 74.7422 2.89482 74.1288 4.18434 72.4133C6.15995 69.7851 6.63416 67.844 6.02281 64.8178C5.10928 61.6041 2.79248 59.8146 0.078405 57.7271C0.115707 56.6594 0.243387 56.0203 0.453171 54.9597C1.20336 51.209 2.31764 47.5227 3.78351 43.9422C4.91709 41.0897 4.59212 41.535 7.95805 41.138C10.4704 40.8418 13.055 40.1785 15.1515 38.8734C15.2126 38.745 15.2757 38.4971 15.3186 38.3532Z" fill="#96A3A3"/>
<path d="M16.4534 99.2961C17.2744 99.3624 17.4433 99.6292 17.9912 100.23C19.0652 101.408 20.0506 102.676 21.1665 103.826C25.1155 107.848 29.6989 111.344 34.7746 114.203C36.975 115.459 39.798 116.549 41.7091 117.739C41.222 117.726 39.3995 117.627 39.113 117.804C38.4092 117.846 35.984 117.93 35.5786 118.327C34.7708 117.988 29.5349 119.746 28.3412 120.128C27.1202 119.362 25.8598 118.319 24.7463 117.42C21.2213 114.609 17.9811 111.53 15.0625 108.217C16.6457 105.474 17.3202 102.323 16.4534 99.2961Z" fill="#818B8D"/>
<path d="M15.1515 38.8735C15.5158 39.7689 13.2016 43.0154 12.6792 43.9594C11.125 46.7379 9.85242 49.6338 8.87713 52.6126C8.29125 54.3507 7.81006 56.1154 7.43565 57.899C7.09996 59.4759 6.62645 63.8582 6.02278 64.8179C5.10925 61.6042 2.79244 59.8147 0.0783691 57.7272C0.115671 56.6595 0.243351 56.0204 0.453135 54.9598C1.20333 51.2091 2.3176 47.5228 3.78348 43.9423C4.91705 41.0898 4.59208 41.5351 7.95801 41.1381C10.4704 40.8419 13.055 40.1786 15.1515 38.8735Z" fill="#818B8D"/>
<path d="M126.432 29.2676C127.135 29.3663 127.698 30.1239 128.124 30.642C136.401 40.5348 141.104 52.4195 141.614 64.7297C141.679 66.0831 141.933 72.0423 141.168 72.9067C137.111 67.1647 133.475 60.6732 129.425 54.9811L120.347 68.9365L117.517 73.335C117.023 74.101 116.181 75.45 115.599 76.1451C118.363 76.1708 121.377 76.104 124.099 76.1944C123.932 76.7189 123.772 77.2457 123.62 77.774C120.911 82.3021 118.504 86.7742 114.778 90.7527C114.353 91.2061 113.486 92.3537 112.95 92.5966L112.694 92.5134C113.003 92.0986 113.415 91.6165 113.757 91.22C116.955 87.5139 119.039 83.5818 120.943 79.2533C118.688 79.4031 115.611 79.6421 113.515 78.7876C112.145 78.2289 111.564 76.6976 112.233 75.4794C113.488 73.1948 115.05 70.9919 116.487 68.7759L125.405 55.0155C125.234 54.6134 125.088 54.0765 124.969 53.6534C124.188 50.8757 123.119 48.2556 121.929 45.5956C123.519 40.1727 125.021 34.7294 126.432 29.2676Z" fill="#3194D3"/>
<path d="M119.949 21.7594C125.613 21.4908 124.669 24.8735 123.736 28.2562L122.335 33.2563L117.878 49.5672L110.024 78.2837L107.476 87.6052C106.973 89.4429 106.488 91.3057 105.911 93.1258C105.747 93.6421 105.332 94.1521 104.872 94.4802C104.375 94.8339 102.985 94.98 102.331 94.9484C99.6468 94.82 96.8061 94.452 94.1363 94.1509C89.2197 93.5792 84.2986 93.037 79.3736 92.5242C79.1838 96.8409 80.0858 96.7369 84.3561 97.7258C87.6774 98.4951 92.773 98.843 95.6992 100.203L95.8315 100.265C95.8378 100.74 95.8615 101.563 95.6556 101.996C95.5268 102.267 95.2892 102.345 94.9692 102.37C93.7923 102.459 92.4265 102.18 91.2635 102.155C90.0013 102.128 88.548 102.134 87.2876 102.173C83.3009 102.306 79.0899 102.472 75.4735 104.127C74.0669 104.771 72.8787 105.715 71.401 106.245C64.8482 105.162 58.4681 103.151 51.8843 102.076C50.4976 101.85 47.057 101.516 45.9093 100.872C45.342 100.554 45.5245 98.7629 45.5478 98.0826C46.0622 97.8372 46.4184 97.7326 46.961 97.5608C53.4032 96.0295 59.8014 95.862 66.3832 95.4786C66.8958 95.4489 67.7126 95.0632 68.093 94.7376C69.1227 93.8562 69.0187 92.4833 69.0292 91.3107C62.1655 90.7301 55.2837 89.7803 48.4311 89.0653C44.733 88.6447 40.8842 88.3922 37.2224 87.8277C35.7841 87.6061 33.6594 86.7358 33.7005 85.3351C33.7456 83.8031 34.308 81.5479 34.6308 80.0332L37.458 67.2483L42.7235 42.7548C43.628 38.5284 44.5205 34.2974 45.4526 30.0778C45.6878 29.0141 46.2129 27.9606 47.5009 27.7492C47.922 27.6799 48.3237 27.549 48.7647 27.5066C51.9195 27.2024 55.0869 26.9678 58.2479 26.714L76.3654 25.2575L104.672 22.9735C109.722 22.5659 114.907 22.0813 119.949 21.7594Z" fill="#32475C"/>
<path d="M114.019 28.0208L114.136 28.1102C114.181 28.6063 112.953 32.8203 112.75 33.5742L110.012 43.8551L103.233 69.6986C101.863 74.924 100.501 80.4403 98.9389 85.6054C92.793 84.8802 86.6561 84.4686 80.4854 83.919L46.2678 80.873C44.4554 80.7269 42.6444 80.5644 40.8354 80.3858C41.877 75.8738 42.8792 71.3547 43.8419 66.829L51.3924 32.5334C54.4201 32.1521 58.746 31.9543 61.8746 31.7389L79.663 30.4716L102.24 28.8381C105.896 28.5747 110.419 28.1319 114.019 28.0208Z" fill="#FEFEFE"/>
<path d="M90.941 88.0893C91.1371 88.0821 91.3336 88.0794 91.5297 88.0806C93.3191 88.0856 100.713 88.1815 96.9551 91.1266C95.8137 91.2804 93.4998 90.9923 92.2866 90.8641C90.0383 90.6268 89.2152 89.6819 90.941 88.0893Z" fill="#FEFEFE"/>
</svg>
