<?xml version="1.0" encoding="utf-8" ?><svg xmlns="http://www.w3.org/2000/svg" xmlns:xlink="http://www.w3.org/1999/xlink" width="59" height="55" viewBox="0 0 59 55"><clipPath id="cl_a"><rect width="59" height="54.969944"/></clipPath><g clip-path="url(#cl_a)"><path fill="#17DD61" transform="scale(0.0537341 0.0537341)" d="M522.408 23.2575C789.909 11.003 1016.61 218.211 1028.56 485.882C1040.52 753.553 833.179 980.166 565.661 991.826C298.552 1003.47 72.5113 796.411 60.5751 529.157C48.6454 261.906 255.328 35.4979 522.408 23.2575ZM533.24 236.456L528.587 273.621C506.31 278.347 481.423 290.062 462.726 293.797C367.35 312.838 320.111 326.501 284.364 423.167C262.032 434.332 247.779 444.16 241.794 468.234C228.042 523.534 229.764 553.132 272.477 589.395C301.902 614.375 314.161 681.268 364.226 698.198C405.136 721.713 476.761 702.305 482.032 744.935C482.5 748.711 482.104 753.236 481.692 757.943C480.926 766.698 480.106 776.08 484.681 782.432C497.696 788.436 520.688 777.713 536.529 770.325C539.224 769.069 541.712 767.908 543.909 766.943L647.95 728.191C715.807 702.795 761.839 689.253 794.139 619.285C797.167 612.632 799.978 605.891 802.614 599.07C809.251 594.582 825.059 584.329 829.721 578.626C857.74 544.423 859.209 481.33 832.76 445.983C824.527 434.976 813.722 427.694 802.791 420.06C782.929 374.647 756.227 331.418 707.231 316.493C658.261 301.579 607.744 289.348 558.399 273.844C556.157 262.446 553.726 247.887 550.761 236.921C593.899 202.925 583.804 167.008 529.058 167.978C498.909 196.525 500.048 211.97 533.24 236.456Z"/><path fill="#17DD61" transform="scale(0.0537341 0.0537341)" d="M551.613 356.415L551.617 356.415C555.161 356.557 558.388 356.687 561.121 356.766C707.775 360.981 760.457 393.906 743.585 551.907C733.781 643.705 668.926 651.343 591.012 659.508C537.883 664.867 426.492 661.636 379.997 627.156C325.16 586.494 329.275 451.817 366.26 400.618C390.676 366.816 458.834 361.545 499.097 357.444C511.628 354.812 535.076 355.752 551.613 356.415ZM639.374 549.728C667.406 522.034 669.902 468.832 623.642 467.272C595.774 494.764 593.975 541.818 639.374 549.728ZM458.359 552.428C491.068 529.003 496.771 475.045 447.958 467.435C417.69 494.209 414.606 538.573 458.359 552.428Z"/></g></svg>