<svg width="103" height="39" viewBox="0 0 103 39" fill="none" xmlns="http://www.w3.org/2000/svg">
<path d="M0.834373 29.3259L0.935317 29.1987C1.4647 29.548 2.10092 31.1291 3.3459 31.9911C4.1429 31.6991 4.93311 31.6258 5.70699 32.0688C9.46727 34.2276 13.7658 34.8601 17.8494 33.2767C19.1761 32.7623 20.5101 31.9993 21.8836 31.7348C22.385 31.6382 22.756 31.881 23.1558 32.1145C23.8632 31.5798 24.1602 31.3706 24.7485 30.6763C25.0674 30.3 25.5868 29.36 25.8686 29.2187C26.1317 29.5695 26.0831 30.9715 25.9833 31.417C25.7253 32.5647 25.4535 33.0068 24.7106 33.9429C25.4189 34.3919 26.7436 35.0645 26.5979 36.0801C26.435 36.1906 25.8869 36.3381 25.6801 36.3515C24.3753 36.4357 22.8916 40.1899 21.5638 38.4597C21.4281 37.9937 21.3683 37.7564 21.297 37.278C18.688 38.3382 16.3072 38.8173 13.4822 38.7918C13.0625 38.7881 12.1892 38.7652 11.7994 38.6656C10.3625 38.675 7.51258 38.0001 6.18344 37.463C5.85525 37.3564 5.81014 37.2707 5.56376 37.3872C5.12629 38.075 5.46003 39.3173 4.12045 38.8748C2.31387 37.6277 2.33139 36.2561 0.00388726 36.1776C0.560978 35.0542 0.915477 34.502 2.11322 34.0584C1.94529 33.8642 1.78557 33.6627 1.63445 33.4545C0.64304 32.0653 0.597528 30.9431 0.834373 29.3259Z" fill="#DF1D1C"/>
<path d="M0.834373 29.3259L0.935317 29.1987C1.4647 29.548 2.10092 31.1291 3.3459 31.9911C4.1429 31.6991 4.93311 31.6258 5.70699 32.0688C9.46727 34.2276 13.7658 34.8601 17.8494 33.2767C19.1761 32.7623 20.5101 31.9993 21.8836 31.7348C22.385 31.6382 22.756 31.881 23.1558 32.1145C23.8632 31.5798 24.1602 31.3706 24.7485 30.6763C25.0674 30.3 25.5868 29.36 25.8686 29.2187C26.1317 29.5695 26.0831 30.9715 25.9833 31.417C25.7253 32.5647 25.4535 33.0068 24.7106 33.9429C25.4189 34.3919 26.7436 35.0645 26.5979 36.0801C26.435 36.1906 25.8869 36.3381 25.6801 36.3515C24.3753 36.4357 22.8916 40.1899 21.5638 38.4597C21.4281 37.9937 21.3683 37.7564 21.297 37.278C18.688 38.3382 16.3072 38.8173 13.4822 38.7918C13.0625 38.7881 12.1892 38.7652 11.7994 38.6656C14.9741 38.6817 17.5044 38.5036 20.5324 37.2904C21.6878 36.8275 22.7548 36.2317 23.9357 35.8511C22.8914 31.7712 23.1568 31.0381 19.0402 33.0123C17.841 33.5874 16.4234 33.9486 15.122 34.1522C12.3589 34.5845 9.74001 34.1775 7.19679 32.9897C6.21691 32.5322 4.99152 31.9359 3.9013 31.8933C3.40198 32.3643 2.9024 35.0091 2.7274 35.801C3.81702 36.0856 5.26438 36.8139 6.18344 37.463C5.85525 37.3564 5.81014 37.2707 5.56376 37.3872C5.12629 38.075 5.46003 39.3173 4.12045 38.8748C2.31387 37.6277 2.33139 36.2561 0.00388726 36.1776C0.560978 35.0542 0.915477 34.502 2.11322 34.0584C1.94529 33.8642 1.78557 33.6627 1.63445 33.4545C0.64304 32.0653 0.597528 30.9431 0.834373 29.3259Z" fill="#5D1212"/>
<path d="M25.8292 29.3477C25.9839 30.1395 25.9748 30.6044 25.9833 31.417C25.7253 32.5647 25.4535 33.0068 24.7106 33.9429C25.4189 34.3919 26.7436 35.0645 26.5979 36.0801C26.435 36.1906 25.8869 36.3381 25.6801 36.3515C24.3753 36.4357 22.8916 40.1899 21.5638 38.4597C22.5952 35.9599 25.6518 39.5822 23.1161 32.3454C24.4881 31.4621 25.0112 30.7119 25.8292 29.3477Z" fill="#DF1D1C"/>
<path d="M0.834373 29.3259C1.94037 30.7588 1.82233 31.1061 3.43153 32.2233C3.16846 33.2107 2.3798 35.7738 2.5532 36.6915C3.23485 37.3727 5.07454 37.628 5.12146 38.5C4.89388 38.7834 4.46255 38.8654 4.12045 38.8748C2.31387 37.6277 2.33139 36.2561 0.00388796 36.1776C0.560978 35.0542 0.915478 34.502 2.11323 34.0584C1.94529 33.8642 1.78557 33.6628 1.63445 33.4545C0.64304 32.0653 0.597529 30.9431 0.834373 29.3259Z" fill="#DF1D1C"/>
<path d="M2.79753 36.0553C3.52395 36.2135 4.58495 36.5328 5.10478 37.0972C5.3464 37.3596 5.29069 37.4843 5.27967 37.8015C4.52301 37.4313 3.32013 37.283 2.80591 36.6825C2.66439 36.5173 2.7552 36.2612 2.79753 36.0553Z" fill="#DF1D1C"/>
<path d="M23.718 36.1073C23.7803 36.1278 23.9166 36.2268 23.9796 36.2686C24.3183 37.0196 22.252 37.4624 21.7288 37.6743C21.6443 37.7083 21.5462 37.6935 21.4487 37.6919L21.6085 37.7216L21.4807 37.5643L21.5147 37.3337C21.9495 36.7177 23.0346 36.3468 23.718 36.1073Z" fill="#DF1D1C"/>
<path d="M17.6169 35.5865C17.8224 35.846 17.969 36.1138 17.8665 36.4466C17.5278 36.4198 17.7649 36.1438 17.3707 36.0043C17.1855 36.212 17.21 36.3384 17.1423 36.647C16.8615 36.5802 17.0052 36.2495 16.6765 36.0879C16.609 36.3099 16.5653 36.4433 16.4724 36.6551C16.3215 36.5677 16.2961 36.3556 16.2222 36.1446C15.9632 36.1116 16.036 36.5689 15.7212 36.8156C15.405 36.5928 15.3747 36.263 15.5831 35.9412C15.6897 36.051 15.7486 36.1217 15.8435 36.2388L15.8842 35.9855C16.1618 35.6814 16.8289 35.9315 17.6169 35.5865Z" fill="#DDC1C9"/>
<path d="M10.8041 35.8736C11.2105 36.2159 10.8699 36.0848 11.1148 36.5745C11.4465 36.5456 11.1847 36.253 11.4958 35.9633L11.6368 36.0376C11.6015 36.3444 11.6 36.4051 11.4667 36.6793C11.2199 36.8796 11.3332 36.8443 11.0442 36.8321C10.6926 36.5389 10.7599 36.293 10.8041 35.8736Z" fill="#ECECF0"/>
<path d="M9.89997 23.9799C9.97664 24.0018 10.0525 24.0263 10.1276 24.0535C11.5261 24.5562 9.98175 27.2559 10.942 27.461C11.9567 26.9341 10.8573 24.4265 11.9366 23.9526C12.8363 24.2097 12.6205 25.5357 12.5373 26.2222C12.4701 26.8161 12.4227 27.9978 11.9695 28.4149C11.5907 28.7638 11.2339 28.3228 10.7514 28.2479C10.2087 28.1559 9.65815 28.3092 9.11155 28.2667C8.79038 28.2418 8.33083 27.89 8.48912 27.5083C8.71004 26.9756 9.01517 26.8331 9.50948 26.6341L9.51496 26.59C9.63971 25.509 9.51247 25.5378 9.43562 24.5063C9.41927 24.2866 9.72193 24.1165 9.89997 23.9799Z" fill="white"/>
<path d="M36.2366 18.4007C36.9527 18.3813 37.5691 18.3908 38.2853 18.4158C38.3354 20.0526 37.9236 24.8068 38.9141 25.5155C43.2035 28.5849 42.138 19.3835 42.1307 18.4317L44.2104 18.4278L44.2131 20.454L44.2239 23.1386C44.2161 25.2364 43.8091 27.3277 41.4328 27.8062C40.1305 28.0828 38.0604 27.9072 37.1703 26.7716C35.6725 24.8603 36.1446 20.6734 36.2366 18.4007Z" fill="#FAFAFA"/>
<path d="M15.7401 23.9324C16.4816 23.9054 17.7181 23.8821 17.7925 24.9806C17.8471 25.7836 17.2604 26.3573 16.7755 26.9193C17.0901 26.7674 17.4595 26.5339 17.8056 26.6995C18.7079 27.1311 19.0651 28.8733 18.6551 29.7227C18.402 29.8896 18.5159 29.8657 18.2295 29.821C17.7964 29.4973 17.5524 28.34 17.3585 27.7673C17.1257 27.7449 16.9171 27.8984 16.6726 28.0152C16.3781 28.1944 15.4778 28.7752 15.1714 28.4145C14.1818 27.249 16.7551 26.2002 16.5872 24.9422C16.3602 24.7181 16.0764 24.6805 15.7832 24.7886C15.6708 25.1273 15.9134 25.3003 15.928 25.8478C15.7241 26.3089 15.3794 26.4708 14.8908 26.3185C14.3899 25.9639 14.3898 25.3998 14.5871 24.8638C14.7829 24.3321 15.269 24.1482 15.7401 23.9324Z" fill="white"/>
<path d="M11.5844 17.2628L11.5067 17.197C10.8948 14.9078 11.9103 13.7685 12.36 11.6035C12.4497 11.2944 12.2623 9.80233 12.3633 9.62314C13.9914 6.73829 11.8022 2.54431 13.1502 0.00282806C13.6877 1.02008 13.6724 1.3101 13.5053 2.46519C13.4726 2.84574 13.4433 3.22656 13.4171 3.60766C13.3699 5.1867 13.0376 7.15566 13.503 8.67183C13.6884 9.27656 15.2461 11.4242 15.6624 12.1186C17.4937 15.1729 19.5417 18.2753 21.2745 21.383C21.264 21.7499 21.2806 22.3632 21.1573 22.6806L21.0482 22.6828C20.0831 22.1269 19.5923 21.437 19.1895 20.3919C18.8506 19.8927 18.5431 19.0784 18.2495 18.5563C17.0177 16.3666 15.2308 11.439 13.76 9.7041L13.6951 9.73066L13.693 10.0112C14.0591 11.9766 14.5967 13.6721 15.0263 15.6081C15.2196 16.4796 14.5662 16.935 14.5166 17.6964C14.5148 17.7152 15.0358 18.06 15.0917 18.096L15.1076 18.2393C15.0039 18.3592 14.9505 18.4423 14.8075 18.5093C13.8764 18.5215 12.9451 18.5166 12.0141 18.4947L11.5371 18.5548C11.3088 18.3657 11.2603 18.391 11.1923 18.1379C11.3712 17.9135 11.6346 17.8769 11.9205 17.7905L11.8404 17.4577L11.5844 17.2628Z" fill="#463C2D"/>
<path d="M12.6567 9.6968L13.6951 9.73066L13.693 10.0112C13.6374 11.7107 14.4905 13.6622 14.7473 15.6591C13.6754 15.6553 12.6035 15.6442 11.5317 15.6254C11.9517 13.214 12.4361 12.3443 12.6567 9.6968Z" fill="#F5A61B"/>
<path d="M15.614 12.4438C16.2138 13.2964 16.7971 14.229 17.3297 15.1364C18.5432 17.2037 19.9688 19.1959 21.0315 21.3453C21.1819 21.6495 21.0873 22.3429 21.0482 22.6828C20.0831 22.1269 19.5923 21.437 19.1895 20.3919C18.9713 19.619 18.5357 18.8345 18.2139 18.1004C17.4503 16.3583 16.2107 14.2134 15.614 12.4438Z" fill="#F5A61B"/>
<path d="M13.18 4.80529C12.9756 4.03702 12.5449 1.03167 13.1179 0.515617C13.456 0.907402 13.4146 1.88915 13.5053 2.46519C13.4726 2.84574 13.4433 3.22657 13.4171 3.60767C13.3146 3.88268 13.2324 4.49095 13.18 4.80529Z" fill="#F5A61B"/>
<path d="M11.8404 17.4577C12.3213 17.4511 13.3657 17.4871 13.7695 17.3434L14.0621 17.6647C13.8913 18.1304 12.2859 17.943 11.9205 17.7905L11.8404 17.4577Z" fill="#6C5021"/>
<path d="M12.0141 18.4947L11.711 18.3646C12.2072 18.1337 14.0908 18.178 14.6139 18.3094C14.6687 18.3631 14.7662 18.4509 14.8075 18.5093C13.8764 18.5215 12.9451 18.5166 12.0141 18.4947Z" fill="#F5A61B"/>
<path d="M11.5844 17.2628C12.0631 17.2352 13.3579 17.1049 13.7441 17.3056L13.7695 17.3434C13.3657 17.4871 12.3213 17.4511 11.8404 17.4577L11.5844 17.2628Z" fill="#9E701D"/>
<path d="M11.3551 15.8224L14.9423 15.8244L14.7044 16.9566C14.0135 17.1347 12.4054 17.0664 11.6306 17.0543C11.5272 16.657 11.4422 16.2261 11.3551 15.8224Z" fill="#F5A61B"/>
<path d="M13.1063 7.71691C13.4811 7.96501 13.4283 9.08805 13.1459 9.43629C12.6268 8.84461 12.871 8.40711 13.1063 7.71691Z" fill="#F5A61B"/>
<path d="M68.8333 20.6499C68.8752 20.6467 68.9171 20.644 68.9592 20.6422C71.6396 20.5197 72.4551 22.5155 72.518 24.8942C71.8538 24.9085 68.003 24.7757 67.6807 25.0777C67.9845 27.0276 70.8538 26.007 71.9281 25.6401C71.9843 26.1547 71.9599 26.7685 71.9541 27.2936C70.4944 28.0478 68.4651 28.2593 67.0546 27.2827C66.2667 26.738 65.7278 25.89 65.5605 24.9319C65.1386 22.5849 66.6616 21.009 68.8333 20.6499ZM69.7384 23.7278C70.0246 23.7251 70.2457 23.755 70.4804 23.5844C70.887 22.7309 69.3171 22.2877 68.6642 22.317C68.278 22.5403 67.8538 22.753 67.6772 23.1842C67.7989 23.9475 69.1562 23.7451 69.7384 23.7278Z" fill="#FAFAFA"/>
<path d="M94.7919 20.8381L96.9188 20.8231L98.622 25.5449C99.1899 24.1481 99.7889 22.3088 100.307 20.8579C100.986 20.8362 101.733 20.8491 102.42 20.8461C101.943 22.3699 100.817 24.8364 100.205 26.4792C99.1589 29.345 98.5344 31.4781 95.0749 30.3709C95.1611 29.8954 95.3395 29.2725 95.4622 28.7931C96.6838 29.0607 97.0289 29.119 97.6269 27.9244C96.7653 25.5994 95.6898 23.2072 94.7919 20.8381Z" fill="#FAFAFA"/>
<path d="M2.58783 17.2005C3.00863 15.1912 3.42543 14.72 4.94626 13.5008C4.75846 14.278 4.62458 14.6924 4.32563 15.4243C4.14129 15.7135 3.92617 16.072 3.71859 16.3354C3.34198 16.7202 3.03046 16.982 2.62283 17.324L2.56193 18.4163C2.91512 17.7636 3.28949 16.9932 3.77899 16.4534C4.00673 16.2405 4.36349 15.967 4.61317 15.7631L4.97554 15.5417L5.08746 15.5988C5.13198 16.2951 4.07185 17.7163 3.66458 18.2678L4.59504 17.6658C4.43539 18.2642 3.8473 19.4273 3.79276 19.8495C3.50441 22.0823 3.62869 23.043 2.15033 24.9152C2.2372 25.4885 2.68335 27.0146 2.46595 27.392C2.34524 27.376 2.24027 27.3631 2.12143 27.333L2.04463 27.313C3.10815 28.3895 3.54453 29.3353 4.14994 30.7294C1.96351 30.1912 0.970122 28.326 0.478755 26.2288C1.09388 26.5411 1.26576 26.6548 1.80113 27.0689C0.448602 25.1897 0.464891 24.2268 0.379883 22.0351C0.579338 22.2877 0.848432 22.5732 1.06681 22.8171C0.443308 20.8363 0.398271 19.9466 1.00895 17.9486C1.74429 19.4799 2.0131 21.4846 1.97503 23.1779C1.97263 23.2828 1.73885 23.657 1.67483 23.7603C1.70229 24.0795 1.93477 24.4508 2.0904 24.7437C2.06332 23.0164 2.18468 22.5669 2.81767 20.9756L2.05468 21.8244L2.21389 20.5906L2.21669 20.6695C1.10182 18.8643 1.36776 17.058 2.33227 15.2722C2.46372 15.9245 2.51906 16.5396 2.58783 17.2005Z" fill="#088427"/>
<path d="M49.7019 20.7005C49.9514 20.6876 50.2014 20.6838 50.4513 20.689C53.7363 20.7819 53.0213 25.5332 52.9407 27.7919L50.9338 27.7859C50.9399 26.5309 51.0213 25.185 50.9176 23.9436C50.8097 22.6503 50.0319 22.4403 48.9577 22.6644C47.8607 23.583 48.1634 26.4233 48.1938 27.7831L46.2006 27.7802L46.2042 20.7663C46.6038 20.7547 47.6109 20.6827 47.9881 20.8292C48.0918 20.8695 48.1393 21.2449 48.1771 21.4105C48.3107 21.4158 49.3243 20.8368 49.7019 20.7005Z" fill="#FAFAFA"/>
<path d="M81.1277 20.7569C82.6432 20.6812 83.1495 20.739 84.5831 21.1622L84.2663 22.74C83.6201 22.5262 81.0984 21.7916 80.9779 22.907C81.6026 23.6657 84.6822 23.4822 84.9219 25.3096C85.1461 27.0192 84.0084 27.6543 82.576 27.9346C80.9984 27.9744 80.537 27.9448 79.0253 27.3878L79.2194 25.7009C79.7856 25.9251 82.8095 27.1165 82.8719 25.7775C82.2609 24.9644 79.3213 25.0652 79.0245 23.4165C78.7268 21.7628 79.7866 21.1533 81.1277 20.7569Z" fill="#FAFAFA"/>
<path d="M57.7496 20.7878L59.8581 20.7817C60.3862 22.3276 60.927 23.8689 61.4805 25.4055C62.0575 23.9857 62.6126 22.261 63.1026 20.8046C63.8048 20.7952 64.5071 20.7931 65.2093 20.7983C65.0501 21.3197 64.7851 21.9913 64.5937 22.5148L62.5577 27.7956C61.869 27.8158 61.1088 27.7982 60.4143 27.7969C59.4845 25.4773 58.5961 23.1406 57.7496 20.7878Z" fill="#FAFAFA"/>
<path d="M90.5742 18.9924C91.1489 18.9627 91.9526 18.9959 92.5438 19.0035L92.6016 20.8666L94.3438 20.8362L94.3496 22.5389L92.5596 22.5379C92.5662 23.5216 92.2052 25.3456 92.9591 26.041C93.2617 26.32 93.8397 26.1927 94.2306 26.1457L94.4724 27.4036C94.3612 27.9517 93.8239 27.9621 93.3489 27.9898C89.9241 28.1902 90.4921 25.0042 90.5628 22.5687L89.4184 22.5384L89.4246 20.8543L90.6171 20.8553C90.5691 20.3746 90.5804 19.4997 90.5742 18.9924Z" fill="#FAFAFA"/>
<path d="M12.0141 18.4947C12.9451 18.5166 13.8764 18.5215 14.8075 18.5093C14.6897 18.8459 14.6874 18.725 14.7416 19.0287C15.036 19.233 15.2968 19.2256 15.6626 19.1782L15.7839 19.2692C15.8549 20.6021 16.4835 20.074 16.4518 21.5228L16.3885 21.8758C16.1392 21.9082 15.8185 21.9388 15.5796 21.9977C15.3534 21.8796 15.144 21.9012 14.8854 21.8948C14.4578 22.1045 13.773 22.4172 13.3799 22.6449C12.7261 22.3554 12.1674 22.1845 11.5539 21.9275C11.1 21.7876 10.6086 22.0134 9.89194 21.6812C9.86949 21.2861 9.88956 21.2107 9.97671 20.8251L10.1237 20.4247C10.8406 19.6346 10.4323 19.477 10.682 19.0647C11.0783 19.1955 11.1627 19.2227 11.5634 19.1029C11.5925 18.8638 11.5726 18.7969 11.5371 18.5548L12.0141 18.4947Z" fill="#463C2D"/>
<path d="M12.0142 18.4947C12.9451 18.5166 13.8764 18.5215 14.8075 18.5093C14.6897 18.8459 14.6874 18.725 14.7416 19.0287C15.036 19.233 15.2968 19.2256 15.6626 19.1782L15.7839 19.2692L15.6998 19.3254L15.5365 19.4237C15.1188 19.6742 15.1967 19.6816 14.7064 19.6673C13.8436 19.6286 12.9804 19.5976 12.117 19.5744L11.8086 19.2913L11.7103 19.2516L12.0063 19.1029L11.5634 19.1029C11.5925 18.8638 11.5726 18.7969 11.5371 18.5548L12.0142 18.4947Z" fill="#35322C"/>
<path d="M12.0063 19.1029C12.7074 19.1138 14.0511 18.9481 14.6026 19.204L14.6961 19.3931L14.7064 19.6673C13.8436 19.6286 12.9804 19.5976 12.117 19.5744L11.8086 19.2913L11.7103 19.2516L12.0063 19.1029Z" fill="#F5A61B"/>
<path d="M11.8086 19.2913C12.2286 19.3822 14.38 19.5188 14.6961 19.3931L14.7064 19.6673C13.8436 19.6286 12.9804 19.5976 12.117 19.5744L11.8086 19.2913Z" fill="#6C5021"/>
<path d="M14.7064 19.6673C15.1967 19.6816 15.1188 19.6742 15.5365 19.4237L15.6998 19.3254C15.6664 19.6711 15.7215 19.8095 15.5232 19.9903C14.5921 20.1787 11.8021 20.151 10.8963 19.8546L10.8571 19.751C11.2733 19.5792 11.6675 19.5761 12.117 19.5744C12.9804 19.5976 13.8436 19.6286 14.7064 19.6673Z" fill="#F5A61B"/>
<path d="M11.5539 21.9275C12.5105 21.7604 13.922 21.8073 14.8854 21.8948C14.4578 22.1045 13.773 22.4172 13.3799 22.645C12.7261 22.3554 12.1674 22.1845 11.5539 21.9275Z" fill="#F5A61B"/>
<path d="M10.1237 20.4247C10.4368 20.6115 10.5674 20.6616 10.762 20.9755C10.8006 21.2742 10.8281 21.1639 10.6735 21.3946C10.367 21.4499 10.4915 21.465 10.2036 21.3334C10.0398 21.1231 10.0312 21.0892 9.97671 20.8251L10.1237 20.4247Z" fill="#F5A61B"/>
<path d="M11.5496 20.4951C11.9481 20.6061 12.1467 20.7105 12.2846 21.1158C12.1582 21.4115 12.2414 21.3096 11.9462 21.4881C11.5579 21.456 11.3624 21.4906 11.1618 21.1257C11.1868 20.829 11.3484 20.7072 11.5496 20.4951Z" fill="#F5A61B"/>
<path d="M12.6603 20.6119C12.9872 20.6213 13.1862 20.6036 13.4801 20.7513C13.7153 20.969 13.7053 21.1317 13.7463 21.4485C13.4101 21.4492 12.9968 21.4952 12.7324 21.3091C12.5677 20.9793 12.6244 21.0337 12.6603 20.6119Z" fill="#F5A61B"/>
<path d="M14.3228 20.5995C14.6769 20.6161 14.8813 20.6287 15.1253 20.8927C15.1936 21.2472 15.202 21.0988 15.0645 21.4601C14.6535 21.4624 14.4407 21.4943 14.1371 21.2264C14.1186 20.8532 14.1234 20.9627 14.3228 20.5995Z" fill="#F5A61B"/>
<path d="M15.7331 20.7114C15.8542 20.609 16.0214 20.5854 16.165 20.6503C16.3087 20.7154 16.4042 20.8578 16.4119 21.0183C16.4197 21.179 16.3383 21.3302 16.2015 21.4093C16.0141 21.5176 15.777 21.4615 15.6552 21.2799C15.5334 21.0984 15.5672 20.8515 15.7331 20.7114Z" fill="#F5A61B"/>
<path d="M77.3938 20.7372C77.4745 20.7313 77.5553 20.7266 77.6361 20.7235C78.5894 20.6893 78.336 21.8693 78.3087 22.5497C78.2102 22.5498 78.1117 22.5507 78.0132 22.5525C75.1322 22.6074 75.7641 25.712 75.8596 27.8246L73.9777 27.8231C73.7719 27.5526 73.8884 21.6511 73.8938 20.8311L75.794 20.818L75.8898 21.7405C76.4494 21.1381 76.6261 20.9979 77.3938 20.7372Z" fill="#FAFAFA"/>
<path d="M23.9427 18.8087C23.8739 17.2691 23.9735 16.5167 24.0226 15.0637C24.849 16.725 24.9775 17.2984 25.0402 19.1382L25.4054 17.987C25.5684 18.4157 25.8204 19.0311 25.8179 19.4851C25.5978 21.1499 25.5988 22.5232 24.6559 24.0692C24.5351 23.2569 24.5841 21.3734 24.5747 20.4671C24.4408 20.3554 24.52 20.3962 24.3122 20.3879C24.205 20.6463 24.3196 21.1579 24.3429 21.5028L24.2589 21.5965L24.0654 21.4473C23.9509 21.7179 24.0644 21.9645 24.1512 22.2476C23.5962 21.3681 23.5229 21.1369 22.8455 20.3345C22.8338 19.9277 22.3199 18.9613 22.1198 18.5191C21.9289 18.1136 21.8993 18.0209 21.8049 17.5808L23.0655 18.485C22.7233 18.0847 22.3809 17.716 22.0234 17.3314C21.644 16.6591 21.3182 16.0638 21.0851 15.3151C22.6991 16.3621 23.2987 16.8896 23.9427 18.8087Z" fill="#088427"/>
<path d="M22.1198 18.5191L22.2588 18.512C22.5525 18.9599 24.0134 21.124 24.0654 21.4473C23.9509 21.7179 24.0644 21.9645 24.1512 22.2476C23.5962 21.3681 23.5229 21.1369 22.8455 20.3345C22.8338 19.9277 22.3199 18.9613 22.1198 18.5191Z" fill="#FAFAFA"/>
<path d="M16.3885 21.8758L16.4518 21.5228C19.2401 21.5379 19.0279 21.8289 19.716 24.5201C19.8993 25.2373 21.0753 30.3513 21.3573 30.3811L21.613 31.098C21.2049 30.9007 21.1099 30.8524 20.6687 30.7835L20.7165 30.868C21.0536 30.9935 21.1181 30.9515 21.3038 31.2075C21.0148 31.5881 19.086 31.6411 18.5681 31.6843C17.2723 31.9443 16.1487 32.1903 15.0502 32.9572C14.903 32.7605 14.5459 32.2597 14.3956 32.106L14.491 31.9098C14.6475 31.9563 14.8517 31.9916 15.0084 31.9361C16.5318 31.3961 17.8629 30.9911 19.4629 30.7393L19.5313 30.6254C19.7132 30.3979 19.7752 30.3778 20.0358 30.2468L19.6708 30.0533C19.6376 28.9433 19.1743 27.8345 19.1619 27.0939L19.297 27.1362C19.3221 26.262 18.913 25.8784 18.9529 24.8054C18.7831 23.9558 18.6421 23.208 18.3059 22.4093L18.0471 22.3122C17.9937 22.4994 18.0393 22.4833 18.1565 22.7223L17.9722 23.4068C17.8018 22.7742 17.6904 22.3649 17.5981 21.7132C17.2114 21.7412 16.7761 21.8175 16.3885 21.8758ZM15.3176 32.3622C16.3283 31.9498 16.8242 31.7628 17.8941 31.5458L17.9203 31.4447L17.9007 31.4267C17.3082 31.5278 15.6157 31.7872 15.2447 32.2169C15.2635 32.2605 15.2883 32.3362 15.3176 32.3622Z" fill="#4673AA"/>
<path d="M18.9529 24.8054C19.1317 25.4886 20.1648 29.5033 20.423 29.7944L20.3688 29.9583C20.5559 30.2504 20.4604 30.3218 20.6612 30.6678L20.5877 30.7226L20.6687 30.7835L20.7165 30.868C21.0536 30.9935 21.1181 30.9515 21.3038 31.2076C21.0148 31.5881 19.086 31.6411 18.5681 31.6843C17.2724 31.9443 16.1487 32.1903 15.0502 32.9572C14.903 32.7605 14.5459 32.2597 14.3956 32.106L14.491 31.9098C14.6475 31.9563 14.8517 31.9917 15.0084 31.9361C16.5318 31.3961 17.8629 30.9911 19.4629 30.7393L19.5313 30.6254C19.7132 30.3979 19.7752 30.3778 20.0358 30.2468L19.6708 30.0534C19.6376 28.9433 19.1743 27.8345 19.1619 27.0939L19.297 27.1362C19.3221 26.262 18.913 25.8784 18.9529 24.8054ZM15.3176 32.3622C16.3283 31.9498 16.8242 31.7628 17.8941 31.5458L17.9203 31.4447L17.9007 31.4267C17.3082 31.5278 15.6157 31.7872 15.2447 32.2169C15.2635 32.2605 15.2883 32.3362 15.3176 32.3622Z" fill="#5682B8"/>
<path d="M20.7165 30.868C21.0536 30.9935 21.1181 30.9515 21.3038 31.2075C21.0148 31.5881 19.086 31.6411 18.5681 31.6843C19.1206 30.9966 20.0892 31.4647 20.7165 30.868Z" fill="#4673AA"/>
<path d="M19.1619 27.0939L19.297 27.1362C19.443 27.6878 19.9883 29.7773 20.0358 30.2468L19.6708 30.0533C19.6376 28.9433 19.1743 27.8345 19.1619 27.0939Z" fill="#CCD1E0"/>
<path d="M17.9007 31.4267L17.9203 31.4447L17.8941 31.5458C16.8242 31.7628 16.3283 31.9498 15.3176 32.3622C15.2883 32.3362 15.2635 32.2605 15.2447 32.2169C15.6157 31.7872 17.3082 31.5278 17.9007 31.4267Z" fill="#ECECF0" fill-opacity="0.054902"/>
<path d="M18.3059 22.4093L18.4012 22.222C18.697 22.5934 20.392 29.1285 20.423 29.7944C20.1648 29.5033 19.1317 25.4886 18.9529 24.8054C18.7831 23.9559 18.6421 23.208 18.3059 22.4093Z" fill="#ECECF0"/>
<path d="M86.2936 20.8442L88.2908 20.849C88.3184 23.1558 88.2915 25.5235 88.2905 27.835L86.2802 27.8372L86.2936 20.8442Z" fill="#FAFAFA"/>
<path d="M54.7947 20.7866C55.4277 20.8115 56.1512 20.7897 56.792 20.7838L56.7741 27.7917L54.7808 27.7981L54.7947 20.7866Z" fill="#FAFAFA"/>
<path d="M25.8179 19.4851C26.0098 20.5106 25.8422 21.3213 25.7071 22.3425L25.7637 22.3795C25.8721 22.2599 26.0035 22.0762 26.1335 22.0315C26.3463 23.3917 25.7872 25.5304 25.1258 26.7714C25.4488 26.5696 25.8136 26.3289 26.1464 26.1559C26.0018 26.5976 25.8566 27.0697 25.6993 27.5041C24.8299 29.5309 24.331 30.0925 22.2991 30.9694C22.4629 30.5973 22.8654 29.6311 23.0527 29.327C23.2298 28.9479 23.6574 28.3131 23.8942 27.9389C23.8234 27.3975 24.0292 26.8508 24.1842 26.3304C24.1747 26.1128 24.3461 25.2827 24.3943 25.0218C24.2335 24.8386 24.0528 24.5713 23.9066 24.368C24.0696 24.3125 24.2321 24.2342 24.3908 24.164C24.4115 24.3402 24.4031 24.3874 24.5157 24.5255C24.6787 24.3318 24.6268 24.3795 24.6559 24.0692C25.5988 22.5232 25.5978 21.1499 25.8179 19.4851Z" fill="#FAFAFA"/>
<path d="M23.0527 29.327C23.449 29.1916 24.8688 26.8389 25.6747 26.751C25.8142 27.025 25.738 27.1452 25.6993 27.5041C24.8299 29.5309 24.331 30.0925 22.2991 30.9694C22.4629 30.5973 22.8654 29.6311 23.0527 29.327Z" fill="#088427"/>
<path d="M24.1842 26.3304C24.3821 26.1695 24.3653 25.8934 24.4072 25.6375C24.5982 24.4716 25.4421 23.4718 25.9683 22.4522C25.9061 24.0388 25.9221 25.282 24.9032 26.587C24.6289 26.9384 24.0771 27.5932 23.8942 27.9389C23.8234 27.3975 24.0292 26.8508 24.1842 26.3304Z" fill="#088427"/>
<path d="M12.2048 9.89239C10.5889 13.6653 8.7125 17.3548 7.04122 21.1053C6.59313 22.1111 6.15298 22.3468 5.25051 22.8866C5.29955 21.7692 5.26121 21.2899 5.96344 20.3908L5.98904 20.3369C6.44162 19.2468 7.82819 17.006 8.49027 15.8921C9.63587 13.9645 10.8761 11.6286 12.2048 9.89239Z" fill="#F5A61B"/>
<path d="M12.2048 9.89239C10.5889 13.6653 8.7125 17.3548 7.04122 21.1053C6.59313 22.1111 6.15298 22.3468 5.25051 22.8866C5.29955 21.7692 5.26121 21.2899 5.96344 20.3908C5.7939 21.2567 5.42144 20.9351 5.51688 22.4783L6.45519 21.9337C7.40905 20.0042 8.32499 18.0554 9.20208 16.0881C9.63173 15.1336 10.3705 13.5633 10.6507 12.5848C9.4696 14.2837 8.40324 16.4724 7.2979 18.2584C6.97743 18.7763 6.36967 19.9168 5.98904 20.3369C6.44162 19.2468 7.82819 17.006 8.49027 15.8921C9.63587 13.9645 10.8761 11.6286 12.2048 9.89239Z" fill="#463C2D"/>
<path d="M5.59374 31.0703C5.84305 30.7513 6.82692 23.2416 7.38506 22.3182C7.54649 22.0512 7.65397 22.0692 7.91702 21.9525C7.9667 22.2631 7.88724 22.3532 7.90438 22.5804C7.47788 23.0794 6.68296 28.5152 6.52806 29.498L6.54351 29.605C6.5174 30.0252 6.42383 30.3725 6.60362 30.69C6.84849 30.8093 6.96487 30.8001 7.23222 30.8215C8.57483 30.99 10.4643 31.1488 11.6657 31.7444L12.0597 31.9773C12.2686 31.8793 12.5909 31.8091 12.821 31.7488C12.9504 31.8116 13.0786 31.8674 13.1996 31.9444C12.8206 32.2365 12.5639 32.4389 12.38 32.906L12.2837 32.7619L12.2556 32.7231C11.8274 32.1191 10.9626 31.9667 10.2879 31.7861C9.76324 31.6458 6.39627 31.1641 6.11674 31.3477C6.4393 31.507 8.54525 31.627 9.10089 31.7274C10.16 31.9187 10.5906 32.0586 11.5817 32.5066L11.4102 32.7073C9.8361 31.9292 7.21775 31.8078 5.51473 31.7759C5.56079 31.5552 5.57438 31.2977 5.59374 31.0703Z" fill="#4673AA"/>
<path d="M7.23222 30.8215C8.57483 30.99 10.4643 31.1488 11.6657 31.7444L12.0597 31.9773C11.6976 32.021 9.61437 31.3437 9.02342 31.2424C8.38607 31.133 7.64786 30.9943 6.96168 30.9053L7.23222 30.8215Z" fill="#CCD1E0"/>
<path d="M6.52806 29.498L6.54351 29.605C6.51741 30.0252 6.42383 30.3725 6.60362 30.69C6.84849 30.8093 6.96487 30.8001 7.23222 30.8215L6.96168 30.9053C6.64613 30.9276 6.46911 30.9936 6.24515 30.7731C6.1714 30.4608 6.42101 29.8346 6.52806 29.498Z" fill="#ECECF0"/>
<path d="M7.79665 23.3074C7.9339 23.1238 7.98783 23.0439 8.1544 22.8905L8.3049 22.8787C8.36027 23.1885 8.29703 23.2113 8.18761 23.5408C8.02996 24.1218 7.92095 24.5353 7.82067 25.1325L7.86705 25.2546C8.04247 25.7722 7.20932 29.1272 7.15594 30.1426L7.25852 30.1627C9.09509 30.4838 10.9388 30.3436 12.6275 31.2069C12.8748 31.3333 13.1512 31.4724 13.4295 31.4696L13.5453 31.3485L13.742 31.4336L14.6781 31.0647C14.5876 31.2954 14.5066 31.3363 14.2993 31.4574L14.3099 31.5358C14.8121 31.3944 14.8149 31.2479 15.3771 31.1916L15.6978 31.3642C15.3566 31.4943 14.7548 31.6889 14.491 31.9098L14.3956 32.106C13.7731 31.9633 13.9032 31.9054 13.1996 31.9444C13.0786 31.8674 12.9504 31.8116 12.821 31.7488C12.5909 31.8091 12.2686 31.8793 12.0597 31.9773L11.6657 31.7444C10.4643 31.1488 8.57483 30.99 7.23222 30.8215C6.96487 30.8001 6.84849 30.8093 6.60362 30.69C6.42383 30.3725 6.51741 30.0252 6.54351 29.6049C6.73956 29.1714 7.57262 24.2667 7.79665 23.3074Z" fill="url(#paint0_linear_1_1215)"/>
<path d="M7.82068 25.1325L7.86705 25.2546C8.04247 25.7722 7.20933 29.1272 7.15594 30.1426C7.11572 30.2499 7.10397 30.2423 7.02793 30.3351C6.88593 29.8481 7.60798 25.8402 7.82068 25.1325Z" fill="#ECECF0"/>
<path d="M11.6657 31.7445C11.9626 31.4693 11.8375 31.5129 12.1659 31.4685C12.4034 31.562 12.5895 31.6413 12.821 31.7489C12.5909 31.8092 12.2687 31.8793 12.0597 31.9773L11.6657 31.7445Z" fill="#5682B8"/>
<path d="M23.1409 23.2073C22.9785 22.5097 22.6485 21.0077 22.8455 20.3345C23.5229 21.1369 23.5962 21.3681 24.1512 22.2476C24.3795 23.0155 24.5271 23.3613 24.3907 24.164C24.2321 24.2342 24.0696 24.3125 23.9066 24.368C23.7195 24.0632 23.3921 23.4798 23.1546 23.2536C23.6112 24.2432 24.4203 26.9543 23.5059 27.7694C23.1571 27.6972 23.1194 27.2341 23.0368 26.906C22.6331 25.9618 22.6047 25.0787 22.6098 24.0769C22.5814 23.6498 22.6046 22.862 22.6042 22.409L23.1409 23.2073Z" fill="#088427"/>
<path d="M22.6098 24.0769C22.9782 24.5162 23.1762 26.375 23.0368 26.906C22.6331 25.9618 22.6047 25.0787 22.6098 24.0769Z" fill="#07621E"/>
<path d="M9.89195 21.6812C10.6086 22.0134 11.1 21.7876 11.5539 21.9275C12.1674 22.1845 12.7261 22.3554 13.3799 22.6449C13.773 22.4172 14.4578 22.1045 14.8854 21.8948C15.144 21.9012 15.3534 21.8796 15.5796 21.9977C14.7671 22.209 14.293 22.3311 13.5548 22.7875C13.5839 25.5204 13.6558 28.6919 13.742 31.4336L13.5453 31.3485C13.3204 28.9776 13.3652 25.3036 13.3 22.8434C11.8614 22.0117 10.3764 21.9829 8.77234 22.0342C8.67399 22.8673 8.42581 23.8875 8.29105 24.746C8.00246 26.5823 7.76167 28.3729 7.25853 30.1627L7.15594 30.1426C7.20933 29.1272 8.04247 25.7722 7.86706 25.2546C8.1366 24.8401 8.16033 24.0436 8.18761 23.5408C8.29703 23.2113 8.36027 23.1885 8.3049 22.8787L8.1544 22.8905C7.98783 23.0439 7.9339 23.1238 7.79665 23.3074C7.826 23.0268 7.91353 22.8484 8.01492 22.5877L7.90438 22.5804C7.88724 22.3532 7.96671 22.2631 7.91703 21.9525C8.50781 21.7934 9.27035 21.7435 9.89195 21.6812Z" fill="#4673AA" fill-opacity="0.980392"/>
<path d="M21.3573 30.3811C21.2969 29.413 21.3038 26.4287 22.1533 25.8203C23.2933 25.9928 22.7606 30.3097 21.7258 31.1612L21.613 31.098L21.3573 30.3811Z" fill="#088427"/>
<path d="M4.19963 25.6352C5.41355 26.3976 5.31282 29.6835 4.94 30.9503C3.51452 30.2755 3.66587 26.9091 4.19963 25.6352Z" fill="#088427"/>
<path d="M86.8124 17.546C88.4379 17.4718 89.2913 18.7516 87.7899 19.7987C86.1764 19.8503 85.3108 18.6341 86.8124 17.546Z" fill="#FAFAFA"/>
<path d="M55.2333 17.4982C55.8986 17.5645 56.4434 17.5616 56.8571 18.1876C57.2964 18.8522 56.7789 19.4219 56.2734 19.7792C54.7257 19.8821 53.7716 18.6631 55.2333 17.4982Z" fill="#FAFAFA"/>
<path d="M3.78992 22.5452C4.09081 23.7428 3.83595 26.8928 3.01175 27.8208L2.88162 27.7308C2.21351 25.6917 2.7472 24.2804 3.78992 22.5452Z" fill="#088427"/>
<path d="M15.1381 10.3746C15.3509 10.4382 15.7305 10.6956 15.8776 10.8563C16.8532 11.9224 19.4308 13.8624 19.7176 15.2503L18.7553 15.0679C17.6751 13.783 16.0954 11.7337 15.1381 10.3746Z" fill="#463C2D"/>
<path d="M16.6961 12.0047C17.3096 12.2787 19.2954 14.3193 19.4884 15.0274C19.4348 15.0182 19.3812 15.0081 19.3278 14.9972C18.4594 14.8182 17.2206 12.8184 16.6961 12.0047Z" fill="#F5A61B"/>
<path d="M19.5087 29.8854L19.6708 30.0533L20.0358 30.2468C19.7752 30.3778 19.7132 30.3979 19.5313 30.6254C18.659 30.6159 16.5587 31.0819 15.6978 31.3642L15.3771 31.1916C14.8149 31.2479 14.8121 31.3944 14.3099 31.5358L14.2993 31.4574C14.5066 31.3363 14.5876 31.2954 14.6781 31.0647C15.5801 30.3901 18.3752 30.247 19.5087 29.8854Z" fill="#4673AA"/>
<path d="M14.8477 9.17891C15.6425 9.43602 18.1093 10.9735 18.7739 11.6108C19.0205 11.8473 19.2022 12.1661 19.3631 12.4719C19.0837 12.4672 18.6994 12.4554 18.4587 12.3124C17.1752 11.5498 15.8548 10.2568 14.8477 9.17891Z" fill="#463C2D" fill-opacity="0.988235"/>
<path d="M16.1451 10.2027C17.1025 10.4123 18.4956 11.4201 18.9894 12.2652C18.1234 12.2713 16.7889 10.8345 16.1451 10.2027Z" fill="#F5A61B"/>
<path d="M21.4189 13.5757C22.735 14.1306 23.5565 15.8992 23.8352 17.2453C22.6387 17.0309 21.6325 14.6902 21.4189 13.5757Z" fill="#088427"/>
<path d="M11.1846 9.26464L11.205 9.38283C11.0979 9.5819 10.8518 9.89108 10.6756 10.0331C9.7469 10.7805 8.38738 12.3948 7.20427 12.485C7.09822 11.4459 10.3257 9.76282 11.1846 9.26464Z" fill="#463C2D"/>
<path d="M9.6591 10.4007L9.78519 10.4439C9.59511 10.9616 8.13404 11.9956 7.63798 12.3141C7.5427 12.2741 7.53453 12.2494 7.45212 12.1762L7.4909 11.96C7.92094 11.3847 9.02013 10.784 9.6591 10.4007Z" fill="#F5A61B"/>
<path d="M15.5834 2.73189C15.7323 2.78056 15.6635 2.73931 15.7638 2.90282C15.7872 4.12803 14.5226 6.027 13.8747 7.06106L13.8289 7.08319L13.7778 6.99865C14.1546 5.63815 14.5864 3.69979 15.5834 2.73189Z" fill="#35322C"/>
<path d="M15.4456 3.00928C15.5378 3.10484 15.5291 3.12824 15.5837 3.26272C15.504 4.08714 14.9007 5.05792 14.4274 5.72598C14.3969 5.69995 14.3645 5.61707 14.3434 5.57373C14.5223 4.72833 14.9061 3.68469 15.4456 3.00928Z" fill="#F5A61B"/>
<path d="M14.7711 8.27278C15.9529 8.35423 17.9782 8.56915 18.5795 9.68827C17.4694 9.94503 15.6389 8.96771 14.7711 8.27278Z" fill="#F5A61B"/>
<path d="M11.1944 8.30111L11.2533 8.31122L11.28 8.44768C10.8151 8.98257 8.67332 9.80682 7.94985 9.81348C7.81494 9.74195 7.87347 9.77317 7.77399 9.61182L7.8253 9.42512C8.41097 8.75898 10.2514 8.50397 11.1944 8.30111Z" fill="#463C2D"/>
<path d="M9.97045 8.74029L10.0563 8.7844L10.0314 8.92567C9.55382 9.28134 8.78571 9.5302 8.2178 9.69314L8.08074 9.54677L8.14711 9.36672C8.62052 8.97774 9.37377 8.86001 9.97045 8.74029Z" fill="#F5A61B"/>
<path d="M9.11045 4.72069C10.2802 4.98728 11.2882 6.37512 11.8858 7.38231C11.3388 7.12516 10.8173 6.81458 10.3287 6.45479C9.7048 5.98652 9.23722 5.5132 9.11045 4.72069Z" fill="#F5A61B"/>
<path d="M17.9722 23.4068L18.1565 22.7223C18.3515 23.1985 18.4074 23.5425 18.4593 24.0534C18.5655 25.0977 18.865 26.0936 19.1619 27.0939C19.1744 27.8345 19.6376 28.9433 19.6708 30.0533L19.5087 29.8854C19.3674 29.5305 19.0425 28.1031 18.9468 27.691L17.9722 23.4068Z" fill="#4673AA"/>
<path d="M16.9454 4.71997C17.1489 4.72677 17.0676 4.6878 17.2037 4.8243C17.2188 5.63654 15.2865 6.90273 14.6882 7.31629L14.5831 7.38327L14.4787 7.3501C14.6236 6.65814 16.299 5.07134 16.9454 4.71997Z" fill="#FAFAFA"/>
<path d="M16.8735 4.9838C17.0821 5.53253 15.7185 6.3632 15.33 6.62141C15.2155 6.12804 16.5018 5.19859 16.8735 4.9838Z" fill="#F5A61B"/>
<path d="M8.10781 6.73807C9.546 6.83289 10.4023 7.21582 11.5718 8.00025C10.6486 8.01311 9.68337 7.88934 8.80654 7.5911C8.54347 7.34466 8.32532 7.02993 8.10781 6.73807Z" fill="#F5A61B"/>
<path d="M8.36123 13.9785C7.82955 14.3304 7.85313 14.7771 7.11173 14.9287L7.0164 14.8277C7.22608 14.1054 9.08244 12.3704 9.65587 11.9531L9.63871 12.4077C9.33419 12.7733 8.63335 13.7126 8.36123 13.9785Z" fill="#F5A61B"/>
<path d="M17.2559 6.69028C17.5916 6.67724 17.7744 6.63216 17.9898 6.89857L17.8914 7.11376C17.2801 7.65927 16.3806 7.80399 15.6077 7.96392C15.5508 7.98712 15.2232 8.03659 15.142 8.05014L15.0688 7.97532C15.2287 7.64084 16.8282 6.90296 17.2559 6.69028Z" fill="#35322C"/>
<path d="M17.2489 6.85363C17.5435 6.88465 17.5796 6.83341 17.748 7.01461C17.6017 7.34817 16.939 7.48417 16.6232 7.55598C16.4095 7.60534 16.3466 7.60863 16.1271 7.61115L16.0884 7.52583C16.3693 7.26692 16.8958 7.03218 17.2489 6.85363Z" fill="#F5A61B"/>
<path d="M8.36124 13.9785C8.05354 14.6326 7.53836 15.1888 6.78836 15.163L6.74309 15.0051C6.99895 13.9789 10.1466 11.1976 11.076 10.301C10.6093 11.0941 10.18 11.6736 9.63871 12.4077L9.65587 11.9531C9.08245 12.3704 7.22608 14.1054 7.01641 14.8277L7.11174 14.9287C7.85313 14.7771 7.82955 14.3304 8.36124 13.9785Z" fill="black"/>
<path d="M18.1565 22.7223C18.0393 22.4833 17.9937 22.4994 18.0471 22.3122L18.3059 22.4093C18.6421 23.208 18.7831 23.9558 18.9529 24.8054C18.913 25.8784 19.3221 26.262 19.297 27.1362L19.1619 27.0939C18.865 26.0936 18.5655 25.0977 18.4593 24.0534C18.4074 23.5425 18.3514 23.1985 18.1565 22.7223Z" fill="#8FA9C7" fill-opacity="0.0117647"/>
<path d="M10.684 3.63128C10.5996 3.24595 10.5458 3.26564 10.6413 2.93228L10.7889 2.91003C11.2078 3.23155 11.5748 3.93562 11.6563 4.43233C11.6851 4.78415 11.8601 5.54925 11.935 5.92455C11.355 5.1399 11.0953 4.5157 10.684 3.63128Z" fill="#F5A61B"/>
<path d="M19.5313 30.6254L19.4629 30.7393C17.8629 30.9911 16.5318 31.3961 15.0084 31.9361C14.8517 31.9917 14.6475 31.9563 14.491 31.9098C14.7548 31.6889 15.3566 31.4943 15.6978 31.3642C16.5587 31.0819 18.659 30.6159 19.5313 30.6254Z" fill="#ECECF0" fill-opacity="0.0352941"/>
<path d="M11.5817 32.5066C10.5906 32.0586 10.16 31.9187 9.1009 31.7274C8.54525 31.627 6.4393 31.507 6.11674 31.3477C6.39628 31.1641 9.76325 31.6458 10.2879 31.7861C10.9626 31.9667 11.8274 32.119 12.2556 32.7231L12.2837 32.7619C12.0528 32.6873 11.8108 32.5917 11.5817 32.5066Z" fill="#ECECF0" fill-opacity="0.0627451"/>
<path d="M7.90438 22.5804L8.01492 22.5877C7.91352 22.8484 7.826 23.0268 7.79665 23.3074C7.57262 24.2667 6.73956 29.1714 6.54351 29.6049L6.52806 29.498C6.68296 28.5152 7.47788 23.0794 7.90438 22.5804Z" fill="#ECECF0" fill-opacity="0.0784314"/>
<path d="M10.684 3.63127C11.0953 4.5157 11.355 5.1399 11.935 5.92454C11.8601 5.54925 11.6851 4.78414 11.6563 4.43233C12.0369 5.17784 12.3067 6.36253 12.4732 7.17974C11.8111 6.15121 10.8829 4.83657 10.684 3.63127Z" fill="black"/>
<path d="M2.62283 17.324C3.03046 16.982 3.34198 16.7202 3.7186 16.3354L3.779 16.4534C3.2895 16.9932 2.91512 17.7636 2.56193 18.4163L2.62283 17.324Z" fill="#ECECF0" fill-opacity="0.01"/>
<path d="M3.71859 16.3354C3.92617 16.072 4.14129 15.7135 4.32563 15.4243L4.6686 15.3652L4.76014 15.4387L4.61317 15.7631C4.36349 15.967 4.00673 16.2405 3.77899 16.4534L3.71859 16.3354Z" fill="url(#paint1_linear_1_1215)"/>
<path d="M5.51473 31.7759L5.35751 31.7758C5.33204 31.4516 5.21374 30.6559 5.45047 30.451C5.609 30.6514 5.58353 30.8061 5.59374 31.0703C5.57438 31.2977 5.5608 31.5552 5.51473 31.7759Z" fill="url(#paint2_linear_1_1215)"/>
<path d="M21.805 17.5808L21.6598 17.485L21.6714 17.1414C21.8773 17.3541 21.7859 17.3233 22.0234 17.3314C22.3809 17.716 22.7233 18.0847 23.0655 18.485L21.805 17.5808Z" fill="#ECECF0" fill-opacity="0.0117647"/>
<path d="M11.5817 32.5066C11.8108 32.5917 12.0528 32.6873 12.2837 32.7619L12.38 32.906L12.2589 32.9823C11.9408 33.0126 11.7091 32.8537 11.4102 32.7073L11.5817 32.5066Z" fill="#5682B8" fill-opacity="0.972549"/>
<path d="M8.18761 23.5408C8.16033 24.0436 8.1366 24.8401 7.86706 25.2546L7.82068 25.1325C7.92095 24.5354 8.02997 24.1218 8.18761 23.5408Z" fill="#ECECF0" fill-opacity="0.117647"/>
<defs>
<linearGradient id="paint0_linear_1_1215" x1="9.48506" y1="31.6233" x2="12.2055" y2="24.4284" gradientUnits="userSpaceOnUse">
<stop stop-color="#496FA3"/>
<stop offset="1" stop-color="#5685B7"/>
</linearGradient>
<linearGradient id="paint1_linear_1_1215" x1="4.55372" y1="15.7316" x2="4.17368" y2="15.5424" gradientUnits="userSpaceOnUse">
<stop stop-color="white" stop-opacity="0"/>
<stop offset="1" stop-color="#EDF6F0" stop-opacity="0.054902"/>
</linearGradient>
<linearGradient id="paint2_linear_1_1215" x1="5.583" y1="31.1386" x2="5.18648" y2="31.0635" gradientUnits="userSpaceOnUse">
<stop stop-color="white" stop-opacity="0"/>
<stop offset="1" stop-color="#D4D2D5" stop-opacity="0.0588235"/>
</linearGradient>
</defs>
</svg>
