<?xml version="1.0" encoding="utf-8" ?><svg xmlns="http://www.w3.org/2000/svg" xmlns:xlink="http://www.w3.org/1999/xlink" width="205" height="149" viewBox="0 0 205 149"><clipPath id="cl_6"><rect x="0.00048828125" width="205.00002" height="149.00002"/></clipPath><g clip-path="url(#cl_6)"><path fill="#00465E" transform="matrix(0.145287 0 0 0.14565 0.000488281 0)" d="M514.171 311.075C526.1 309.803 546.967 311.38 558.965 313.54C600.464 320.972 638.162 342.409 665.774 374.273C673.201 382.766 679.449 391.843 685.883 401.074C674.997 401.149 663.797 401.387 652.945 400.84C650.577 398.668 647.543 395.298 645.322 392.825C621.884 366.718 595.477 349.415 560.9 341.558C519.981 332.592 477.178 340.081 441.73 362.404C406.229 384.87 381.072 420.484 371.759 461.456C362.345 502.58 369.875 545.765 392.648 581.277C415.445 617.127 451.631 642.366 493.145 651.375C538.54 661.193 579.401 650.086 617.67 625.38C621.817 621.837 627.303 617.634 632.074 615.092L632.623 615.266C641.436 618.12 647.667 621.148 655.832 625.525C652.209 618.118 647.648 609.349 644.853 601.74C649.414 593.401 657.874 583.812 663.411 574.636C673.542 574.527 683.873 574.674 694.021 574.716C689.505 585.676 680.235 597.53 674.682 608.767C675.95 617.256 689.227 651.857 692.957 660.776C680.536 655.919 652.125 647.206 639.194 644.271C604.079 665.955 584.245 678.315 540.833 681.545C489.107 685.395 441.562 669.273 402.542 634.933C365.711 601.908 343.467 555.63 340.683 506.234C338.223 457.757 354.819 410.239 386.925 373.838C419.321 336.843 465.105 314.259 514.171 311.075Z"/><path fill="#A6EAE8" transform="matrix(0.145287 0 0 0.14565 0.000488281 0)" d="M895.115 584.481C897.46 584.349 899.811 584.305 902.161 584.349C967.641 585.877 963.148 683.755 898.938 679.888C886.378 679.131 877.262 674.471 868.729 665.213L868.697 676.866C868.459 688.912 868.647 701.598 868.646 713.694L852.07 713.652C851.204 698.133 851.546 680.384 851.496 664.664C851.282 638.143 851.401 611.622 851.851 585.104L868.377 585.207L868.075 599.072C877.037 590.053 882.956 587.107 895.115 584.481ZM901.514 664.999C919.689 664.378 933.887 649.081 933.157 630.906C932.425 612.731 917.047 598.624 898.881 599.463C880.868 600.297 866.906 615.519 867.631 633.541C868.356 651.561 883.493 665.615 901.514 664.999Z"/><path fill="#A6EAE8" transform="matrix(0.145287 0 0 0.14565 0.000488281 0)" d="M1016.36 584.515C1019.21 584.374 1021.87 584.412 1024.71 584.38C1068.78 583.901 1085.24 640.454 1054.96 668.613C1037.63 684.73 1006.72 684.139 990.6 665.903L990.194 673.765L990.127 713.774L973.502 713.848C973.233 670.85 973.226 627.849 973.481 584.851L989.374 584.704L989.254 599.831C998.2 589.509 1003.24 587.25 1016.36 584.515ZM1026.92 664.586C1044.9 661.655 1057.04 644.615 1053.95 626.654C1050.85 608.695 1033.7 596.71 1015.77 599.974C998.08 603.199 986.289 620.077 989.347 637.803C992.404 655.528 1009.17 667.478 1026.92 664.586Z"/><path fill="#A6EAE8" transform="matrix(0.145287 0 0 0.14565 0.000488281 0)" d="M837.745 458.542C851.919 458.55 861.249 463.06 870.968 473.139C870.789 468.561 870.867 463.626 870.855 459.017C876.362 458.954 881.869 459.046 887.372 459.292L887.463 553.435L871.889 553.4C871.712 547.853 871.931 543.21 872.196 537.691C868.884 541.957 865.871 544.259 861.596 547.495C844.836 558.114 821.037 555.876 806.104 542.983C786.466 526.031 785.084 492.588 802.079 473.357C811.7 462.469 823.787 459.254 837.745 458.542ZM840.889 538.944C859.032 537.92 872.878 522.328 871.755 504.186C870.63 486.043 854.964 472.279 836.833 473.504C818.841 474.718 805.209 490.24 806.325 508.241C807.44 526.243 822.883 539.963 840.889 538.944Z"/><path fill="#A6EAE8" transform="matrix(0.145287 0 0 0.14565 0.000488281 0)" d="M763.493 584.561C779.995 582.99 791.406 587.24 802.723 599.185L802.706 584.91C808.192 584.918 813.675 584.986 819.159 585.116L819.083 679.362C813.897 679.364 808.71 679.299 803.526 679.169C803.295 673.786 803.491 669.381 803.726 664.036C801.617 666.456 798.742 669.101 796.395 671.374C781.089 682.573 758.597 683.309 742.656 672.861C711.452 652.412 716.082 599.461 752.465 587.215C756.147 585.976 759.68 585.303 763.493 584.561ZM776.137 664.563C794.12 661.611 806.241 644.55 803.114 626.593C799.987 608.637 782.813 596.681 764.889 599.986C747.215 603.245 735.462 620.134 738.547 637.843C741.63 655.553 758.402 667.473 776.137 664.563Z"/><path fill="#A6EAE8" transform="matrix(0.145287 0 0 0.14565 0.000488281 0)" d="M677.899 421.579C683.324 421.741 688.941 421.669 694.383 421.674L694.497 472.213C715.21 451.428 757.67 452.56 764.452 484.939C768.577 504.632 766.855 532.324 766.849 553.221L750.213 553.391C749.307 537.114 749.847 518.136 749.675 501.491C749.641 493.635 747.934 485.685 742.178 480.002C731.778 469.734 712.724 471.029 702.818 481.257C699.377 484.833 696.926 489.243 695.708 494.054C693.069 504.155 694.267 540.868 694.478 553.635L677.954 553.666L677.672 480.164C677.615 460.667 677.283 441.05 677.899 421.579Z"/><path fill="#A6EAE8" transform="matrix(0.145287 0 0 0.14565 0.000488281 0)" d="M615.161 458.535C618.82 458.424 622.485 458.592 626.119 459.038C640.357 460.659 647.938 467.06 656.473 477.891L643.978 486.267C632.102 472.951 613.531 467.491 598.227 479.236C575.876 496.386 583.856 537.764 614.629 539.106C625.97 539.6 630.316 538.315 639.289 531.115L643.734 526.401C648.245 528.796 652.528 531.601 656.844 534.332C656.518 534.757 656.189 535.18 655.857 535.6C647.345 546.391 638.534 552.251 624.58 553.797C610.792 555.323 596.858 552.504 585.905 543.664C576.131 535.777 569.917 524.307 568.647 511.809C567.326 498.432 571.378 485.077 579.911 474.69C588.922 463.908 601.547 459.709 615.161 458.535Z"/><path fill="#A6EAE8" transform="matrix(0.145287 0 0 0.14565 0.000488281 0)" d="M919.577 438.301C924.885 438.169 930.409 438.262 935.735 438.274L935.933 459.008C944.931 459.103 953.841 458.805 962.857 459.229C963.061 464.497 962.857 468.142 962.523 473.344L935.691 473.425C937.455 489.281 934.255 508.398 936.16 524.57C937.823 538.681 944.758 541.074 957.331 539.227L964.435 535.933L969.668 548.488C950.918 556.974 925.871 558.831 920.42 532.728C918.435 523.218 919.489 508.379 919.503 498.251L919.577 438.301Z"/><path fill="#00465E" transform="matrix(0.145287 0 0 0.14565 0.000488281 0)" d="M438.24 489.697C446.367 487.836 454.48 492.859 456.438 500.963C458.397 509.069 453.471 517.244 445.391 519.298C440.078 520.65 434.45 519.038 430.653 515.081C426.859 511.125 425.484 505.433 427.053 500.179C428.624 494.926 432.897 490.923 438.24 489.697Z"/><path fill="#00465E" transform="matrix(0.145287 0 0 0.14565 0.000488281 0)" d="M511.345 489.642C519.619 488.459 527.288 494.201 528.487 502.473C529.687 510.745 523.964 518.428 515.697 519.647C507.402 520.869 499.691 515.123 498.488 506.825C497.285 498.526 503.045 490.826 511.345 489.642Z"/></g></svg>