<?xml version="1.0" encoding="utf-8" ?><svg xmlns="http://www.w3.org/2000/svg" xmlns:xlink="http://www.w3.org/1999/xlink" width="740" height="740" viewBox="0 0 740 740"><path fill="#3F62A8" d="M478.934 264.534L488.861 264.51L495.383 264.498L498.362 265.049C499.992 266.028 502.53 267.845 502.796 269.927C504.592 283.995 502.439 298.589 503.127 312.793C503.389 318.201 503.151 323.731 503.303 329.171C503.127 331.859 502.857 335.2 502.834 337.861C503.143 354.624 503.039 372.473 502.911 389.302C502.947 400.141 502.806 411.519 503.065 422.312C504.014 430.995 503.029 442.859 503.519 451.88L503.402 452.436C503.72 456.173 503.252 459.81 503.372 463.367C503.876 478.257 493.618 475.39 482.726 475.458L473.283 475.429C464.039 475.67 456.654 476.761 456.011 465.485C455.88 459.782 455.905 454.076 456.085 448.374C456.499 441.753 456.075 433.479 456.26 426.597L456.142 424.404C455.756 416.397 456.374 405.558 456.21 396.942L456.121 395.842C456.009 394.147 456.159 393.042 456.318 391.368L456.321 350.927C457.892 352.866 458.282 353.581 459.468 355.742L460.111 354.299C461.193 353.572 460.947 353.81 462.491 353.774C461.846 352.351 461.188 350.935 460.516 349.524C462.201 348.506 463.405 346.37 465.071 345.432C466.756 344.483 468.688 344.977 470.38 343.724L470.967 343.504L470.979 343.115L472.433 343.312C475.332 345.584 474.183 346.967 475.79 348.272L476.195 347.387L477.029 347.159L477.505 348.456L477.863 348.392L478.132 347.53C478.799 346.19 478.76 345.17 478.889 343.659C479.032 344.951 479.242 348.752 479.86 349.527L480.017 349.49L481.802 349.777C481.771 347.325 481.67 344.883 481.475 342.438C480.577 331.195 480.603 319.881 479.52 308.653C478.782 303.726 478.713 298.398 478.358 293.387C477.725 284.485 476.698 275.854 477.389 266.931C477.96 266.516 478.435 266.115 478.918 265.599L479.313 265.649C479.688 266.791 479.762 266.947 479.911 268.184C480.195 266.74 480.141 266.758 480.901 265.535L481.349 265.158C480.795 264.528 480.045 264.672 478.934 264.534Z"/><path fill="#27E6F0" d="M456.321 350.927C457.892 352.866 458.282 353.581 459.468 355.742C462.372 361.899 464.861 368.243 466.916 374.733C468.101 373.085 467.983 373.366 469.713 372.86C471.184 378.557 472.061 381.934 472.733 387.815C472.666 389.767 472.906 391.52 473.105 393.458C473.298 396.371 472.964 403.653 474.144 405.619C474.863 405.999 475.526 406.347 476.261 406.698L476.649 406.94L477.156 407.448C476.898 410.508 476.312 415.597 476.334 418.517C496.504 424.111 483.187 432.564 487.943 438.604L488.314 438.865C488.334 440.704 496.667 448.137 497.586 449.982C499.63 451.645 500.867 451.629 503.519 451.88L503.402 452.436C503.72 456.173 503.252 459.81 503.372 463.367C503.876 478.257 493.618 475.39 482.726 475.458L473.283 475.429C464.039 475.67 456.654 476.761 456.011 465.485C455.88 459.782 455.905 454.076 456.085 448.374C456.499 441.753 456.075 433.479 456.26 426.597L456.142 424.404C455.756 416.397 456.374 405.558 456.21 396.942L456.121 395.842C456.009 394.147 456.159 393.042 456.318 391.368L456.321 350.927Z"/><path fill="#2B4475" d="M487.943 438.604L488.314 438.865C488.334 440.704 496.667 448.137 497.586 449.982C499.63 451.645 500.867 451.629 503.519 451.88L503.402 452.436C503.72 456.173 503.252 459.81 503.372 463.367C503.876 478.257 493.618 475.39 482.726 475.458L473.283 475.429C464.039 475.67 456.654 476.761 456.011 465.485L457.834 465.368C459.208 464.469 459.968 463.619 461.124 462.473L464.397 460.679C465.255 459.418 466.744 458.382 467.965 457.401L468.149 457.399C471.584 453.676 469.458 452.419 470.78 451.301C470.813 451.671 470.848 452.042 470.885 452.411C471.091 454.384 470.842 454.376 472.003 455.324C472.522 454.093 472.809 453.707 473.531 452.622C476.576 450.204 479.456 447.586 482.151 444.784L484.962 442.089L487.326 440.155C487.867 439.504 487.708 439.543 487.943 438.604Z"/><path fill="#2ABCDA" d="M467.965 457.401L468.149 457.399C468.712 459.786 468.689 459.924 470.435 461.659L468.46 468.665C471.305 470.74 472.742 471.934 473.792 475.442L473.283 475.429C464.039 475.67 456.654 476.761 456.011 465.485L457.834 465.368C459.208 464.469 459.968 463.619 461.124 462.473L464.397 460.679C465.255 459.418 466.744 458.382 467.965 457.401Z"/><path fill="#3F62A8" d="M467.965 457.401L468.149 457.399C468.712 459.786 468.689 459.924 470.435 461.659L468.46 468.665C466.605 468.609 466.35 468.563 464.609 467.92C463.438 468.897 462.925 469.291 461.62 470.073C459.913 469.711 462.072 468.194 458.248 465.639L457.834 465.368C459.208 464.469 459.968 463.619 461.124 462.473L464.397 460.679C465.255 459.418 466.744 458.382 467.965 457.401Z"/><path fill="#2F89BD" d="M467.965 457.401L468.149 457.399C468.712 459.786 468.689 459.924 470.435 461.659L468.46 468.665C466.605 468.609 466.35 468.563 464.609 467.92C465.693 465.84 467.109 464.22 466.703 461.965C465.835 460.79 466.141 461.164 464.397 460.679C465.255 459.418 466.744 458.382 467.965 457.401Z"/><path fill="#2B4475" d="M470.435 461.659C473.283 463.252 483.279 469.361 480.761 473.31C478.342 474.803 476.922 472.987 473.792 475.442C472.742 471.934 471.305 470.74 468.46 468.665L470.435 461.659Z"/><path fill="#3C79B2" d="M468.149 457.399C471.584 453.676 469.458 452.419 470.78 451.301C470.813 451.671 470.848 452.042 470.885 452.411C471.091 454.384 470.842 454.376 472.003 455.324C471.737 457.185 471.438 458.704 471.053 460.525C475.452 462.1 479.036 465.372 481.005 469.608C481.971 471.641 482.289 473.288 482.726 475.458L473.283 475.429L473.792 475.442C476.922 472.987 478.342 474.803 480.761 473.31C483.279 469.361 473.283 463.252 470.435 461.659C468.689 459.924 468.712 459.786 468.149 457.399Z"/><path fill="#2E99C0" d="M497.23 451.044L497.586 449.982C499.63 451.645 500.867 451.629 503.519 451.88L503.402 452.436C503.379 453.578 503.396 454.148 503.166 455.291C502.021 456.237 500.255 455.785 498.47 455.692C498.247 453.777 498.451 452.571 497.23 451.044Z"/><path fill="#3C79B2" d="M487.943 438.604L488.314 438.865C488.334 440.704 496.667 448.137 497.586 449.982L497.23 451.044C494.595 448.516 490.155 443.172 487.326 440.155C487.867 439.504 487.708 439.543 487.943 438.604Z"/><path fill="#2E99C0" d="M476.649 406.94L477.156 407.448C476.898 410.508 476.312 415.597 476.334 418.517C496.504 424.111 483.187 432.564 487.943 438.604C487.708 439.543 487.867 439.504 487.326 440.155L484.962 442.089L482.151 444.784C479.456 447.586 476.576 450.204 473.531 452.622C472.809 453.707 472.522 454.093 472.003 455.324C470.842 454.376 471.091 454.384 470.885 452.411C470.848 452.042 470.813 451.671 470.78 451.301C469.458 452.419 471.584 453.676 468.149 457.399L467.965 457.401C466.744 458.382 465.255 459.418 464.397 460.679L461.124 462.473C461.071 460.348 461.19 459.108 460.428 457.115C458.022 453.749 460.752 452.696 461.916 449.296C464.876 440.647 469.423 432.486 471.72 423.615C472.627 420.112 472.165 415.973 472.899 412.427C473.6 408.572 476.522 411.024 476.649 406.94Z"/><path fill="#2F89BD" d="M476.254 440.484C477.68 439.569 477.176 439.607 478.641 439.627C479.354 440.388 479.527 440.614 479.499 441.997C480.284 442.825 481.352 444.03 482.151 444.784C479.456 447.586 476.576 450.204 473.531 452.622C473.51 451.572 473.593 450.349 473.639 449.283C474.629 446.392 475.727 443.488 476.254 440.484Z"/><path fill="#2ABCDA" d="M460.428 457.115C462.371 456.077 463.929 451.498 464.56 449.402C466.774 452.844 467.118 453.394 467.965 457.401C466.744 458.382 465.255 459.418 464.397 460.679L461.124 462.473C461.071 460.348 461.19 459.108 460.428 457.115Z"/><path fill="#27E6F0" d="M479.499 441.997C480.519 440.573 480.032 440.863 481.484 440.194C482.95 440.307 483.888 441.076 484.962 442.089L482.151 444.784C481.352 444.03 480.284 442.825 479.499 441.997Z"/><path fill="#2ABCDA" d="M473.639 449.283C472.15 447.206 474.045 442.23 475.412 440.414L476.254 440.484C475.727 443.488 474.629 446.392 473.639 449.283Z"/><path fill="#2ABCDA" d="M477.248 425.597C482.661 426.751 484.961 430.306 479.379 433.79C474.731 434.339 472.475 428.695 477.248 425.597Z"/><path fill="#2ABCDA" d="M470.909 431.514C472.153 431.987 472.815 432.273 473.586 433.364C474.033 435.432 470.85 439.078 469.458 442.097C469.089 442.654 468.926 442.802 468.479 443.302C468.191 441.514 469.982 439.356 470.421 437.076C470.863 434.782 470.759 433.796 470.909 431.514Z"/><path fill="#444C9D" d="M456.321 350.927C457.892 352.866 458.282 353.581 459.468 355.742C462.372 361.899 464.861 368.243 466.916 374.733C468.871 380.932 470.278 389.196 470.605 395.69C468.716 395.962 467.486 395.056 465.638 394.14C464.005 394.31 462.787 394.623 461.302 394.021C460.059 392.75 460.449 393.223 459.95 391.324C458.149 391.918 457.933 392.012 456.318 391.368L456.321 350.927Z"/><path fill="#3789D9" d="M459.95 391.324C461.031 390.251 461.229 389.904 462.61 389.41C464.872 389.746 465.05 392.137 465.638 394.14C464.005 394.31 462.787 394.623 461.302 394.021C460.059 392.75 460.449 393.223 459.95 391.324Z"/><path fill="#444C9D" d="M456.318 391.368C457.933 392.012 458.149 391.918 459.95 391.324C460.449 393.223 460.059 392.75 461.302 394.021C462.787 394.623 464.005 394.31 465.638 394.14C467.486 395.056 468.716 395.962 470.605 395.69C470.95 398.186 470.907 401.571 470.857 404.138L470.446 405.477C470.383 408.908 469.66 412.706 469.105 416.124C462.66 414.675 461.633 414.88 456.436 419.052C456.432 420.729 456.543 422.823 456.142 424.404C455.756 416.397 456.374 405.558 456.21 396.942L456.121 395.842C456.009 394.147 456.159 393.042 456.318 391.368Z"/><path fill="#444C9D" d="M456.318 391.368C457.933 392.012 458.149 391.918 459.95 391.324C460.449 393.223 460.059 392.75 461.302 394.021C462.787 394.623 464.005 394.31 465.638 394.14C467.486 395.056 468.716 395.962 470.605 395.69C470.95 398.186 470.907 401.571 470.857 404.138L470.446 405.477C467.73 404.052 461.026 398.664 458.233 396.614L456.21 396.942L456.121 395.842C456.009 394.147 456.159 393.042 456.318 391.368Z"/><path fill="#2E99C0" d="M459.187 395.327C460.537 397.697 468.306 402.611 470.857 404.138L470.446 405.477C467.73 404.052 461.026 398.664 458.233 396.614C458.966 396.137 458.68 396.276 459.187 395.327Z"/><path fill="#27E6F0" d="M456.121 395.842C456.191 394.475 455.93 393.323 457.343 392.909C458.434 393.641 458.58 394.168 459.187 395.327C458.68 396.276 458.966 396.137 458.233 396.614L456.21 396.942L456.121 395.842Z"/><path fill="#3F62A8" d="M456.436 419.052C461.633 414.88 462.66 414.675 469.105 416.124C468.881 417.365 468.625 418.597 468.537 419.854L467.706 420.475C465.333 420.061 464.001 420.005 461.892 421.293C460.822 423.24 462.179 424.669 463.56 426.114C464.921 426.25 465.124 426.004 465.773 426.763C464.867 431.24 462.996 436.239 460.279 439.924C458.715 444.301 458.119 444.69 456.085 448.374C456.499 441.753 456.075 433.479 456.26 426.597L456.142 424.404C456.543 422.823 456.432 420.729 456.436 419.052Z"/><path fill="#3F62A8" d="M456.26 426.597C458.389 428.056 460.051 429.654 462.247 430.941C461.293 434.02 460.214 436.71 460.279 439.924C458.715 444.301 458.119 444.69 456.085 448.374C456.499 441.753 456.075 433.479 456.26 426.597Z"/><path fill="#51B2F3" d="M456.436 419.052C461.633 414.88 462.66 414.675 469.105 416.124C468.881 417.365 468.625 418.597 468.537 419.854C468.423 418.83 468.469 417.79 467.495 417.256C462.847 414.708 458.491 417.628 457.01 421.844L456.865 422.271C458.007 426.509 459.076 427.524 462.589 430.094C462.884 428.781 463.153 427.387 463.56 426.114C464.921 426.25 465.124 426.004 465.773 426.763C464.867 431.24 462.996 436.239 460.279 439.924C460.214 436.71 461.293 434.02 462.247 430.941C460.051 429.654 458.389 428.056 456.26 426.597L456.142 424.404C456.543 422.823 456.432 420.729 456.436 419.052Z"/><defs><linearGradient id="gradient_0" gradientUnits="userSpaceOnUse" x1="487.60175" y1="337.57141" x2="494.13657" y2="337.3988"><stop offset="0" stop-color="#8E80B7"/><stop offset="1" stop-color="#80498C"/></linearGradient></defs><path fill="url(#gradient_0)" d="M478.934 264.534L488.861 264.51L495.383 264.498L498.362 265.049C499.992 266.028 502.53 267.845 502.796 269.927C504.592 283.995 502.439 298.589 503.127 312.793C503.389 318.201 503.151 323.731 503.303 329.171C503.127 331.859 502.857 335.2 502.834 337.861L501.43 338.143C501.366 338.601 501.278 339.133 501.24 339.586L500.93 339.8C500.356 339.064 500.706 339.338 499.777 339.092C499.646 340.189 499.476 342.175 499.204 343.165C498.628 342.25 498.515 342.462 497.257 341.98C495.852 352.423 494.11 367.717 491.433 377.613L490.851 377.079L490.226 377.385L489.819 376.553C489.606 376.534 489.392 376.514 489.179 376.495C489.057 376.175 488.998 375.93 488.788 375.678C486.626 373.074 487.818 368.983 488.132 365.342C487.563 365.166 487.32 364.927 486.796 364.583C486.102 363.564 486.195 363.247 486.173 362.024C484.92 361.209 485.188 360.454 485.095 359.076L484.808 360.449C484.652 360.37 484.496 360.291 484.34 360.212L483.315 360.58L483.061 358.858L482.615 359.913C482.027 358.216 482.145 352.492 481.841 350.07L481.802 349.777C481.771 347.325 481.67 344.883 481.475 342.438C480.577 331.195 480.603 319.881 479.52 308.653C478.782 303.726 478.713 298.398 478.358 293.387C477.725 284.485 476.698 275.854 477.389 266.931C477.96 266.516 478.435 266.115 478.918 265.599L479.313 265.649C479.688 266.791 479.762 266.947 479.911 268.184C480.195 266.74 480.141 266.758 480.901 265.535L481.349 265.158C480.795 264.528 480.045 264.672 478.934 264.534Z"/><path fill="#6C3272" d="M478.934 264.534L488.861 264.51L489.248 265.226C489.742 265.91 489.999 266.498 489.995 267.374C489.891 288.799 490.251 310.209 490.319 331.632C490.325 333.484 490.232 335.302 490.345 337.154C490.184 339.276 489.767 348.994 489.316 350.36L489.073 350.083C488.343 352.516 489.165 352.256 487.742 353.837C487.355 357.396 487.308 361.145 486.796 364.583C486.102 363.564 486.195 363.247 486.173 362.024C484.92 361.209 485.188 360.454 485.095 359.076L484.808 360.449C484.652 360.37 484.496 360.291 484.34 360.212L483.315 360.58L483.061 358.858L482.615 359.913C482.027 358.216 482.145 352.492 481.841 350.07L481.802 349.777C481.771 347.325 481.67 344.883 481.475 342.438C480.577 331.195 480.603 319.881 479.52 308.653C478.782 303.726 478.713 298.398 478.358 293.387C477.725 284.485 476.698 275.854 477.389 266.931C477.96 266.516 478.435 266.115 478.918 265.599L479.313 265.649C479.688 266.791 479.762 266.947 479.911 268.184C480.195 266.74 480.141 266.758 480.901 265.535L481.349 265.158C480.795 264.528 480.045 264.672 478.934 264.534Z"/><path fill="#B04AA5" d="M477.389 266.931C477.96 266.516 478.435 266.115 478.918 265.599L479.313 265.649C479.688 266.791 479.762 266.947 479.911 268.184C480.195 266.74 480.141 266.758 480.901 265.535C482.178 283.354 482.25 302.181 483.398 320.37L483.869 319.272C484.536 320.71 484.067 322.463 484.504 324.273C484.938 331.94 485.294 339.501 485.231 347.179C485.217 348.937 485.153 351.127 485.318 352.857C485.504 354.188 485.519 355.775 486.347 356.72L486.173 362.024C484.92 361.209 485.188 360.454 485.095 359.076L484.808 360.449C484.652 360.37 484.496 360.291 484.34 360.212L483.315 360.58L483.061 358.858L482.615 359.913C482.027 358.216 482.145 352.492 481.841 350.07L481.802 349.777C481.771 347.325 481.67 344.883 481.475 342.438C480.577 331.195 480.603 319.881 479.52 308.653C478.782 303.726 478.713 298.398 478.358 293.387C477.725 284.485 476.698 275.854 477.389 266.931Z"/><path fill="#6C3272" d="M477.389 266.931C477.96 266.516 478.435 266.115 478.918 265.599L479.313 265.649C479.688 266.791 479.762 266.947 479.911 268.184C479.629 276.783 480.008 285.8 480.11 294.418C480.159 298.519 480.755 304.406 480.563 308.338L479.52 308.653C478.782 303.726 478.713 298.398 478.358 293.387C477.725 284.485 476.698 275.854 477.389 266.931Z"/><path fill="#20104A" d="M483.398 320.37L483.869 319.272C484.536 320.71 484.067 322.463 484.504 324.273C484.938 331.94 485.294 339.501 485.231 347.179C485.217 348.937 485.153 351.127 485.318 352.857C485.504 354.188 485.519 355.775 486.347 356.72L486.173 362.024C484.92 361.209 485.188 360.454 485.095 359.076L484.808 360.449C484.652 360.37 484.496 360.291 484.34 360.212L483.315 360.58L483.061 358.858C483.07 355.182 482.868 351.388 482.724 347.706C482.89 347.502 483.768 346.751 484.019 346.528C484.071 337.804 483.864 329.081 483.398 320.37Z"/><path fill="#5E5EAC" d="M482.724 347.706C482.89 347.502 483.768 346.751 484.019 346.528C484.112 350.221 484.011 356.843 484.34 360.212L483.315 360.58L483.061 358.858C483.07 355.182 482.868 351.388 482.724 347.706Z"/><path fill="#735591" d="M485.318 352.857C485.504 354.188 485.519 355.775 486.347 356.72L486.173 362.024C484.92 361.209 485.188 360.454 485.095 359.076L485.318 352.857Z"/><path fill="#20104A" d="M480.563 308.338C480.684 320.782 482.368 334.788 482.724 347.706C482.868 351.388 483.07 355.182 483.061 358.858L482.615 359.913C482.027 358.216 482.145 352.492 481.841 350.07L481.802 349.777C481.771 347.325 481.67 344.883 481.475 342.438C480.577 331.195 480.603 319.881 479.52 308.653L480.563 308.338Z"/><path fill="#864896" d="M484.504 324.273C484.782 318.058 484.028 312.019 483.948 305.863C483.796 294.2 484.087 282.485 484.193 270.818C484.219 268.88 484.174 266.921 484.356 264.992L485.319 264.689C486.793 265.765 485.977 268.448 486.011 270.273C486.292 285.697 485.875 301.173 486.963 316.56C487.28 321.048 486.643 326.211 487.099 330.595L487.692 330.989C487.982 333.559 487.766 336.626 488.085 338.75C487.937 343.778 487.823 348.807 487.742 353.837C487.355 357.396 487.308 361.145 486.796 364.583C486.102 363.564 486.195 363.247 486.173 362.024L486.347 356.72C485.519 355.775 485.504 354.188 485.318 352.857C485.153 351.127 485.217 348.937 485.231 347.179C485.294 339.501 484.938 331.94 484.504 324.273Z"/><path fill="#20104A" d="M487.099 330.595L487.692 330.989C487.982 333.559 487.766 336.626 488.085 338.75C487.937 343.778 487.823 348.807 487.742 353.837C487.355 357.396 487.308 361.145 486.796 364.583C486.102 363.564 486.195 363.247 486.173 362.024L486.347 356.72C486.928 348.702 486.923 338.777 487.099 330.595Z"/><defs><linearGradient id="gradient_1" gradientUnits="userSpaceOnUse" x1="486.06635" y1="309.42285" x2="491.68674" y2="309.15366"><stop offset="0" stop-color="#8358A7"/><stop offset="1" stop-color="#9B4181"/></linearGradient></defs><path fill="url(#gradient_1)" d="M489.248 265.226C489.742 265.91 489.999 266.498 489.995 267.374C489.891 288.799 490.251 310.209 490.319 331.632C490.325 333.484 490.232 335.302 490.345 337.154C490.184 339.276 489.767 348.994 489.316 350.36L489.073 350.083C488.343 352.516 489.165 352.256 487.742 353.837C487.823 348.807 487.937 343.778 488.085 338.75C488.543 333.39 487.993 325.187 488.23 319.378C488.694 307.965 488.902 296.637 488.868 285.24C488.856 281.345 488.711 268.061 489.248 265.226Z"/><path fill="#6C3272" d="M498.362 265.049C499.992 266.028 502.53 267.845 502.796 269.927C504.592 283.995 502.439 298.589 503.127 312.793C503.389 318.201 503.151 323.731 503.303 329.171C503.127 331.859 502.857 335.2 502.834 337.861L501.43 338.143C501.366 338.601 501.278 339.133 501.24 339.586L500.93 339.8C500.356 339.064 500.706 339.338 499.777 339.092C499.646 340.189 499.476 342.175 499.204 343.165C498.628 342.25 498.515 342.462 497.257 341.98C497.105 339.74 497.761 333.085 497.754 329.933L497.301 329.67L497.403 329.395C497.134 330.02 497.046 330.854 496.923 331.551C496.755 322.667 498.483 308.044 496.87 300.918C496.568 298.143 497.369 294.195 497.338 291.285C497.253 283.121 498.86 272.965 498.362 265.049Z"/><path fill="#20104A" d="M499.777 339.092C499.59 337.421 500.541 328.527 501.986 327.406C502.999 327.939 502.703 327.855 503.303 329.171C503.127 331.859 502.857 335.2 502.834 337.861L501.43 338.143C501.366 338.601 501.278 339.133 501.24 339.586L500.93 339.8C500.356 339.064 500.706 339.338 499.777 339.092Z"/><path fill="#6C3272" d="M488.861 264.51L495.383 264.498L498.362 265.049C498.86 272.965 497.253 283.121 497.338 291.285C497.369 294.195 496.568 298.143 496.87 300.918C496.55 306.687 496.171 312.454 495.733 318.216C495.571 320.508 495.425 324.895 495.079 326.931L493.808 327.471C494.183 321.131 494.371 315.774 494.238 309.449C494.096 308.097 493.758 301.084 493.104 300.314C491.552 309.356 492.042 322.027 491.698 331.216C491.587 334.179 491.688 339.044 491.098 341.656C491.157 339.511 491.324 336.759 491.076 334.698L490.8 334.993L490.892 334.741L490.345 337.154C490.232 335.302 490.325 333.484 490.319 331.632C490.251 310.209 489.891 288.799 489.995 267.374C489.999 266.498 489.742 265.91 489.248 265.226L488.861 264.51Z"/><path fill="#4F1956" d="M495.383 264.498L498.362 265.049C498.86 272.965 497.253 283.121 497.338 291.285C497.369 294.195 496.568 298.143 496.87 300.918C496.55 306.687 496.171 312.454 495.733 318.216C495.571 320.508 495.425 324.895 495.079 326.931L493.808 327.471C494.183 321.131 494.371 315.774 494.238 309.449C494.267 296.943 495.134 284.38 495.135 271.862C495.135 269.451 495.173 266.892 495.383 264.498Z"/><path fill="#735591" d="M496.87 300.918C498.483 308.044 496.755 322.667 496.923 331.551C497.046 330.854 497.134 330.02 497.403 329.395L497.301 329.67L497.754 329.933C497.761 333.085 497.105 339.74 497.257 341.98C495.852 352.423 494.11 367.717 491.433 377.613L490.851 377.079L490.226 377.385L489.819 376.553C490.172 371.745 491.353 365.178 491.931 360.123C493.181 349.079 494.231 338.013 495.079 326.931C495.425 324.895 495.571 320.508 495.733 318.216C496.171 312.454 496.55 306.687 496.87 300.918Z"/><path fill="#20104A" d="M496.923 331.551C497.046 330.854 497.134 330.02 497.403 329.395L497.301 329.67L497.754 329.933C497.761 333.085 497.105 339.74 497.257 341.98C495.852 352.423 494.11 367.717 491.433 377.613L490.851 377.079C493.412 363.934 496.531 344.833 496.923 331.551Z"/><path fill="#20104A" d="M493.808 327.471L495.079 326.931C494.231 338.013 493.181 349.079 491.931 360.123C491.353 365.178 490.172 371.745 489.819 376.553C489.606 376.534 489.392 376.514 489.179 376.495C489.057 376.175 488.998 375.93 488.788 375.678C486.626 373.074 487.818 368.983 488.132 365.342C487.563 365.166 487.32 364.927 486.796 364.583C487.308 361.145 487.355 357.396 487.742 353.837C489.165 352.256 488.343 352.516 489.073 350.083L489.316 350.36C489.767 348.994 490.184 339.276 490.345 337.154L490.892 334.741L490.8 334.993L491.076 334.698C491.324 336.759 491.157 339.511 491.098 341.656C490.851 345.567 488.229 371.637 488.823 373.047C490.891 368.837 493.532 333.875 493.808 327.471Z"/><path fill="#5E5EAC" d="M487.742 353.837C489.165 352.256 488.343 352.516 489.073 350.083L489.316 350.36C489.217 353.815 488.733 362.005 488.132 365.342C487.563 365.166 487.32 364.927 486.796 364.583C487.308 361.145 487.355 357.396 487.742 353.837Z"/><path fill="#2B4475" d="M501.24 339.586C501.278 339.133 501.366 338.601 501.43 338.143L502.834 337.861C503.143 354.624 503.039 372.473 502.911 389.302C501.491 390.119 500.102 393.115 498.706 394.934C498.905 392.846 502.46 387.104 501.72 384.044C499.559 387.117 499.024 391.708 495.925 395.542C496.677 392.959 501.875 382.088 500.939 380.797C499.399 381.737 496.214 391.828 494.603 394.9L494.215 394.737C494.339 394.022 494.406 393.474 494.479 392.751C492.119 389.855 494.86 389.467 494.669 386.267L494.037 386.806L493.284 386.252C493.284 383.898 495.234 377.309 495.851 374.722C497.22 368.988 498.779 363.31 499.815 357.484C498.967 353.527 504.464 343.888 501.24 339.586Z"/><path fill="#041736" d="M499.815 357.484C501.384 360.052 494.981 382.762 493.284 386.252C493.284 383.898 495.234 377.309 495.851 374.722C497.22 368.988 498.779 363.31 499.815 357.484Z"/><path fill="#2B4475" d="M503.065 422.312C504.014 430.995 503.029 442.859 503.519 451.88C500.867 451.629 499.63 451.645 497.586 449.982C496.667 448.137 488.334 440.704 488.314 438.865C488.92 438.466 490.045 437.605 491.017 436.609C494.825 432.705 499.454 428.671 502.991 424.561C503.021 423.654 503.046 422.904 503.065 422.312Z"/><path fill="#51B2F3" d="M459.468 355.742L460.111 354.299C461.193 353.572 460.947 353.81 462.491 353.774C464.651 358.716 468.92 367.933 469.713 372.86C467.983 373.366 468.101 373.085 466.916 374.733C464.861 368.243 462.372 361.899 459.468 355.742Z"/><path fill="#20104A" d="M499.777 339.092C500.706 339.338 500.356 339.064 500.93 339.8C498.305 353.596 496.303 370.85 491.99 384.067C491.878 381.323 494.559 369.81 495.215 366.449C496.735 358.662 497.853 350.959 499.204 343.165C499.476 342.175 499.646 340.189 499.777 339.092Z"/><path fill="#2E99C0" d="M473.105 393.458L473.747 394.175C474.86 394.101 474.376 394.137 475.504 393.389C475.948 393.915 475.827 393.664 475.978 394.076L475.681 399.665C477.803 401.47 480.022 403.257 481.871 405.333C479.725 404.234 478.584 403.24 476.328 402.777L475.629 403.054C475.158 404.638 475.534 405.105 476.261 406.698C475.526 406.347 474.863 405.999 474.144 405.619C472.964 403.653 473.298 396.371 473.105 393.458Z"/><path fill="#5E5EAC" d="M470.979 343.115L472.433 343.312C475.332 345.584 474.183 346.967 475.79 348.272C475.003 349.185 473.854 350.056 472.902 350.837C472.439 348.521 472.372 346.279 471.908 343.96L470.967 343.504L470.979 343.115Z"/><path fill="#2F89BD" d="M474.023 393.138C474.323 391.731 474.89 387.84 475.536 387.082C476.55 388.245 476.474 392.637 475.978 394.076C475.827 393.664 475.948 393.915 475.504 393.389C474.376 394.137 474.86 394.101 473.747 394.175L473.105 393.458C472.906 391.52 472.666 389.767 472.733 387.815C473.474 389.023 473.681 391.555 474.023 393.138Z"/><path fill="#5E5EAC" d="M489.819 376.553L490.226 377.385L490.851 377.079L491.433 377.613C490.836 379.129 490.855 381.784 488.587 381.301C487.476 379.398 487.594 377.915 489.179 376.495C489.392 376.514 489.606 376.534 489.819 376.553Z"/><path fill="#51B2F3" d="M479.623 405.862C482.269 405.674 485.339 405.401 487.042 407.787C487.38 409.477 487.337 408.851 486.73 410.631C480.713 412.825 484.694 408.441 479.623 405.862Z"/><path fill="#2B4475" d="M282.014 353.457C285.827 344.469 289.646 334.041 293.369 324.835C293.773 328.532 293.988 330.258 295.302 333.719L298.49 334.032C299.6 333.748 299.961 333.263 300.923 332.509C302.683 334.958 304.374 337.583 307.318 338.707C306.108 340.861 305.324 342.364 304.681 344.806C306.157 346.737 306.984 347.334 309.416 347.748L309.648 348.148C306.643 352.773 307.803 354.131 312.986 354.676C314.731 356.301 315.739 358.056 317.271 359.833L318.191 359.198C319.593 359.16 320.769 359.127 322.167 359.192L319.741 365.912C317.903 370.728 316.069 375.697 314.129 380.46C311.368 388.523 311.21 391.942 320.821 391.554L322.276 391.538C322.997 394.681 337.33 419.018 340.012 420.812C340.18 423.121 341.873 425.505 343.113 427.473L338.897 427.488L334.563 427.471L328.406 427.496L326.777 427.471L320.551 427.478L316.858 427.476C306.105 427.352 296.553 425.604 292.915 437.976C292.418 439.665 291.446 441.656 291.268 443.4L290.65 445.022C289.01 450.723 283.021 468.305 279.483 472.192C277.744 473.43 277.051 474.009 275.002 474.77C271.431 475.621 260.024 475.565 255.884 475.33L248.204 475.403C239.317 475.575 235.175 475.949 238.077 465.824C242.929 454.647 247.107 442.186 251.912 430.725C252.754 428.212 253.887 425.562 254.888 423.085C263.239 401.09 271.909 379.651 280.44 357.798L282.014 353.457Z"/><path fill="#2B4475" d="M238.077 465.824C242.929 454.647 247.107 442.186 251.912 430.725C253.071 431.413 253.979 431.112 255.362 430.947C256.376 431.376 256.331 431.331 257.129 432.08L257.463 431.791C257.803 432.266 258.261 432.82 258.468 433.337L258.655 434.629C262.967 438.031 265.988 442.761 269.878 446.462L269.058 450.601L268.674 451.509C267.011 452.006 266.03 451.776 264.476 452.051C259.363 452.957 256.254 454.032 253.666 458.714C251.758 462.108 251.384 466.154 252.64 469.839C253.31 471.848 254.355 473.789 255.985 475.177L255.884 475.33L248.204 475.403C239.317 475.575 235.175 475.949 238.077 465.824Z"/><path fill="#2F89BD" d="M238.077 465.824C243.58 466.488 248.1 469.016 248.403 475.019L248.204 475.403C239.317 475.575 235.175 475.949 238.077 465.824Z"/><path fill="#3C79B2" d="M257.463 431.791C257.803 432.266 258.261 432.82 258.468 433.337L258.655 434.629C256.832 435.612 252.858 437.775 250.978 436.395C252.622 435.122 254.97 436.059 257.119 434.321C257.69 432.994 257.584 433.707 257.129 432.08L257.463 431.791Z"/><path fill="#3F62A8" d="M312.059 403.455C314.008 404.573 314.164 404.542 316.125 403.442L316.941 404.744L317.672 405.685C318.942 406.224 320.145 406.288 321.528 406.156C323.54 411.387 327.076 422.03 328.406 427.496L326.777 427.471L320.551 427.478L316.858 427.476C314.38 422.514 310.417 426.175 307.001 424.389L307.191 422.697C307.072 422.583 306.963 422.46 306.863 422.329L306.229 422.746C303.524 421.964 302.236 421.084 300.153 419.197C299.614 417.303 298.153 414.384 299.029 412.544C299.404 411.756 299.404 411.305 299.479 410.461C300.421 409.001 301.008 408.214 302.356 407.168C302.23 408.044 302.476 408.932 303.034 409.619C303.592 410.306 304.411 410.728 305.295 410.784C305.925 410.824 306.553 410.675 307.098 410.356C307.869 409.905 308.414 409.149 308.599 408.274C308.744 407.59 308.658 406.877 308.355 406.247C310.008 405.571 310.198 405.462 311.413 404.159L312.059 403.455Z"/><path fill="#444C9D" d="M299.479 410.461C300.421 409.001 301.008 408.214 302.356 407.168C302.23 408.044 302.476 408.932 303.034 409.619C303.592 410.306 304.411 410.728 305.295 410.784C305.925 410.824 306.553 410.675 307.098 410.356C307.499 411.681 308.792 416.247 309.286 417.24C309.725 417.226 310.163 417.303 310.571 417.467C310.984 417.632 311.358 417.883 311.668 418.203C312.467 419.029 312.758 420.223 312.427 421.324C312.108 422.382 311.262 423.198 310.194 423.478C309.125 423.759 307.987 423.463 307.191 422.697C307.072 422.583 306.963 422.46 306.863 422.329L306.229 422.746C303.524 421.964 302.236 421.084 300.153 419.197C299.614 417.303 298.153 414.384 299.029 412.544C299.404 411.756 299.404 411.305 299.479 410.461Z"/><path fill="#27E6F0" d="M309.286 417.24C309.725 417.226 310.163 417.303 310.571 417.467C310.984 417.632 311.358 417.883 311.668 418.203C312.467 419.029 312.758 420.223 312.427 421.324C312.108 422.382 311.262 423.198 310.194 423.478C309.125 423.759 307.987 423.463 307.191 422.697C307.072 422.583 306.963 422.46 306.863 422.329C306.336 421.635 306.118 420.754 306.26 419.893C306.402 419.033 306.892 418.269 307.615 417.781C308.11 417.447 308.689 417.259 309.286 417.24Z"/><path fill="#2F89BD" d="M305.295 410.784C305.925 410.824 306.553 410.675 307.098 410.356C307.499 411.681 308.792 416.247 309.286 417.24C308.689 417.259 308.11 417.447 307.615 417.781C307.225 415.67 306.723 412.352 305.295 410.784Z"/><path fill="#444C9D" d="M312.059 403.455C314.008 404.573 314.164 404.542 316.125 403.442L316.941 404.744L317.672 405.685C315.571 409.265 312.746 413.953 310.571 417.467C310.163 417.303 309.725 417.226 309.286 417.24C308.792 416.247 307.499 411.681 307.098 410.356C307.869 409.905 308.414 409.149 308.599 408.274C308.744 407.59 308.658 406.877 308.355 406.247C310.008 405.571 310.198 405.462 311.413 404.159L312.059 403.455Z"/><path fill="#3789D9" d="M312.059 403.455C314.008 404.573 314.164 404.542 316.125 403.442L316.941 404.744C315.713 405.039 314.637 405.144 313.709 405.95C313.434 407.054 313.74 408.202 313.911 409.391L313.609 409.466C312.741 408.297 312.017 407.067 310.765 406.373C309.268 406.395 309.094 406.788 308.599 408.274C308.744 407.59 308.658 406.877 308.355 406.247C310.008 405.571 310.198 405.462 311.413 404.159L312.059 403.455Z"/><path fill="#2F89BD" d="M317.672 405.685C318.942 406.224 320.145 406.288 321.528 406.156C323.54 411.387 327.076 422.03 328.406 427.496L326.777 427.471C326.082 423.974 321.895 407.906 319.107 406.673C317.26 407.686 313.078 415.728 311.668 418.203C311.358 417.883 310.984 417.632 310.571 417.467C312.746 413.953 315.571 409.265 317.672 405.685Z"/><path fill="#2F89BD" d="M317.726 425.337C316.867 422.204 315.829 418.879 315.502 415.669L315.692 415.367C317.127 419.023 317.398 421.167 318.342 424.832L320.551 427.478L316.858 427.476C314.38 422.514 310.417 426.175 307.001 424.389L307.191 422.697C307.987 423.463 309.125 423.759 310.194 423.478C311.262 423.198 312.108 422.382 312.427 421.324C314.145 423.278 315.425 424.107 317.726 425.337Z"/><path fill="#3F62A8" d="M255.985 475.177C256.416 475.072 256.164 475.17 256.678 474.755C256.49 472.61 256.204 467.398 254.714 466.12L253.529 466.36L253.118 465.894C252.53 461.131 254.839 457.89 258.598 455.2C260.668 453.719 266.064 451.19 267.672 454.533C268.139 455.504 267.341 457.53 267.002 458.597L267.689 458.849C268.508 456.9 268.796 455.392 269.263 453.355C279.587 458.115 278.916 465.833 275.002 474.77C271.431 475.621 260.024 475.565 255.884 475.33L255.985 475.177Z"/><path fill="#27E6F0" d="M267.002 458.597L267.689 458.849C281.108 468.743 260.162 477.591 259.182 465.129C258.872 461.193 263.158 458.537 267.002 458.597Z"/><path fill="#444C9D" d="M300.923 332.509C302.683 334.958 304.374 337.583 307.318 338.707C306.108 340.861 305.324 342.364 304.681 344.806C306.157 346.737 306.984 347.334 309.416 347.748L309.648 348.148C306.643 352.773 307.803 354.131 312.986 354.676C314.731 356.301 315.739 358.056 317.271 359.833L318.191 359.198C319.593 359.16 320.769 359.127 322.167 359.192L319.741 365.912C317.903 370.728 316.069 375.697 314.129 380.46C309.072 376.1 297.371 341.483 295.302 333.719L298.49 334.032C299.6 333.748 299.961 333.263 300.923 332.509Z"/><path fill="#864896" d="M300.923 332.509C302.683 334.958 304.374 337.583 307.318 338.707C306.108 340.861 305.324 342.364 304.681 344.806C304.041 342.257 303.467 339.693 302.958 337.114C301.078 335.498 300.713 335.215 298.49 334.032C299.6 333.748 299.961 333.263 300.923 332.509Z"/><path fill="#AE70DD" d="M318.191 359.198C319.593 359.16 320.769 359.127 322.167 359.192L319.741 365.912C316.832 364.213 316.489 363.008 317.271 359.833L318.191 359.198Z"/><path fill="#3F62A8" d="M280.441 434.165C282.446 436.449 288.406 443.423 290.65 445.022C289.01 450.723 283.021 468.305 279.483 472.192C277.644 468.859 280.207 462.513 277.514 458.878C276.715 457.799 275.276 455.6 274.427 454.595C273.936 454.015 273.908 455.024 273.11 453.484C273.017 453.375 272.529 453.095 272.383 453.004L272.136 453.239L271.275 452.972C270.123 451.762 270.389 452.443 270.25 450.947C272.022 445.752 273.01 441.143 274.238 435.803C276.924 435.904 278.029 435.373 280.441 434.165Z"/><path fill="#51B2F3" d="M272.383 453.004C272.357 451.402 272.14 450.515 272.959 449.248C274.159 448.502 273.522 448.66 274.941 448.768C276.58 449.689 277.732 450.914 277.153 452.895C275.729 454.056 274.81 453.917 273.11 453.484C273.017 453.375 272.529 453.095 272.383 453.004Z"/><path fill="#2F89BD" d="M272.776 435.994C262.026 429.577 268.632 417.051 278.302 421.039C284.362 423.652 282.46 428.346 282.019 433.701C283.874 436.284 288.539 441.95 291.268 443.4L290.65 445.022C288.406 443.423 282.446 436.449 280.441 434.165C278.029 435.373 276.924 435.904 274.238 435.803C273.01 441.143 272.022 445.752 270.25 450.947C270.389 452.443 270.123 451.762 271.275 452.972L272.136 453.239L272.383 453.004C272.529 453.095 273.017 453.375 273.11 453.484C273.908 455.024 273.936 454.015 274.427 454.595C275.276 455.6 276.715 457.799 277.514 458.878C280.207 462.513 277.644 468.859 279.483 472.192C277.744 473.43 277.051 474.009 275.002 474.77C278.916 465.833 279.587 458.115 269.263 453.355C268.796 455.392 268.508 456.9 267.689 458.849L267.002 458.597C267.341 457.53 268.139 455.504 267.672 454.533C266.064 451.19 260.668 453.719 258.598 455.2C254.839 457.89 252.53 461.131 253.118 465.894L253.529 466.36L254.714 466.12C256.204 467.398 256.49 472.61 256.678 474.755C256.164 475.17 256.416 475.072 255.985 475.177C254.355 473.789 253.31 471.848 252.64 469.839C251.384 466.154 251.758 462.108 253.666 458.714C256.254 454.032 259.363 452.957 264.476 452.051C266.03 451.776 267.011 452.006 268.674 451.509L269.058 450.601L269.878 446.462C265.988 442.761 262.967 438.031 258.655 434.629L258.468 433.337C261.093 435.006 267.625 442.293 270.308 445.021L272.776 435.994Z"/><path fill="#3F62A8" d="M274.348 431.231C273.64 433.066 273.721 433.517 271.719 433.622C266.583 431.27 266.734 418.846 277.893 421.509C280.314 423.614 282.582 428.183 280.255 430.913C279.006 430.936 279.562 431.094 278.518 430.454C277.464 430.955 277.197 431.105 276.047 431.43C275.951 431.468 275.857 431.515 275.769 431.57L274.348 431.231Z"/><path fill="#27E6F0" d="M274.348 431.231C267.886 425.761 281.011 421.135 278.518 430.454C277.464 430.955 277.197 431.105 276.047 431.43C275.951 431.468 275.857 431.515 275.769 431.57L274.348 431.231Z"/><path fill="#3F62A8" d="M275.769 431.57C275.857 431.515 275.951 431.468 276.047 431.43C276.661 431.185 277.361 431.302 277.862 431.733C278.363 432.165 278.583 432.839 278.432 433.482C278.282 434.126 277.786 434.633 277.146 434.798C276.297 435.017 275.415 434.582 275.071 433.775C274.727 432.969 275.023 432.032 275.769 431.57Z"/><path fill="#2B4475" d="M305.811 397.535C307.179 400.614 310.596 398.948 311.413 404.159C310.198 405.462 310.008 405.571 308.355 406.247C308.658 406.877 308.744 407.59 308.599 408.274C308.414 409.149 307.869 409.905 307.098 410.356C306.553 410.675 305.925 410.824 305.295 410.784C304.411 410.728 303.592 410.306 303.034 409.619C302.476 408.932 302.23 408.044 302.356 407.168C301.008 408.214 300.421 409.001 299.479 410.461C298.681 411.568 298.05 412.715 296.839 413.275L295.902 413.31L294.058 413.477C292.92 410.732 292.569 408.15 291.147 405.591L292.712 404.777C294.301 403.279 294.557 402.651 295.457 400.643C299.271 399.014 301.734 398.262 305.811 397.535Z"/><path fill="#51B2F3" d="M302.356 407.168C302.555 405.786 303.634 404.696 305.014 404.484C306.395 404.272 307.751 404.988 308.355 406.247C308.658 406.877 308.744 407.59 308.599 408.274C308.414 409.149 307.869 409.905 307.098 410.356C306.553 410.675 305.925 410.824 305.295 410.784C304.411 410.728 303.592 410.306 303.034 409.619C302.476 408.932 302.23 408.044 302.356 407.168Z"/><path fill="#444C9D" d="M291.147 405.591L292.712 404.777C293.345 407.114 294.352 411.688 295.902 413.31L294.058 413.477C292.92 410.732 292.569 408.15 291.147 405.591Z"/><path fill="#5E5EAC" d="M284.378 356.409C284.06 359.89 288.131 364.831 290.238 367.841C292.466 367.718 295.042 367.363 296.768 369.018C302.031 374.063 293.958 383.719 288.422 377.264C286.104 374.561 287.544 370.949 289.098 368.306C288.105 366.747 283.72 360.197 283.477 358.916C283.956 358.216 284.128 357.271 284.378 356.409Z"/><path fill="#20104A" d="M292.707 369.253C299.156 368.673 299.156 375.764 293.635 378.667C289.32 378.587 286.36 373.861 289.525 371.019C291.181 370.602 291.534 370.499 292.707 369.253Z"/><path fill="#92A6FA" d="M291.814 371.389C292.868 370.908 294.113 371.37 294.598 372.422C295.083 373.474 294.627 374.72 293.577 375.21C292.521 375.703 291.265 375.243 290.777 374.185C290.289 373.126 290.754 371.873 291.814 371.389Z"/><path fill="#2ABCDA" d="M320.821 391.554L322.276 391.538C322.997 394.681 337.33 419.018 340.012 420.812C340.18 423.121 341.873 425.505 343.113 427.473L338.897 427.488L334.563 427.471C335.931 424.642 335.868 424.348 334.823 421.385C332.909 418.045 329.867 410.083 327.893 406.038C326.421 403.022 321.583 393.919 320.821 391.554Z"/><path fill="#27E6F0" d="M334.823 421.385C337.785 422.024 338.436 424.879 338.897 427.488L334.563 427.471C335.931 424.642 335.868 424.348 334.823 421.385Z"/><defs><linearGradient id="gradient_2" gradientUnits="userSpaceOnUse" x1="304.58359" y1="423.13937" x2="292.97626" y2="415.43594"><stop offset="0" stop-color="#2C82B4"/><stop offset="1" stop-color="#3C71B5"/></linearGradient></defs><path fill="url(#gradient_2)" d="M299.479 410.461C299.404 411.305 299.404 411.756 299.029 412.544C298.153 414.384 299.614 417.303 300.153 419.197C302.236 421.084 303.524 421.964 306.229 422.746L306.863 422.329C306.963 422.46 307.072 422.583 307.191 422.697L307.001 424.389C305.897 424.273 306.463 424.218 305.295 425.024C304.406 424.851 301.258 422.097 299.899 421.209L299.534 420.974L299.189 421.078C292.621 422.977 289.497 418.957 294.058 413.477L295.902 413.31L296.839 413.275C298.05 412.715 298.681 411.568 299.479 410.461Z"/><path fill="#3F62A8" d="M305.059 394.853C305.977 393.166 306.112 392.783 307.678 391.715C308.735 391.457 309.834 391.287 310.726 391.971C315.924 395.953 309.319 397.932 312.059 403.455L311.413 404.159C310.596 398.948 307.179 400.614 305.811 397.535C305.655 396.542 305.367 395.81 305.059 394.853Z"/><path fill="#3F62A8" d="M291.147 405.591C283.261 402.082 287.882 394.308 294.642 399.342L295.457 400.643C294.557 402.651 294.301 403.279 292.712 404.777L291.147 405.591Z"/><path fill="#51B2F3" d="M316.125 403.442C319.902 396.77 325.337 401.026 321.528 406.156C320.145 406.288 318.942 406.224 317.672 405.685L316.941 404.744L316.125 403.442Z"/><path fill="#3C79B2" d="M254.888 423.085C257.091 424.734 256.406 428.97 257.463 431.791L257.129 432.08C256.331 431.331 256.376 431.376 255.362 430.947C253.979 431.112 253.071 431.413 251.912 430.725C252.754 428.212 253.887 425.562 254.888 423.085Z"/><path fill="#444C9D" d="M305.059 394.853C305.367 395.81 305.655 396.542 305.811 397.535C301.734 398.262 299.271 399.014 295.457 400.643L294.642 399.342C298.073 398.183 302.9 397.307 305.059 394.853Z"/><path fill="#8A6DD3" d="M282.014 353.457C283.197 354.649 283.466 354.996 284.378 356.409C284.128 357.271 283.956 358.216 283.477 358.916C282.816 358.603 281.444 358.24 280.44 357.798L282.014 353.457Z"/><path fill="#3F62A8" d="M268.76 403.773C269.536 403.504 270.398 403.675 271.011 404.222C271.625 404.768 271.896 405.603 271.719 406.406C271.541 407.208 270.944 407.852 270.157 408.089C268.975 408.445 267.725 407.79 267.345 406.615C266.965 405.44 267.593 404.177 268.76 403.773Z"/><path fill="#5E5EAC" d="M278.916 397.045C278.964 395.836 272.35 391.375 270.893 389.992L270.921 389.716C273.642 390.906 278.408 394.897 280.035 395.376C279.387 395.688 278.959 396.327 278.916 397.045Z"/><path fill="#51B2F3" d="M280.035 395.376C280.841 394.987 281.808 395.186 282.394 395.862C282.981 396.538 283.042 397.523 282.544 398.266C282.046 399.01 281.112 399.328 280.264 399.042C279.415 398.757 278.864 397.939 278.916 397.045C278.959 396.327 279.387 395.688 280.035 395.376Z"/><defs><linearGradient id="gradient_3" gradientUnits="userSpaceOnUse" x1="418.31073" y1="393.49161" x2="379.38211" y2="459.08893"><stop offset="0" stop-color="#3A6DB2"/><stop offset="1" stop-color="#3484BA"/></linearGradient></defs><path fill="url(#gradient_3)" d="M396.094 351.181L397.017 353.482C404.372 371.095 411.147 388.91 418.266 406.598C420.431 411.878 423.06 417.981 424.911 423.37C426.431 426.696 428.435 431.563 429.528 435.099C432.823 442.787 435.75 450.804 439.152 458.373L439.986 460.764C440.746 462.822 441.654 465.521 442.493 467.491L442.881 468.993C446.818 477.461 426.571 475.489 422.093 475.444L414.793 475.387L412.653 475.491L411.158 475.427L409.893 475.672L408.827 475.508L406.941 475.39L404.369 474.922L405.826 474.393C405.877 471.928 406.829 468.509 407.425 466.014C407.085 465.491 407.335 465.703 406.568 465.528L405.974 466.201C405.396 468.337 404.616 473.635 403.259 474.685L401.551 473.694L401.043 473.416C392.27 465.813 389.101 439.889 381.494 430.906C377.737 426.47 371.911 427.59 366.499 427.43C362.47 427.708 355.924 427.493 351.706 427.48L343.113 427.473C341.873 425.505 340.18 423.121 340.012 420.812C337.33 419.018 322.997 394.681 322.276 391.538C332.812 391.513 343.157 391.965 353.532 391.967L357.288 391.98C358.448 391.784 359.83 391.786 361.03 391.748C364.488 391.017 364.995 389.418 365.477 386.218L365.355 385.655C364.659 383.421 364.111 381.979 363.213 379.822L364.254 379.291L365.494 380.347L365.707 380.701C368.687 380.424 376.36 375.686 379.062 373.889C381.25 372.434 382.712 371.499 383.208 368.925C382.083 367.731 380.216 366.24 378.922 365.14C377.814 363.714 376.765 362.833 375.445 361.619L374.197 359.963C373.24 357.525 372.192 356.144 370.674 354.108L372.198 353.119C375.112 354.08 379.945 357.632 382.642 359.48C387.725 356.743 391.497 354.766 396.094 351.181Z"/><defs><linearGradient id="gradient_4" gradientUnits="userSpaceOnUse" x1="322.1243" y1="395.09418" x2="372.74728" y2="412.07678"><stop offset="0" stop-color="#326CAF"/><stop offset="1" stop-color="#4D8BC5"/></linearGradient></defs><path fill="url(#gradient_4)" d="M365.477 386.218C371.945 397.888 366.546 405.079 369.501 414.435L368.605 416.289C366.308 420.246 364.37 421.94 367.978 425.704L367.926 426.845C367.573 426.975 366.751 427.229 366.499 427.43C362.47 427.708 355.924 427.493 351.706 427.48L343.113 427.473C341.873 425.505 340.18 423.121 340.012 420.812C337.33 419.018 322.997 394.681 322.276 391.538C332.812 391.513 343.157 391.965 353.532 391.967L357.288 391.98C358.448 391.784 359.83 391.786 361.03 391.748C364.488 391.017 364.995 389.418 365.477 386.218Z"/><path fill="#3C79B2" d="M351.755 403.223C354.016 404.958 355.296 406.266 355.425 409.317C355.63 414.141 355.227 418.276 355.586 423.209C353.989 423.838 351.244 424.677 350.516 426.212L350.6 426.988L351.706 427.48L343.113 427.473C341.873 425.505 340.18 423.121 340.012 420.812C340.934 419.101 342.597 417.061 343.767 415.36C346.542 411.39 349.206 407.343 351.755 403.223Z"/><path fill="#3F62A8" d="M357.288 391.98C358.448 391.784 359.83 391.786 361.03 391.748C365.107 399.302 365.953 400.976 363.907 409.297C362.424 407.223 358.072 400.323 357.277 398.015C356.8 395.923 356.871 395.544 357.888 393.708C358.422 392.922 358.579 393.376 358.999 392.169L357.288 391.98Z"/><path fill="#5B78BE" d="M358.999 392.169L360.07 392.19C360.599 393.163 360.086 396.03 359.589 397.037C358.814 396.546 358.647 395.218 358.417 394.202L357.888 393.708C358.422 392.922 358.579 393.376 358.999 392.169Z"/><path fill="#3C79B2" d="M352.536 401.985C353.505 400.646 354.199 399.004 355.498 398.154L356.164 398.343L356.895 399.935C359.036 404.322 362.704 410.331 364.187 414.534C361.786 411.836 354.905 403.879 352.536 401.985Z"/><path fill="#3789D9" d="M353.532 391.967L357.288 391.98L358.999 392.169C358.579 393.376 358.422 392.922 357.888 393.708C356.871 395.544 356.8 395.923 357.277 398.015L356.895 399.935L356.164 398.343L355.498 398.154C354.199 399.004 353.505 400.646 352.536 401.985L352.432 401.982C352.127 401.515 352.03 401.552 351.977 400.982L351.758 400.977C353.062 399.311 353.507 398.618 354.534 396.765C354.091 395.059 353.836 393.684 353.532 391.967Z"/><path fill="#444C9D" d="M396.094 351.181L397.017 353.482C404.372 371.095 411.147 388.91 418.266 406.598C416.525 406.895 416.448 406.848 414.701 406.383C412.054 403.121 410.436 399.908 408.148 396.746C404.75 392.05 399.382 384.836 395.31 380.766C392.92 377.467 387.253 371.594 384.385 368.525L383.208 368.925C382.083 367.731 380.216 366.24 378.922 365.14C377.814 363.714 376.765 362.833 375.445 361.619L374.197 359.963C373.24 357.525 372.192 356.144 370.674 354.108L372.198 353.119C375.112 354.08 379.945 357.632 382.642 359.48C387.725 356.743 391.497 354.766 396.094 351.181Z"/><path fill="#5E5EAC" d="M396.094 351.181L397.017 353.482C396.371 354.382 396.822 354.124 396.02 354.34C391.774 355.485 387.35 358.046 383.478 360.194L388.825 363.361L387.691 364.557L387.173 364.1C384.272 363.442 383.697 360.395 380.964 362.163C380.892 363.49 380.814 362.814 381.613 364.206L381.034 364.282L384.385 368.525L383.208 368.925C382.083 367.731 380.216 366.24 378.922 365.14C377.814 363.714 376.765 362.833 375.445 361.619L374.197 359.963C373.24 357.525 372.192 356.144 370.674 354.108L372.198 353.119C375.112 354.08 379.945 357.632 382.642 359.48C387.725 356.743 391.497 354.766 396.094 351.181Z"/><path fill="#92A6FA" d="M370.674 354.108L372.198 353.119C372.901 354.497 373.903 356.453 375.14 357.422C376.398 359.113 379.366 363.018 381.034 364.282L384.385 368.525L383.208 368.925C382.083 367.731 380.216 366.24 378.922 365.14C377.814 363.714 376.765 362.833 375.445 361.619L374.197 359.963C373.24 357.525 372.192 356.144 370.674 354.108Z"/><path fill="#6C3272" d="M375.14 357.422C377.122 356.699 379.426 358.301 380.738 359.782C380.868 360.738 380.84 360.281 380.337 361.364L380.866 361.373C383.501 361.439 385.452 361.794 387.173 364.1C384.272 363.442 383.697 360.395 380.964 362.163C380.892 363.49 380.814 362.814 381.613 364.206L381.034 364.282C379.366 363.018 376.398 359.113 375.14 357.422Z"/><path fill="#92A6FA" d="M388.825 363.361C401.441 358.71 398.836 375.995 388.676 370.96C386.854 370.057 387.3 366.278 387.691 364.557L388.825 363.361Z"/><path fill="#3789D9" d="M384.385 368.525C387.253 371.594 392.92 377.467 395.31 380.766C399.382 384.836 404.75 392.05 408.148 396.746C410.436 399.908 412.054 403.121 414.701 406.383C416.448 406.848 416.525 406.895 418.266 406.598C420.431 411.878 423.06 417.981 424.911 423.37L423.608 424.638C422.961 424.166 421.604 422.822 420.969 422.228C415.622 420.003 410.335 415.522 403.265 412.76C399.972 410.433 397.186 409.485 393.499 406.443C393.403 403.669 393.493 402.56 391.368 400.695L393.235 399.377C392.416 395.104 393.006 393.592 396.854 391.619C395.465 389.372 393.8 384.856 391.938 383.234L391.367 383.367L391.132 380.89C390.718 380.628 390.867 380.541 390.676 379.78L390.235 379.805C388.678 376.965 387.483 375.296 385.155 372.96C380.752 374.931 376.46 376.647 372.304 379.152C371.292 379.762 369.18 381.057 368.19 381.278C367.279 380.856 366.716 380.861 365.707 380.701C368.687 380.424 376.36 375.686 379.062 373.889C381.25 372.434 382.712 371.499 383.208 368.925L384.385 368.525Z"/><path fill="#51B2F3" d="M396.854 391.619C400.014 392.312 403.532 393.836 402.499 397.857C402.204 399.052 401.441 400.077 400.381 400.703C397.672 402.293 395.416 401.074 393.235 399.377C392.416 395.104 393.006 393.592 396.854 391.619Z"/><path fill="#3C79B2" d="M418.266 406.598C420.431 411.878 423.06 417.981 424.911 423.37L423.608 424.638C422.961 424.166 421.604 422.822 420.969 422.228C419.195 417.091 416.083 411.367 414.701 406.383C416.448 406.848 416.525 406.895 418.266 406.598Z"/><path fill="#3F62A8" d="M422.501 467.764L423.615 466.809C426.023 467.53 438.244 466.995 442.493 467.491L442.881 468.993C446.818 477.461 426.571 475.489 422.093 475.444C422.579 474.374 423.114 471.026 423.406 469.638C422.938 468.273 422.684 469.317 422.501 467.764Z"/><path fill="#3C79B2" d="M422.501 467.764L423.615 466.809C426.023 467.53 438.244 466.995 442.493 467.491L442.881 468.993C439.956 468.818 426.184 468.343 423.874 468.895C423.78 469.035 423.438 469.503 423.406 469.638C422.938 468.273 422.684 469.317 422.501 467.764Z"/><path fill="#3F62A8" d="M434.731 460.93C435.717 458.741 436.969 458.748 439.152 458.373L439.986 460.764C440.746 462.822 441.654 465.521 442.493 467.491C438.244 466.995 426.023 467.53 423.615 466.809C424.107 465.021 424.379 463.682 425.258 462.039C427.924 460.122 430.04 462.028 433.125 461.16C433.494 461.056 434.306 460.981 434.731 460.93Z"/><path fill="#27E6F0" d="M434.731 460.93C435.717 458.741 436.969 458.748 439.152 458.373L439.986 460.764C439.147 461.775 438.989 462.14 437.727 462.532C436.191 462.401 435.897 461.933 434.731 460.93Z"/><path fill="#2F89BD" d="M391.367 383.367L391.938 383.234C393.8 384.856 395.465 389.372 396.854 391.619C393.006 393.592 392.416 395.104 393.235 399.377L391.368 400.695L389.47 399.936L389.582 399.754C389.776 399.518 389.97 399.282 390.163 399.046C390.315 394.195 391.051 388.087 391.367 383.367Z"/><path fill="#27E6F0" d="M368.605 416.289C372.045 418.602 373.528 420.202 373.652 424.468C371.619 425.5 370.285 426.534 367.978 425.704C364.37 421.94 366.308 420.246 368.605 416.289Z"/><path fill="#27E6F0" d="M389.47 399.936L391.368 400.695C393.493 402.56 393.403 403.669 393.499 406.443C387.028 410.905 382.207 404.103 389.47 399.936Z"/><path fill="#51B2F3" d="M369.501 414.435C372.814 414.585 377.437 415.187 377.44 420.095C377.441 422.107 375.674 423.971 373.652 424.468C373.528 420.202 372.045 418.602 368.605 416.289L369.501 414.435Z"/><path fill="#27E6F0" d="M424.911 423.37C426.431 426.696 428.435 431.563 429.528 435.099C426.134 435.115 423.923 432.92 422.387 430.178C422.72 427.834 422.942 426.899 423.608 424.638L424.911 423.37Z"/><path fill="#2F89BD" d="M403.265 412.76C410.335 415.522 415.622 420.003 420.969 422.228C421.604 422.822 422.961 424.166 423.608 424.638C422.942 426.899 422.72 427.834 422.387 430.178C422.188 428.758 422.743 426.836 421.607 425.758C416.015 420.454 409.003 418.119 403.265 412.76Z"/><path fill="#2B4475" d="M414.793 475.387C415.285 473.7 415.821 472.026 416.399 470.366L416.603 470.506L416.96 474.374L417.295 474.555C418.555 472.921 418.117 470.444 419.38 468.54L419.75 468.683C419.889 469.936 419.217 473.325 418.855 474.601L418.714 475.08L419.332 474.917C421.266 472.501 421.467 468.143 422.569 465.046C422.909 466.081 422.668 466.592 422.501 467.764C422.684 469.317 422.938 468.273 423.406 469.638C423.114 471.026 422.579 474.374 422.093 475.444L414.793 475.387Z"/><path fill="#2F89BD" d="M403.957 465.082L405.337 465.844L405.974 466.201C405.396 468.337 404.616 473.635 403.259 474.685L401.551 473.694C402.427 472.257 403.51 467.016 403.957 465.082Z"/><path fill="#041736" d="M405.337 465.844L405.974 466.201C405.396 468.337 404.616 473.635 403.259 474.685C402.915 473.023 404.709 467.648 405.337 465.844Z"/><path fill="#3C79B2" d="M390.235 379.805L390.676 379.78C390.867 380.541 390.718 380.628 391.132 380.89L391.367 383.367C391.051 388.087 390.315 394.195 390.163 399.046C389.97 399.282 389.776 399.518 389.582 399.754C388.814 397.663 390.272 384.129 390.235 379.805Z"/><path fill="#041736" d="M406.941 475.39C408.874 473.974 409.647 464.319 411.403 461.716L411.736 461.879C411.617 464.559 409.021 471.542 408.827 475.508L406.941 475.39Z"/><path fill="#51B2F3" d="M364.254 379.291L365.494 380.347L365.707 380.701C366.716 380.861 367.279 380.856 368.19 381.278C366.787 382.884 366.349 383.816 365.355 385.655C364.659 383.421 364.111 381.979 363.213 379.822L364.254 379.291Z"/><path fill="#041736" d="M413.934 459.943C413.714 462.946 412.916 466.836 412.381 469.869C411.971 471.683 411.498 473.609 411.158 475.427L409.893 475.672C411.154 470.407 412.501 465.164 413.934 459.943Z"/><path fill="#041736" d="M407.425 466.014C408.047 463.988 408.514 462.203 409.541 460.332C408.957 463.445 407.633 472.268 405.826 474.393C405.877 471.928 406.829 468.509 407.425 466.014Z"/><path fill="#041736" d="M401.043 473.416C401.544 470.77 401.938 466.565 403.957 465.082C403.51 467.016 402.427 472.257 401.551 473.694L401.043 473.416Z"/><path fill="#2F89BD" d="M412.381 469.869C413.588 472.232 413.159 472.83 412.653 475.491L411.158 475.427C411.498 473.609 411.971 471.683 412.381 469.869Z"/><path fill="#2E99C0" d="M416.484 443.568C417.134 444.564 418.365 445.009 419.502 444.658C419.606 447.083 419.421 457.317 417.636 459.186C417.144 459.701 415.827 459.739 415.08 459.732L414.694 459.277C414.348 459.46 414.576 459.39 413.978 459.261C413.573 457.664 414.467 446.194 415.721 445.146L416.484 443.568Z"/><path fill="#3F62A8" d="M414.694 459.277C414.348 459.46 414.576 459.39 413.978 459.261C413.573 457.664 414.467 446.194 415.721 445.146C415.653 449.922 415.181 454.538 414.694 459.277Z"/><path fill="#27E6F0" d="M416.484 443.568C415.859 442.609 415.916 441.357 416.627 440.459C417.338 439.562 418.543 439.219 419.62 439.608C420.697 439.997 421.405 441.031 421.378 442.176C421.351 443.32 420.596 444.32 419.502 444.658C418.365 445.009 417.134 444.564 416.484 443.568Z"/><path fill="#2ABCDA" d="M397.89 452.124C399.129 452.376 399.052 452.329 400.035 453.117C401.078 455.527 399.394 456.493 397.506 457.533C395.669 456.416 394.449 455.35 395.18 453.095C396.391 452.117 396.132 452.417 397.89 452.124Z"/><path fill="#27E6F0" d="M403.301 457.204C405.068 457.746 405.969 458.466 406.513 460.207C406.055 461.667 406.204 461.207 404.745 462.324C403.487 462.429 403.568 462.402 402.373 461.951C400.642 459.936 401.684 458.792 403.301 457.204Z"/><path fill="#3F62A8" d="M396.482 428.776C397.158 430.655 396.523 443.438 396.137 445.789L395.507 446.007L395.186 445.761C395.145 442.151 395.452 432.244 396.482 428.776Z"/><path fill="#27E6F0" d="M390.237 446.058C392.14 446.377 394.843 446.105 396.089 447.601C396.409 448.815 396.405 448.728 396.202 449.967C395.039 450.571 394.645 450.935 393.367 450.711C392.025 449.851 391.112 447.521 390.237 446.058Z"/><path fill="#27E6F0" d="M405.069 438.019C405.73 437.697 406.514 437.764 407.11 438.195C407.706 438.626 408.016 439.35 407.916 440.078C407.817 440.807 407.324 441.421 406.635 441.676C405.639 442.045 404.53 441.568 404.112 440.593C403.695 439.617 404.115 438.485 405.069 438.019Z"/><path fill="#3F62A8" d="M406.625 442.1C407.534 444.323 406.347 452.602 405.678 455.025C405.055 451.967 405.915 445.132 406.625 442.1Z"/><path fill="#3F62A8" d="M412.355 451.844L412.956 452.574C413.163 454.975 412.656 457.198 411.988 459.485L411.329 458.832C411.343 456.488 411.908 454.161 412.355 451.844Z"/><path fill="#3F62A8" d="M409.805 450.66C410.585 451.062 410.308 450.762 410.651 451.545C410.526 454.416 410.177 456.264 409.467 459.064C409.098 456.285 409.517 453.456 409.805 450.66Z"/><path fill="#3F62A8" d="M409.805 450.66C409.761 449.309 409.546 447.911 410.178 446.772C411.396 447.409 411.027 450.444 410.651 451.545C410.308 450.762 410.585 451.062 409.805 450.66Z"/><path fill="#3F62A8" d="M418.37 460.874C419.196 462.624 418.291 464.579 417.61 466.257C416.956 464.466 417.688 462.547 418.37 460.874Z"/><path fill="#6C3272" d="M329.965 264.574C368.14 264.313 361.841 263.523 375.356 298.987L378.217 306.124L378.972 307.891C379.707 309.875 383.117 318.965 384.121 320.448L384.725 322.387C387.619 328.434 389.596 334.899 392.101 341.023L392.712 342.897C393.826 345.462 395.005 348.833 396.094 351.181C391.497 354.766 387.725 356.743 382.642 359.48C379.945 357.632 375.112 354.08 372.198 353.119L370.936 350.907C370.49 350.492 368.851 349.461 368.253 349.067L368.287 348.729C369.33 347.782 369.06 344.959 369.085 343.529C367.575 343.172 365.69 342.867 364.216 343.373C363.515 342.514 362.808 341.661 362.095 340.813L361.406 341.463L360.751 341.353C358.935 339.069 356.685 337.197 354.542 335.222C350.077 331.106 348.553 325.163 344.953 320.394C344.135 318.243 343.118 317.206 341.561 315.645C340.968 313.3 340.311 310.546 339.391 308.313C333.979 295.16 328.28 278.743 328.111 264.427L329.965 264.574Z"/><path fill="#6C3272" d="M378.217 306.124L378.972 307.891C379.707 309.875 383.117 318.965 384.121 320.448L384.725 322.387C387.619 328.434 389.596 334.899 392.101 341.023L392.712 342.897C393.826 345.462 395.005 348.833 396.094 351.181C391.497 354.766 387.725 356.743 382.642 359.48C379.945 357.632 375.112 354.08 372.198 353.119L370.936 350.907C370.49 350.492 368.851 349.461 368.253 349.067L368.287 348.729C369.33 347.782 369.06 344.959 369.085 343.529C367.575 343.172 365.69 342.867 364.216 343.373C363.515 342.514 362.808 341.661 362.095 340.813L362.081 340.438C359.923 337.547 358.338 335.118 356.413 332.096C356.187 331.875 355.166 330.37 354.918 330.018C357.771 326.77 374.044 311.294 374.556 309.372C375.069 308.319 377.215 306.877 378.217 306.124Z"/><path fill="#6C3272" d="M378.388 334.524C378.771 334.821 379.158 335.115 379.546 335.407C382.09 337.315 389.835 343.303 392.712 342.897C393.826 345.462 395.005 348.833 396.094 351.181C391.497 354.766 387.725 356.743 382.642 359.48C379.945 357.632 375.112 354.08 372.198 353.119L370.936 350.907C371.201 347.011 372.345 345.571 376.148 344.555L376.569 344.447C376.147 343.644 375.543 343.212 375.408 342.262C375.003 339.399 376.957 336.798 378.388 334.524Z"/><path fill="#864896" d="M379.953 345.212C382.682 345.115 386.38 345.617 388.421 347.568C386.261 347.878 382.022 346.083 379.953 345.212Z"/><path fill="#6C3272" d="M378.217 306.124L378.972 307.891C377.446 308.83 374.128 311.721 373.422 313.244C373.052 313.556 371.996 314.401 371.73 314.711C372.238 317.126 372.675 325.063 371.823 327.22C371.052 327.419 371.219 327.424 370.438 327.432C367.62 327.847 367.059 328.703 365.674 331.059L364.965 331.337C362.46 332.369 358.675 331.491 356.413 332.096C356.187 331.875 355.166 330.37 354.918 330.018C357.771 326.77 374.044 311.294 374.556 309.372C375.069 308.319 377.215 306.877 378.217 306.124Z"/><path fill="#B04AA5" d="M378.217 306.124L378.972 307.891C377.446 308.83 374.128 311.721 373.422 313.244C373.052 313.556 371.996 314.401 371.73 314.711C367.175 319.122 359.903 326.069 355.74 330.811C357.701 330.738 362.869 330.388 364.551 330.782L364.965 331.337C362.46 332.369 358.675 331.491 356.413 332.096C356.187 331.875 355.166 330.37 354.918 330.018C357.771 326.77 374.044 311.294 374.556 309.372C375.069 308.319 377.215 306.877 378.217 306.124Z"/><path fill="#6C3272" d="M384.725 322.387C387.619 328.434 389.596 334.899 392.101 341.023C388.072 340.738 381.775 336.068 378.665 333.729C379.873 330.335 382.071 324.804 384.725 322.387Z"/><path fill="#6C3272" d="M364.965 331.337L365.674 331.059C366.608 333.431 366.982 334.351 369.375 335.389L369.123 337.501C369.203 339.556 369.368 341.496 369.085 343.529C367.575 343.172 365.69 342.867 364.216 343.373C363.515 342.514 362.808 341.661 362.095 340.813L362.081 340.438C359.923 337.547 358.338 335.118 356.413 332.096C358.675 331.491 362.46 332.369 364.965 331.337Z"/><path fill="#8F37B5" d="M362.081 340.438C363.91 340.197 364.958 338.007 367.235 336.917C367.271 338.306 365.647 338.586 365.158 340.549C365.888 341.491 367.483 341.956 368.619 341.619C369.27 340.546 369.06 338.984 369.123 337.501C369.203 339.556 369.368 341.496 369.085 343.529C367.575 343.172 365.69 342.867 364.216 343.373C363.515 342.514 362.808 341.661 362.095 340.813L362.081 340.438Z"/><path fill="#864896" d="M384.121 320.448L384.725 322.387C382.071 324.804 379.873 330.335 378.665 333.729C381.775 336.068 388.072 340.738 392.101 341.023L392.712 342.897C389.835 343.303 382.09 337.315 379.546 335.407C379.158 335.115 378.771 334.821 378.388 334.524C376.957 336.798 375.003 339.399 375.408 342.262C375.543 343.212 376.147 343.644 376.569 344.447L376.148 344.555C372.345 345.571 371.201 347.011 370.936 350.907C370.49 350.492 368.851 349.461 368.253 349.067L368.287 348.729C369.33 347.782 369.06 344.959 369.085 343.529C369.368 341.496 369.203 339.556 369.123 337.501L369.375 335.389L370.78 335.442C370.681 339.273 370.868 342.05 371.313 345.834C373.383 341.618 382.159 322.101 384.121 320.448Z"/><path fill="#EC60E8" d="M370.438 327.432C371.629 327.801 372.409 327.959 373.449 328.669C374.826 332.867 374.092 333.044 370.78 335.442L369.375 335.389C366.982 334.351 366.608 333.431 365.674 331.059C367.059 328.703 367.62 327.847 370.438 327.432Z"/><path fill="#864896" d="M371.73 314.711C371.996 314.401 373.052 313.556 373.422 313.244C373.077 317.566 373.85 326.142 373.449 328.669C372.409 327.959 371.629 327.801 370.438 327.432C371.219 327.424 371.052 327.419 371.823 327.22C372.675 325.063 372.238 317.126 371.73 314.711Z"/><path fill="#EC60E8" d="M328.111 264.427L329.965 264.574C330.009 264.694 330.053 264.813 330.098 264.933C332.843 287.581 341.632 311.217 354.918 330.018C355.166 330.37 356.187 331.875 356.413 332.096C358.338 335.118 359.923 337.547 362.081 340.438L362.095 340.813L361.406 341.463L360.751 341.353C358.935 339.069 356.685 337.197 354.542 335.222C350.077 331.106 348.553 325.163 344.953 320.394C344.135 318.243 343.118 317.206 341.561 315.645C340.968 313.3 340.311 310.546 339.391 308.313C333.979 295.16 328.28 278.743 328.111 264.427Z"/><path fill="#EC60E8" d="M375.356 298.987L378.217 306.124C377.215 306.877 375.069 308.319 374.556 309.372C370.333 309.889 365.973 306.287 368.656 301.946C370.087 299.631 372.86 299.446 375.356 298.987Z"/><path fill="#B04AA5" d="M368.843 287.131C369.22 287.262 369.352 287.418 369.692 287.667C369.337 288.903 348.241 309.731 345.7 311.921L345.014 311.719L344.954 311.344C352.871 304.131 361.261 294.842 368.843 287.131Z"/><path fill="#B04AA5" d="M301.453 303.563C305.144 293.32 310.616 277.481 316.48 268.26C318.69 264.785 324.275 264.719 328.111 264.427C328.28 278.743 333.979 295.16 339.391 308.313C340.311 310.546 340.968 313.3 341.561 315.645C343.118 317.206 344.135 318.243 344.953 320.394C345.268 323.799 346.215 325.686 346.787 328.637C346.899 330.484 346.782 332.766 347.741 334.204L347.651 335.07C346.889 334.007 346.791 333.864 346.245 332.685L345.662 332.47C344.085 329.265 342.225 320.897 339.35 318.962C338.933 318.682 338.539 318.945 337.954 319.12C335.609 321.31 334.77 324.513 333.619 327.561L332.026 331.635L328.601 341.424L326.635 346.629L322.167 359.192C320.769 359.127 319.593 359.16 318.191 359.198L317.271 359.833C315.739 358.056 314.731 356.301 312.986 354.676C307.803 354.131 306.643 352.773 309.648 348.148L309.416 347.748C306.984 347.334 306.157 346.737 304.681 344.806C305.324 342.364 306.108 340.861 307.318 338.707C304.374 337.583 302.683 334.958 300.923 332.509C299.961 333.263 299.6 333.748 298.49 334.032L295.302 333.719C293.988 330.258 293.773 328.532 293.369 324.835L293.374 324.303C294.842 321.793 299.748 307.509 301.453 303.563Z"/><path fill="#6C3272" d="M326.858 323.345L327.329 323.08C329.587 324.288 330.152 326.137 333.619 327.561L332.026 331.635L328.601 341.424L326.635 346.629L322.167 359.192C320.769 359.127 319.593 359.16 318.191 359.198L317.271 359.833C315.739 358.056 314.731 356.301 312.986 354.676C307.803 354.131 306.643 352.773 309.648 348.148L309.416 347.748C306.984 347.334 306.157 346.737 304.681 344.806C305.324 342.364 306.108 340.861 307.318 338.707C304.374 337.583 302.683 334.958 300.923 332.509C301.294 332.035 301.836 331.153 302.188 330.62C303.328 330.832 304.246 331.062 305.411 331.035C307.962 329.756 309.584 330.836 311.564 329.065C312.466 327.473 313.56 327.609 315.255 327.378C315.861 328.901 315.824 329.028 315.855 330.704L315.731 331.584C316.429 332.315 317.054 332.955 317.793 333.654L318.195 333.425C318.34 332.617 318.468 331.807 318.582 330.994C319.48 329.195 319.63 328.757 321.106 327.337L323.015 326.504L325.818 325.417L326.858 323.345Z"/><path fill="#B04AA5" d="M326.858 323.345L327.329 323.08C329.587 324.288 330.152 326.137 333.619 327.561L332.026 331.635L328.601 341.424C324.559 340.331 327.46 338.55 320.405 338.355L318.845 336.663L318.582 330.994C319.48 329.195 319.63 328.757 321.106 327.337L323.015 326.504L325.818 325.417L326.858 323.345Z"/><path fill="#864896" d="M326.858 323.345L327.329 323.08C329.587 324.288 330.152 326.137 333.619 327.561L332.026 331.635C331.493 330.98 331.482 331.118 330.656 330.678L329.299 329.467C328.227 327.749 327.224 326.854 325.818 325.417L326.858 323.345Z"/><path fill="#EC60E8" d="M329.299 329.467L330.656 330.678C330.61 332.199 330.844 331.941 330.121 333.016L329.256 333.079C328.205 332.18 328.606 332.719 328.111 331.332C328.401 329.904 328.08 330.54 329.299 329.467Z"/><path fill="#8F37B5" d="M307.318 338.707C309.653 339.519 311.754 339.996 312.901 342.431C314.041 344.851 311.371 346.951 309.416 347.748C306.984 347.334 306.157 346.737 304.681 344.806C305.324 342.364 306.108 340.861 307.318 338.707Z"/><path fill="#EC60E8" d="M309.648 348.148C312.696 348.345 313.021 348.594 314.843 350.991L314.129 352.609L313.942 353.826L312.986 354.676C307.803 354.131 306.643 352.773 309.648 348.148Z"/><path fill="#864896" d="M320.405 338.355C327.46 338.55 324.559 340.331 328.601 341.424L326.635 346.629C325.064 343.694 322.27 341.418 320.405 338.355Z"/><path fill="#EC60E8" d="M311.564 329.065C312.466 327.473 313.56 327.609 315.255 327.378C315.861 328.901 315.824 329.028 315.855 330.704L315.731 331.584L315.013 332.152C314.038 331.917 313.016 331.765 312.024 331.593L311.564 329.065Z"/><path fill="#8F37B5" d="M314.843 350.991C317.22 351.556 320.214 351.847 322.246 352.632C321.333 353.309 315.515 352.747 314.129 352.609L314.843 350.991Z"/><path fill="#864896" d="M305.411 331.035C307.962 329.756 309.584 330.836 311.564 329.065L312.024 331.593C309.602 331.805 307.765 331.442 305.411 331.035Z"/><path fill="#8F37B5" d="M313.942 353.826C315.324 355.661 316.651 357.491 318.191 359.198L317.271 359.833C315.739 358.056 314.731 356.301 312.986 354.676L313.942 353.826Z"/><path fill="#864896" d="M315.013 332.152L315.731 331.584C316.429 332.315 317.054 332.955 317.793 333.654L318.195 333.425C318.34 332.617 318.468 331.807 318.582 330.994L318.845 336.663C316.996 335.196 316.372 334.071 315.013 332.152Z"/><path fill="#8F37B5" d="M293.374 324.303C294.842 321.793 299.748 307.509 301.453 303.563C302.986 304.851 306.929 304.04 308.765 307.042C309.295 307.947 309.518 308.313 310.17 309.173C314.292 314.387 320.356 316.867 322.303 319.436C321.06 320.953 320.188 321.761 319.918 323.719C321.167 325.335 321.258 325.624 323.015 326.504L321.106 327.337C319.63 328.757 319.48 329.195 318.582 330.994C318.468 331.807 318.34 332.617 318.195 333.425L317.793 333.654C317.054 332.955 316.429 332.315 315.731 331.584L315.855 330.704C315.824 329.028 315.861 328.901 315.255 327.378C313.56 327.609 312.466 327.473 311.564 329.065C309.584 330.836 307.962 329.756 305.411 331.035C304.246 331.062 303.328 330.832 302.188 330.62C301.836 331.153 301.294 332.035 300.923 332.509C299.961 333.263 299.6 333.748 298.49 334.032L295.302 333.719C293.988 330.258 293.773 328.532 293.369 324.835L293.374 324.303Z"/><path fill="#864896" d="M312.689 317.738C311.724 316.74 311.512 316.886 311.446 315.825C315.204 314.781 316.872 322.535 319.918 323.719C321.167 325.335 321.258 325.624 323.015 326.504L321.106 327.337C319.63 328.757 319.48 329.195 318.582 330.994C318.468 331.807 318.34 332.617 318.195 333.425L317.793 333.654C317.054 332.955 316.429 332.315 315.731 331.584L315.855 330.704C315.824 329.028 315.861 328.901 315.255 327.378C314.654 323.801 316.736 321.46 313.388 318.712L312.689 317.738Z"/><path fill="#6C3272" d="M315.855 330.704C316.269 328.067 318.529 326.374 321.106 327.337C319.63 328.757 319.48 329.195 318.582 330.994C318.468 331.807 318.34 332.617 318.195 333.425L317.793 333.654C317.054 332.955 316.429 332.315 315.731 331.584L315.855 330.704Z"/><path fill="#B04AA5" d="M293.374 324.303C295.774 324.387 296.344 324.498 298.661 325.024C297.941 326.177 298.021 327.658 298.863 328.725C299.705 329.792 301.126 330.216 302.415 329.784L302.188 330.62C301.836 331.153 301.294 332.035 300.923 332.509C299.961 333.263 299.6 333.748 298.49 334.032L295.302 333.719C293.988 330.258 293.773 328.532 293.369 324.835L293.374 324.303Z"/><path fill="#EC60E8" d="M301.363 323.511C302.947 323.497 304.306 324.637 304.568 326.199C304.83 327.761 303.917 329.281 302.415 329.784C301.126 330.216 299.705 329.792 298.863 328.725C298.021 327.658 297.941 326.177 298.661 325.024C299.037 324.422 299.601 323.962 300.266 323.714C300.617 323.583 300.988 323.514 301.363 323.511Z"/><path fill="#B04AA5" d="M300.266 323.714C299.008 321.898 298.22 317.961 298.663 315.765C299.145 315.99 300.884 322.216 301.363 323.511C300.988 323.514 300.617 323.583 300.266 323.714Z"/><path fill="#864896" d="M308.765 307.042C309.295 307.947 309.518 308.313 310.17 309.173C309.597 310.151 309.255 311.062 308.275 311.517L307.857 311.123C307.809 309.25 308.083 308.856 308.765 307.042Z"/><path fill="#864896" d="M312.689 317.738L313.388 318.712C312.436 320.329 313.494 321.466 312.64 323.615L312.3 323.65C311.956 321.429 312.033 319.887 312.689 317.738Z"/><path fill="#EC60E8" d="M322.303 319.436C324.796 319.62 326.295 320.862 326.858 323.345L325.818 325.417L323.015 326.504C321.258 325.624 321.167 325.335 319.918 323.719C320.188 321.761 321.06 320.953 322.303 319.436Z"/><path fill="#EC60E8" d="M313.17 289.289C318.945 290.942 318.851 294.494 315.016 298.246C309.498 296.13 307.896 293.434 313.17 289.289Z"/><path fill="#EC60E8" d="M313.795 277.114C314.167 277.138 314.913 277.237 315.152 277.46C316.963 279.151 320.748 278.093 322.063 278.732C322.498 279.921 322.207 280.512 321.902 281.752L320.828 282.381C318.907 282.083 317.938 280.309 316.019 279.285C314.365 278.402 314.455 278.587 313.795 277.114Z"/><path fill="#EC60E8" d="M319.033 301.975C321.383 302.932 322.211 303.826 322.38 306.263C320.274 305.58 319.236 304.131 319.033 301.975Z"/><path fill="#B04AA5" d="M467.999 264.505L478.934 264.534C480.045 264.672 480.795 264.528 481.349 265.158L480.901 265.535C480.141 266.758 480.195 266.74 479.911 268.184C479.762 266.947 479.688 266.791 479.313 265.649L478.918 265.599C478.435 266.115 477.96 266.516 477.389 266.931L476.274 266.976C474.168 269.329 477.512 307.823 477.267 314.199C477.893 320.02 480.792 345.466 480.017 349.49L479.86 349.527C479.242 348.752 479.032 344.951 478.889 343.659C478.76 345.17 478.799 346.19 478.132 347.53L477.863 348.392L477.505 348.456L477.029 347.159L476.195 347.387L475.79 348.272C474.183 346.967 475.332 345.584 472.433 343.312L470.979 343.115L470.967 343.504L470.38 343.724C468.688 344.977 466.756 344.483 465.071 345.432C463.405 346.37 462.201 348.506 460.516 349.524C459.395 347.624 458.004 345.28 456.348 343.847L456.268 297.743C456.247 289.25 455.996 280.007 456.568 271.552C456.711 269.439 457.336 268.291 458.566 266.629C461.73 264.392 464.318 264.508 467.999 264.505Z"/><path fill="#B04AA5" d="M458.566 266.629C460.745 271.553 461.212 291.664 464.2 296.667C466.678 307.037 467.845 318.176 469.693 328.707C470.337 332.371 471.341 339.956 472.433 343.312L470.979 343.115L470.967 343.504L470.38 343.724C468.688 344.977 466.756 344.483 465.071 345.432C463.405 346.37 462.201 348.506 460.516 349.524C459.395 347.624 458.004 345.28 456.348 343.847L456.268 297.743C456.247 289.25 455.996 280.007 456.568 271.552C456.711 269.439 457.336 268.291 458.566 266.629Z"/><path fill="#4F1956" d="M470.38 343.724C469.727 341.393 466.641 337.619 467.069 336.033C467.765 336.85 467.981 337.327 468.887 337.738C468.673 330.013 460.459 303.814 461.862 298.453C463.596 309.041 466.12 319.377 468.422 329.844C469.403 334.303 469.989 338.7 470.979 343.115L470.967 343.504L470.38 343.724Z"/><path fill="#4F1956" d="M460.397 305.937C460.818 306.716 466.493 331.494 466.829 333.603L466.306 333.086C464.46 327.282 460.346 311.761 460.397 305.937Z"/><path fill="#4F1956" d="M460.732 318.235C461.726 322.2 464.471 329.703 463.894 333.636C462.996 331.669 460.776 320.566 460.732 318.235Z"/><path fill="#A42972" d="M467.999 264.505L478.934 264.534C480.045 264.672 480.795 264.528 481.349 265.158L480.901 265.535C480.141 266.758 480.195 266.74 479.911 268.184C479.762 266.947 479.688 266.791 479.313 265.649L478.918 265.599C478.435 266.115 477.96 266.516 477.389 266.931L476.274 266.976C474.168 269.329 477.512 307.823 477.267 314.199C477.893 320.02 480.792 345.466 480.017 349.49L479.86 349.527C479.242 348.752 479.032 344.951 478.889 343.659C478.76 345.17 478.799 346.19 478.132 347.53L477.863 348.392L477.505 348.456L477.029 347.159C476.311 337.614 474.495 319.112 472.781 309.992C470.369 297.189 468.687 278.691 467.932 265.841L468.312 265.206L467.999 264.505Z"/><path fill="#B04AA5" d="M473.292 307.352C473.644 304.209 472.836 301.305 472.902 298.443C473.098 289.987 469.657 273.875 471.691 266.266C472.027 268.161 472.209 270.415 472.313 272.362C472.933 284.018 474.429 295.592 475.475 307.213C475.606 308.668 475.694 310.73 476.067 312.099L476.621 311.688C477.085 312.584 477.113 313.211 477.267 314.199C477.893 320.02 480.792 345.466 480.017 349.49L479.86 349.527C479.242 348.752 479.032 344.951 478.889 343.659C478.76 345.17 478.799 346.19 478.132 347.53L477.863 348.392L477.505 348.456L477.029 347.159C476.311 337.614 474.495 319.112 472.781 309.992C472.872 309.188 473.123 308.165 473.292 307.352Z"/><path fill="#20104A" d="M472.781 309.992C472.872 309.188 473.123 308.165 473.292 307.352C475.094 318.993 476.301 330.854 477.59 342.561C477.763 344.134 477.771 346.029 478.132 347.53L477.863 348.392L477.505 348.456L477.029 347.159C476.311 337.614 474.495 319.112 472.781 309.992Z"/><path fill="#20104A" d="M476.067 312.099L476.621 311.688C477.085 312.584 477.113 313.211 477.267 314.199C477.893 320.02 480.792 345.466 480.017 349.49L479.86 349.527C479.242 348.752 479.032 344.951 478.889 343.659C477.72 333.258 477.77 323.132 476.067 312.099Z"/><path fill="#A42972" d="M458.566 266.629C461.73 264.392 464.318 264.508 467.999 264.505L468.312 265.206L467.932 265.841C464.74 270.413 469.535 290.725 468.952 298.117L468.123 297.991L467.84 298.385C465.097 292.911 464.804 268.005 462.935 265.858L462.455 266.063C461.622 269.213 464.9 291.264 465.16 296.616L464.2 296.667C461.212 291.664 460.745 271.553 458.566 266.629Z"/><path fill="#B04AA5" d="M468.952 298.117C469.535 290.725 464.74 270.413 467.932 265.841C468.687 278.691 470.369 297.189 472.781 309.992C474.495 319.112 476.311 337.614 477.029 347.159L476.195 347.387C475.424 345.401 473.904 335.086 473.541 332.508C471.953 321.245 470.046 309.436 468.952 298.117Z"/><path fill="#4F1956" d="M464.2 296.667L465.16 296.616C466.256 303.025 471.441 336.143 473.186 339.475C473.721 337.604 468.529 302.934 467.84 298.385L468.123 297.991L468.952 298.117C470.046 309.436 471.953 321.245 473.541 332.508C473.904 335.086 475.424 345.401 476.195 347.387L475.79 348.272C474.183 346.967 475.332 345.584 472.433 343.312C471.341 339.956 470.337 332.371 469.693 328.707C467.845 318.176 466.678 307.037 464.2 296.667Z"/><path fill="#5E5EAC" d="M357.916 351.678C358.573 350.574 358.683 350.15 359.858 349.641C361.514 349.722 362.527 351.276 364.539 352.085C364.517 352.56 364.426 352.838 364.594 353.192L366.54 353.776L367.144 352.635C369.135 353.051 367.367 353.664 370.674 354.108C372.192 356.144 373.24 357.525 374.197 359.963L375.445 361.619C376.765 362.833 377.814 363.714 378.922 365.14C380.216 366.24 382.083 367.731 383.208 368.925C382.712 371.499 381.25 372.434 379.062 373.889C376.36 375.686 368.687 380.424 365.707 380.701L365.494 380.347L364.254 379.291L363.213 379.822L358.856 367.797L355.293 358.367C354.424 356.227 353.595 354.071 352.806 351.9L354.312 351.967C355.827 351.972 356.417 351.916 357.916 351.678Z"/><path fill="#5E5EAC" d="M357.916 351.678C358.573 350.574 358.683 350.15 359.858 349.641C361.514 349.722 362.527 351.276 364.539 352.085C364.517 352.56 364.426 352.838 364.594 353.192L366.54 353.776L366.843 354.131C365.651 355.737 364.733 357.065 363.312 358.492L364.245 359.558L364.661 360.617C364.082 361.104 364.355 360.961 363.906 361.151L362.398 360.886C361.111 363.181 359.987 365.884 358.856 367.797L355.293 358.367C354.424 356.227 353.595 354.071 352.806 351.9L354.312 351.967C355.827 351.972 356.417 351.916 357.916 351.678Z"/><path fill="#8A6DD3" d="M355.293 358.367C357.428 357.602 360.156 358.42 361.844 359.863L362.398 360.886C361.111 363.181 359.987 365.884 358.856 367.797L355.293 358.367Z"/><path fill="#8A6DD3" d="M357.916 351.678C358.573 350.574 358.683 350.15 359.858 349.641C361.514 349.722 362.527 351.276 364.539 352.085C364.517 352.56 364.426 352.838 364.594 353.192C361.825 353.332 356.252 354.083 354.312 351.967C355.827 351.972 356.417 351.916 357.916 351.678Z"/><path fill="#3C79B2" d="M361.844 359.863C361.381 358.74 360.745 357.418 361.301 356.273C362.492 356.738 362.428 357.163 363.312 358.492L364.245 359.558L364.661 360.617C364.082 361.104 364.355 360.961 363.906 361.151L362.398 360.886L361.844 359.863Z"/><path fill="#5E5EAC" d="M366.54 353.776L367.144 352.635C369.135 353.051 367.367 353.664 370.674 354.108C372.192 356.144 373.24 357.525 374.197 359.963L375.445 361.619C373.962 362.342 372.915 362.12 371.228 362.069C368.165 361.598 366.742 361.525 364.245 359.558L363.312 358.492C364.733 357.065 365.651 355.737 366.843 354.131L366.54 353.776Z"/><path fill="#8A6DD3" d="M366.54 353.776L367.144 352.635C369.135 353.051 367.367 353.664 370.674 354.108C372.192 356.144 373.24 357.525 374.197 359.963C371.925 359.151 369.91 356.633 368.227 354.844C367.889 354.744 367.188 354.32 366.843 354.131L366.54 353.776Z"/><path fill="#5B78BE" d="M366.843 354.131C367.188 354.32 367.889 354.744 368.227 354.844C366.796 356.016 364.646 357.726 364.245 359.558L363.312 358.492C364.733 357.065 365.651 355.737 366.843 354.131Z"/><path fill="#444C9D" d="M364.254 379.291C364.575 378.05 362.29 372.109 363.453 367.076L364.008 366.837C364.307 368.195 364.564 370.14 365.492 371.131C366.882 373.122 367.956 379.341 365.494 380.347L364.254 379.291Z"/><path fill="#8A6DD3" d="M364.008 366.837C365.541 365.892 367.665 366.098 368.609 367.817C368.27 370.067 367.47 370.035 365.492 371.131C364.564 370.14 364.307 368.195 364.008 366.837Z"/><path fill="#3C79B2" d="M375.445 361.619C376.765 362.833 377.814 363.714 378.922 365.14C377.713 365.18 373.846 363.775 372.257 363.342L371.228 362.069C372.915 362.12 373.962 362.342 375.445 361.619Z"/><path fill="#5B78BE" d="M364.245 359.558C366.742 361.525 368.165 361.598 371.228 362.069L372.257 363.342C370.544 362.896 364.966 361.922 363.906 361.151C364.355 360.961 364.082 361.104 364.661 360.617L364.245 359.558Z"/><path fill="#AE70DD" d="M344.953 320.394C348.553 325.163 350.077 331.106 354.542 335.222C356.685 337.197 358.935 339.069 360.751 341.353L361.406 341.463L362.095 340.813C362.808 341.661 363.515 342.514 364.216 343.373C365.69 342.867 367.575 343.172 369.085 343.529C369.06 344.959 369.33 347.782 368.287 348.729L368.253 349.067C368.851 349.461 370.49 350.492 370.936 350.907L372.198 353.119L370.674 354.108C367.367 353.664 369.135 353.051 367.144 352.635L366.54 353.776L364.594 353.192C364.426 352.838 364.517 352.56 364.539 352.085C362.527 351.276 361.514 349.722 359.858 349.641C358.683 350.15 358.573 350.574 357.916 351.678C356.417 351.916 355.827 351.972 354.312 351.967L352.806 351.9C351.633 348.429 350.123 344.568 348.846 341.104C347.659 338.138 346.602 335.537 345.662 332.47L346.245 332.685C346.791 333.864 346.889 334.007 347.651 335.07L347.741 334.204C346.782 332.766 346.899 330.484 346.787 328.637C346.215 325.686 345.268 323.799 344.953 320.394Z"/><path fill="#8F37B5" d="M348.846 341.104C351.368 341.561 353.338 343.28 355.451 344.805L356.456 344.268C357.19 345.438 357.841 346.828 359.024 347.424C361.472 346.831 359.575 345.999 361.448 346.572C362.488 347.594 364.466 349.898 364.797 351.325L364.539 352.085C362.527 351.276 361.514 349.722 359.858 349.641C358.683 350.15 358.573 350.574 357.916 351.678C356.417 351.916 355.827 351.972 354.312 351.967L352.806 351.9C351.633 348.429 350.123 344.568 348.846 341.104Z"/><path fill="#864896" d="M348.846 341.104C351.368 341.561 353.338 343.28 355.451 344.805C353.881 348.683 353.908 349.869 357.916 351.678C356.417 351.916 355.827 351.972 354.312 351.967L352.806 351.9C351.633 348.429 350.123 344.568 348.846 341.104Z"/><path fill="#8A6DD3" d="M346.787 328.637C347.465 330.588 348.556 334.672 349.448 336.088C351.158 336.819 352.541 335.993 353.899 337.872C355.194 339.663 355.818 342.166 356.456 344.268L355.451 344.805C353.338 343.28 351.368 341.561 348.846 341.104C347.659 338.138 346.602 335.537 345.662 332.47L346.245 332.685C346.791 333.864 346.889 334.007 347.651 335.07L347.741 334.204C346.782 332.766 346.899 330.484 346.787 328.637Z"/><path fill="#EC60E8" d="M362.095 340.813C362.808 341.661 363.515 342.514 364.216 343.373C365.69 342.867 367.575 343.172 369.085 343.529C369.06 344.959 369.33 347.782 368.287 348.729L368.253 349.067L367.537 349.785C365.693 348.627 362.167 343.367 360.751 341.353L361.406 341.463L362.095 340.813Z"/><path fill="#6C3272" d="M364.216 343.373C365.69 342.867 367.575 343.172 369.085 343.529C369.06 344.959 369.33 347.782 368.287 348.729C366.544 346.681 365.655 345.627 364.216 343.373Z"/><defs><linearGradient id="gradient_5" gradientUnits="userSpaceOnUse" x1="469.46048" y1="306.5564" x2="487.39447" y2="309.51764"><stop offset="0" stop-color="#C23F8C" stop-opacity="0.98823529"/><stop offset="1" stop-color="#81579B"/></linearGradient></defs><path fill="url(#gradient_5)" d="M477.267 314.199C477.512 307.823 474.168 269.329 476.274 266.976L477.389 266.931C476.698 275.854 477.725 284.485 478.358 293.387C478.713 298.398 478.782 303.726 479.52 308.653C480.603 319.881 480.577 331.195 481.475 342.438C481.67 344.883 481.771 347.325 481.802 349.777L480.017 349.49C480.792 345.466 477.893 320.02 477.267 314.199Z"/><path fill="#92A6FA" d="M456.348 343.847C458.004 345.28 459.395 347.624 460.516 349.524C461.188 350.935 461.846 352.351 462.491 353.774C460.947 353.81 461.193 353.572 460.111 354.299L459.468 355.742C458.282 353.581 457.892 352.866 456.321 350.927L456.348 343.847Z"/><path fill="#2F89BD" fill-opacity="0.98823529" d="M405.974 466.201L406.568 465.528C407.335 465.703 407.085 465.491 407.425 466.014C406.829 468.509 405.877 471.928 405.826 474.393L404.369 474.922L403.259 474.685C404.616 473.635 405.396 468.337 405.974 466.201Z"/><path fill="#8F37B5" d="M171.492 422.438C149.054 337.356 183.322 247.434 256.693 198.863C330.065 150.293 426.228 153.871 495.787 207.76L495.045 208.941C425.992 155.343 330.454 151.734 257.553 199.968C184.653 248.202 150.616 337.544 172.943 422.057L171.492 422.438Z"/><path fill="#27E6F0" d="M568.325 417.369C569.112 417.76 569.121 417.696 569.594 418.419C551.516 493.048 493.308 551.354 418.709 569.556C344.11 587.759 265.588 562.816 215.169 504.901L216.131 503.669C266.226 561.345 344.364 586.173 418.563 567.992C492.762 549.81 550.569 491.671 568.325 417.369Z"/><path fill="#444C9D" d="M495.787 207.76C559.742 257.308 588.641 339.791 569.594 418.419C569.121 417.696 569.112 417.76 568.325 417.369C586.926 339.532 558.264 258.011 495.045 208.941L495.787 207.76Z"/><path fill="#2F89BD" d="M172.943 422.057C180.908 452.206 195.683 480.126 216.131 503.669L215.169 504.901C194.474 481.13 179.529 452.914 171.492 422.438L172.943 422.057Z"/><defs><linearGradient id="gradient_6" gradientUnits="userSpaceOnUse" x1="431.8475" y1="583.42657" x2="400.27701" y2="410.16205"><stop offset="0" stop-color="#00FDCF" stop-opacity="0.98823529"/><stop offset="1" stop-color="#278EDF"/></linearGradient></defs><path fill="url(#gradient_6)" d="M584.067 375.086C585.082 376.66 584.837 377.799 584.807 379.692C584.92 379.432 585.117 378.519 585.193 378.204C586.683 377.201 589.151 376.201 590.863 377.04C590.481 374.987 591.507 370.568 592.041 368.495C592.613 455.416 542.422 534.68 463.604 571.33C384.785 607.98 291.83 595.278 225.734 538.826C228.6 537.074 230.407 535.431 230.3 531.901C234.836 536.468 242.137 541.855 247.435 545.524C289.046 574.335 339.274 587.644 389.69 583.197C435.98 578.89 479.612 559.64 513.998 528.353C550.829 494.891 574.841 449.635 581.901 400.377C583.227 391.459 583.606 384.057 584.067 375.086Z"/><defs><linearGradient id="gradient_7" gradientUnits="userSpaceOnUse" x1="324.06845" y1="152.96248" x2="348.31396" y2="289.23865"><stop offset="0" stop-color="#BE35BF"/><stop offset="1" stop-color="#7857D2"/></linearGradient></defs><path fill="url(#gradient_7)" d="M153.207 321.626C171.412 239.972 233.96 175.478 315.018 154.779C396.075 134.08 481.887 160.689 537.013 223.617C533.376 226.27 530.123 221.842 529.861 228.082C435.956 123.94 274.155 133.918 194.23 248.222C177.511 272.132 166.868 297.552 160.699 325.991C159.529 323.519 155.968 321.178 153.207 321.626Z"/><path fill="#3789D9" d="M153.207 321.626C155.968 321.178 159.529 323.519 160.699 325.991C159.027 334.583 157.417 344.49 156.702 353.225C152.935 401.16 165.401 448.969 192.094 488.962C202.319 504.157 216.13 520.248 230.3 531.901C230.407 535.431 228.6 537.074 225.734 538.826C163.218 485.432 135.315 401.87 153.207 321.626Z"/><path fill="#3F62A8" d="M537.013 223.617C565.804 256.483 584.261 297.111 590.073 340.416C587.669 342.861 586.553 343.638 583.011 344.239L582.659 344.609C582.213 342.108 581.904 339.563 581.506 337.053C576.129 303.187 562.609 270.132 541.72 242.863C537.887 237.858 533.895 232.946 529.861 228.082C530.123 221.842 533.376 226.27 537.013 223.617Z"/><path fill="#3789D9" d="M582.659 344.609L583.011 344.239C586.553 343.638 587.669 342.861 590.073 340.416C591.322 349.724 591.98 359.103 592.041 368.495C591.507 370.568 590.481 374.987 590.863 377.04C589.151 376.201 586.683 377.201 585.193 378.204C585.117 378.519 584.92 379.432 584.807 379.692C584.837 377.799 585.082 376.66 584.067 375.086C584.342 364.139 583.845 355.596 582.659 344.609Z"/></svg>