<?xml version="1.0" encoding="utf-8" ?><svg xmlns="http://www.w3.org/2000/svg" xmlns:xlink="http://www.w3.org/1999/xlink" width="500" height="500" viewBox="0 0 500 500"><path fill="#3765AE" transform="scale(0.488281 0.488281)" d="M28.0102 549.487C25.9149 516.983 30.8221 491.979 38.1381 460.663C57.0814 377.531 108.207 308.067 163.824 245.456C248.336 150.318 347.751 42.0948 483.298 32.9738C520.815 30.4492 584.925 48.3297 620.01 61.938C663.046 78.6297 706.005 110.376 741.786 139.206C759.114 153.115 776.137 167.4 792.842 182.051C817.765 204.046 841.868 226.953 865.1 250.726C923.836 311.277 975.639 379.779 987.827 465.268C988.794 472.053 990.835 482.979 990.954 489.406C991.347 510.426 988.134 534.555 983.891 555.039C968.936 627.236 940.885 677.699 896.279 735.031C880.181 755.795 863.31 775.949 845.702 795.45C832.298 810.329 818.654 824.99 804.775 839.426C733.723 914.126 646.468 990.57 538.537 996.565C490.546 999.23 422.251 981.324 379.239 960.258C323.672 933.044 266.913 885.396 220.733 843.997C202.321 827.519 184.357 810.548 166.859 793.103C102.568 729.731 45.0315 659.449 31.1167 567.6C28.1253 560.428 27.8793 557.235 28.0102 549.487Z"/><path fill="#7697CB" transform="scale(0.488281 0.488281)" d="M28.0102 549.487C29.5965 550.217 30.0212 550.121 30.7881 552.067C32.1247 555.458 32.0235 564.261 31.1167 567.6C28.1253 560.428 27.8793 557.235 28.0102 549.487Z"/><path fill="#FEFEFE" transform="scale(0.488281 0.488281)" d="M593.756 321.908C603.644 311.157 607.279 306.997 621.873 303.502C655.033 295.561 690.238 314.4 717.612 331.445C744.716 332.343 761.273 326.978 782.924 346.387C782.721 348.85 782.603 351.431 782.451 353.908C780.558 354.017 778.672 354.229 776.802 354.543C770.121 355.674 762.334 359.187 757.903 364.63C753.547 369.982 762.293 381.919 765.611 387.927C787.273 427.153 793.897 466.922 802.126 509.883C810.545 517.108 821.261 518.26 829.626 528.894C840.256 542.406 842.624 552.482 841.299 569.001C836.884 566.343 835.783 563.354 831.745 560.471C823.207 554.375 812.78 556.016 803.087 554.559L802.494 554.464C784.65 564.121 781.63 564.341 775.756 583.815C771.417 574.689 767.092 566.166 766.614 555.852C765.966 541.852 773.167 531.921 778.495 520.15C776.483 515.444 772.922 509.476 770.449 504.772C755.068 475.518 736.425 452.439 712.522 429.815C709.214 429.816 708.703 429.722 705.851 431.463C698.612 440.954 675.305 420.875 671.705 413.294L665.857 414.23C665.348 418.15 664.499 421.583 663.606 425.435L657.375 429.627C638.208 411.797 637.05 400.277 637.989 374.765L613.519 361.271C601.597 354.7 593.961 350.539 580.459 347.729C575.248 346.153 565.571 342.448 565.337 336.044C564.813 321.72 584.169 322.397 593.756 321.908Z"/><path fill="#7697CB" transform="scale(0.488281 0.488281)" d="M706.632 422.128C708.873 425.535 709.78 426.835 712.522 429.815C709.214 429.816 708.703 429.722 705.851 431.463C706.148 428.355 706.408 425.243 706.632 422.128Z"/><path fill="#3765AE" transform="scale(0.488281 0.488281)" d="M599.787 327.304C618.176 289.942 695.011 318.809 717.031 340.833C735.228 337.239 755.021 335.1 771.657 346.207C772.818 346.986 773.966 347.782 775.103 348.595C758.88 351.87 741.984 360.834 752.763 380.188C770.265 411.615 780.38 446.698 789.762 481.241C792.566 491.466 791.984 502.257 795.962 511.978C803.714 522.34 832.777 532.73 832.345 550.165C830.502 552.269 825.063 550.414 822.329 549.968C812.764 548.409 806.057 547.612 797.859 542.385C797.376 544.438 796.853 546.539 796.405 548.595C791.716 552.763 786.416 555.141 781.615 559.167C779.489 560.949 776.887 565.058 774.99 565.976C773.992 565.348 773.719 565.061 773.507 563.575C770.514 542.601 779.246 536.464 786.672 521.363C783.899 517.058 782.34 512.612 779.998 508.161C767.649 484.693 752.322 461.427 734.703 441.657C728.783 434.97 722.461 428.651 715.773 422.733C710.977 418.434 705.448 413.97 701.085 409.324C700.839 403.935 700.639 398.544 700.484 393.152C698.5 390.115 697.772 388.994 695.299 386.367C693.455 398.407 694.787 416.813 700.611 427.75C677.83 416.997 668.43 403.757 662.989 378.598C662.487 376.274 662.519 369.378 661.74 368.122C659.878 369.07 658.167 373.932 657.287 376.058C649.88 373.747 646.97 370.674 640.518 367.125C621.159 356.476 611.418 348.783 589.393 344.29C586.445 343.898 584.608 343.046 581.853 341.989C578.711 341.163 576.648 340.614 573.599 339.456C572.411 337.397 571.566 336.711 571.442 334.289C572.032 332.313 572.956 331.68 574.454 330.148C579.34 326.403 591.624 328.55 599.787 327.304Z"/><path fill="#FEFEFE" transform="scale(0.488281 0.488281)" d="M594.144 336.472C597.788 336.438 615.958 335.76 618.179 337.835L618.549 338.803C615.532 342.279 595.938 341.32 590.317 341.351C590.087 342.031 589.477 343.67 589.393 344.29C586.445 343.898 584.608 343.046 581.853 341.989L583.363 340.261L583.39 339.396C584.559 337.772 584.332 338.231 586.374 337.247C588.969 337.08 591.558 336.76 594.144 336.472Z"/><path fill="#7697CB" transform="scale(0.488281 0.488281)" d="M583.363 340.261C586.136 340.854 587.477 341.09 590.317 341.351C590.087 342.031 589.477 343.67 589.393 344.29C586.445 343.898 584.608 343.046 581.853 341.989L583.363 340.261Z"/><path fill="#D9DBE7" transform="scale(0.488281 0.488281)" d="M574.454 330.148C577.537 333.905 588.829 335.282 594.144 336.472C591.558 336.76 588.969 337.08 586.374 337.247C584.332 338.231 584.559 337.772 583.39 339.396L583.363 340.261L581.853 341.989C578.711 341.163 576.648 340.614 573.599 339.456C572.411 337.397 571.566 336.711 571.442 334.289C572.032 332.313 572.956 331.68 574.454 330.148Z"/><path fill="#A0B4DA" transform="scale(0.488281 0.488281)" d="M573.599 339.456C576.118 336.189 583.342 335.038 586.374 337.247C584.332 338.231 584.559 337.772 583.39 339.396L583.363 340.261L581.853 341.989C578.711 341.163 576.648 340.614 573.599 339.456Z"/><path fill="#FEFEFE" transform="scale(0.488281 0.488281)" d="M625.226 322.817C626.936 324.283 628.989 327.679 630.327 329.666C628.989 331.374 627.03 334.819 624.786 334.328C622.77 332.915 620.546 331.736 618.396 330.524C620.839 327.47 622.492 325.617 625.226 322.817Z"/><path fill="#3765AE" transform="scale(0.488281 0.488281)" d="M646.184 379.628C655.983 383.952 658.09 386.752 661.139 396.823C661.244 397.975 663.835 401.344 663.899 402.212C664.263 407.172 660.676 410.907 659.886 416.132C659.723 417.48 659.536 418.205 659.224 419.513C657.963 420.794 658.694 420.464 657.02 420.668C644.484 415.278 645.822 390.651 646.184 379.628Z"/><path fill="#FEFEFE" transform="scale(0.488281 0.488281)" d="M634.051 507.237C646.925 507.014 661.796 506.655 674.496 508.558C683.141 509.854 691.983 513.195 697.229 520.594C699.319 523.543 700.455 526.825 700.909 530.392C701.604 535.862 701.349 592.515 700.302 596.397C698.918 601.528 691.63 604.408 691.162 609.415C691.069 610.41 691.409 611.208 691.978 611.99C693.982 614.745 697.152 617.175 699.622 619.526C703.32 623.043 706.647 626.657 709.677 630.765C703.73 629.538 698.603 629.56 692.571 629.908C685.486 630.316 682.744 628.749 677.422 624.624C673.756 621.495 669.825 617.58 666.297 614.225C653.551 613.629 640.199 614.386 627.118 614.21C614.463 615.135 594.655 611.637 588.916 597.872C583.678 585.308 587.925 558.201 586.439 543.86C586.045 540.062 586.277 531.814 587.028 528.268C587.845 524.307 589.766 520.658 592.569 517.743C602.787 506.994 620.33 507.525 634.051 507.237Z"/><path fill="#3765AE" transform="scale(0.488281 0.488281)" d="M637.499 523.227C646.098 522.765 655.823 523.092 664.418 523.81C669.575 524.241 673.631 526.47 677.458 529.874C678.575 538.569 678.244 548.741 678.176 557.608L677.975 591.37L671.291 595.776C661.041 583.347 659.872 581.111 642.725 581.329C639.49 581.371 634.539 580.724 631.322 579.825L630.634 579.629L629.952 579.547L629.756 580.117C631.657 583.933 644.751 596.69 648.207 599.067C636.819 597.825 626.864 598.712 615.81 595.221C612.72 590.555 612.086 588.253 611.994 582.708C611.78 569.682 611.626 556.571 611.775 543.552C611.831 538.598 611.96 530.929 615.541 527.27C620.389 522.318 631.04 523.403 637.499 523.227Z"/><path fill="#FEFEFE" transform="scale(0.488281 0.488281)" d="M169.428 510.506C183.933 503.755 200.544 500.331 210.009 517.302C216.089 528.943 221.18 541.319 226.367 553.399C232.384 567.41 239.478 580.67 243.361 595.465C244.4 593.136 245.605 590.923 246.831 588.68C258.201 567.923 265.828 545.137 276.378 523.954C282.598 511.466 284.701 505.466 300.152 505.366C311.965 505.291 322.999 508.231 324.576 521.93C325.918 533.59 325.106 544.052 325.079 555.6L325.021 614.115L300.955 614.114L300.554 567.776C300.412 553.602 299.446 539.409 302.321 525.583C297.009 533.323 295.222 539.254 291.514 547.806C286.643 558.995 281.657 570.133 276.555 581.219C271.392 592.416 266.091 605.325 257.098 613.873C250.023 615.082 241.386 614.632 234.296 613.824C231.623 611.876 228.475 609.165 226.798 606.265C213.522 583.311 204.479 557.124 192.704 533.467C190.725 537.337 190.536 542.348 189.056 545.112C188.658 568.055 188.817 591.005 189.535 613.94C181.222 614.062 172.75 613.994 164.424 614.009C164.481 582.807 162.767 550.611 165.236 519.429C165.46 516.6 167.909 512.943 169.428 510.506Z"/><path fill="#A0B4DA" transform="scale(0.488281 0.488281)" d="M189.056 545.112C187.458 539.374 187.171 530.985 188.261 525.097C189.682 528.35 190.892 530.393 192.704 533.467C190.725 537.337 190.536 542.348 189.056 545.112Z"/><path fill="#FEFEFE" transform="scale(0.488281 0.488281)" d="M428.504 538.498C436.835 538.552 445.167 538.554 453.499 538.502C453.908 562.052 453.697 585.703 453.848 609.262C453.876 613.621 453.685 618.803 452.813 623.065C447.342 649.795 412.726 646.217 392.247 646.149L343.877 646.014C343.758 639.911 344.015 635.031 344.607 629.011C363.96 628.459 383.171 628.678 402.522 628.725C410.158 628.744 418.663 628.972 426.096 627.276C428.01 622.965 431.242 616.923 426.731 613.396C405.069 612.522 366.198 618.154 349.432 603.706C339.728 595.342 342.688 553.813 342.472 539.588C348.865 539.389 360.337 537.642 365.499 540.308C366.665 541.994 367.351 544.917 367.393 546.924C367.731 563.341 366.95 578.951 368.633 595.357C382.824 600.207 412.715 598.868 428.605 598.275C429.098 579.525 428.561 557.434 428.504 538.498Z"/><path fill="#FEFEFE" transform="scale(0.488281 0.488281)" d="M508.543 507.724C529.624 507.119 552.345 507.729 573.483 508.23C573.543 513.162 573.51 518.144 573.515 523.082C550.152 524.117 525.057 523.221 501.404 523.598C491.431 530.11 493.645 540.263 496.373 550.059C511.979 555.226 532.304 551.205 548.623 554.269C562.022 556.786 566.042 560.891 573.379 571.533C573.813 581.715 574.388 595.421 566.76 603.111C557.84 612.103 546.105 613.983 534.29 614.296L468.922 614.016L468.669 596.605C486.688 597.078 504.58 596.847 522.596 596.765C530.124 596.73 537.211 596.496 544.697 595.797C548.922 586.364 548.75 578.532 544.454 569.216C523.685 563.389 496.11 573.932 477.614 558.7C466.26 549.349 466.403 528.328 476.081 517.748C484.747 508.275 496.691 508.209 508.543 507.724Z"/><path fill="#FEFEFE" transform="scale(0.488281 0.488281)" d="M716.333 507.768C723.092 507.385 730.625 507.412 737.453 507.309C738.384 534.446 736.846 561.541 738.079 589.148C740.344 591.379 741.595 593.028 742.948 595.882C752.425 596.797 763.177 596.579 772.836 596.62L815.861 596.914C816.135 600.7 817.396 610.724 816.083 613.753L814.625 614.02L772.15 614.135C759.638 614.153 746.537 615.061 734.898 610.921C724.229 607.126 713.951 598.664 714.366 586.623C714.639 578.73 713.921 567.006 714.526 559.498C715.312 549.762 712.062 515.323 714.954 508.163L716.333 507.768Z"/><path fill="#FEFEFE" transform="scale(0.488281 0.488281)" d="M849.627 601.732C850.264 599.838 850.473 598.371 852.018 597.207C856.947 597.081 856.38 610.265 854.837 613.586C853.696 614.23 853.751 614.167 852.432 614.294C848.78 613.814 844.529 614.018 840.797 614.085C838.721 614.396 839.121 614.681 837.767 613.818C836.858 611.198 837.369 607.389 837.456 604.379C837.209 602.059 837.014 600.979 837.236 598.69L838.495 597.735C840.675 598.006 843.185 597.999 844.739 599.388C845.539 601.114 845.444 601.593 845.503 603.457C846.86 604.016 846.458 604.474 848.373 604.813C849.53 603.578 849.199 603.67 849.627 601.732Z"/><path fill="#FEFEFE" transform="scale(0.488281 0.488281)" d="M849.627 601.732C850.264 599.838 850.473 598.371 852.018 597.207C856.947 597.081 856.38 610.265 854.837 613.586C853.696 614.23 853.751 614.167 852.432 614.294C851.699 610.081 850.417 606 849.627 601.732Z"/><path fill="#7697CB" transform="scale(0.488281 0.488281)" d="M849.627 601.732C850.417 606 851.699 610.081 852.432 614.294C848.78 613.814 844.529 614.018 840.797 614.085L844.051 608.716L844.304 608.439L845.008 608.421C845.871 609.572 847.27 611.758 848.775 611.744C849.002 609.184 847.709 606.439 845.639 604.933L845.503 603.457C846.86 604.016 846.458 604.474 848.373 604.813C849.53 603.578 849.199 603.67 849.627 601.732Z"/><path fill="#D9DBE7" transform="scale(0.488281 0.488281)" d="M837.456 604.379C839.027 606.593 839.447 608.14 841.458 609.292C842.586 609.116 842.972 609.063 844.051 608.716L840.797 614.085C838.721 614.396 839.121 614.681 837.767 613.818C836.858 611.198 837.369 607.389 837.456 604.379Z"/><path fill="#A0B4DA" transform="scale(0.488281 0.488281)" d="M823.703 600.335C822.678 599.372 822.226 598.794 822.555 597.506C825.982 595.042 834.514 597.287 838.495 597.735L837.236 598.69C834.848 598.342 835.297 598.03 833.52 598.92L832.865 600.019C832.707 604.616 832.466 609.421 832.484 614.004L824.494 614C824.506 610.187 824.759 603.725 823.703 600.335Z"/><path fill="#D9DBE7" transform="scale(0.488281 0.488281)" d="M823.703 600.335C822.678 599.372 822.226 598.794 822.555 597.506C825.982 595.042 834.514 597.287 838.495 597.735L837.236 598.69C834.848 598.342 835.297 598.03 833.52 598.92L832.865 600.019C829.608 601.753 827.341 601.041 823.703 600.335Z"/></svg>