<svg width="317" height="295" viewBox="0 0 317 295" fill="none" xmlns="http://www.w3.org/2000/svg">
<path d="M154.191 0.381502C167.394 -0.574211 180.679 0.268135 193.615 2.8813C195.502 3.25579 198.019 3.70226 199.798 4.18159C199.606 4.75661 199.724 4.61196 199.355 5.06217C199.696 5.1479 200.322 5.32571 200.643 5.38129L203.363 5.90974L203.886 5.14426C205.87 5.75578 212.652 7.86522 213.999 8.96066C216.215 9.93765 218.228 11.2593 220.147 12.662C236.732 25.2922 235.226 48.4046 235.61 66.1315C235.682 69.4034 235.825 72.6009 235.847 75.8778L235.954 75.9586C239.981 75.7581 248.777 75.8295 252.732 76.1261C254.198 76.1202 255.81 76.272 257.284 76.3808C263.25 76.771 269.203 77.3056 275.138 77.9835C277.129 78.3614 279.113 78.7758 281.087 79.2261C292.33 81.9743 300.562 85.9705 306.597 95.5414C309.418 100.014 311.597 105.375 312.997 110.38C318.504 130.064 318.315 162.463 312.513 182.244C309.165 193.66 304.04 204.3 292.423 210.477C291.779 210.814 291.126 211.137 290.465 211.443C275.871 217.633 257.999 217.641 242.227 217.554C237.24 217.527 232.512 217.525 227.533 217.122C225.979 216.996 223.91 217.002 222.436 216.828C216.167 216.907 208.458 216.47 202.099 216.29C195.07 216.062 188.032 216.2 181.02 216.703C190.568 220.539 224.02 217.661 227.127 227.44C230.948 239.464 228.393 262.74 221.143 273.963C219.349 276.741 215.839 280.557 212.968 282.652C209.54 284.941 206.074 286.917 202.119 288.376C188.859 293.268 171.43 295.053 157.215 294.938C154.801 295.046 148.61 295.019 146.286 294.808C145.995 294.817 145.719 294.821 145.427 294.81C131.11 294.243 115.687 292.445 102.935 286.02C99.9368 284.509 96.5683 282.5 94.2344 280.205C79.0143 266.686 81.5963 236.561 80.9946 218.781C75.5537 218.454 69.6659 218.484 64.1773 218.416C52.6531 218.487 35.6853 216.902 25.3108 212.29C21.9536 210.877 19.2924 209.14 16.6048 206.809C15.1585 205.61 14.3113 204.589 13.1857 203.149C12.4435 202.485 10.6728 199.898 10.1277 198.986C1.26014 184.138 0.0710675 165.691 0.00130808 149.072C-0.0200698 143.987 0.217818 137.941 0.919109 132.929C0.946702 132.593 0.976493 132.257 1.00848 131.921C2.09184 120.535 5.43225 105.678 11.9444 95.7124C13.8429 92.807 17.1905 89.6179 20.0039 87.4436C23.9928 84.4752 27.844 82.6803 32.7497 81.2225C35.3729 80.548 37.725 79.9262 40.427 79.5281C47.8058 78.1486 58.8157 77.383 66.403 77.6938C74.3535 77.4519 84.3711 77.5416 92.4208 77.6515C94.4627 77.648 98.9735 77.7022 100.864 77.4312L100.87 77.5855C101.728 77.6904 104.123 77.8027 104.808 77.3312C105.005 77.447 104.946 77.4017 105.023 77.4731C102.95 76.1892 104.131 76.7508 103.413 74.9171C103.291 74.6047 102.149 74.4791 101.736 74.448L101.056 74.1007C98.0407 74.0416 94.3673 72.3911 92.0211 70.6199C89.3464 67.8411 88.7244 64.8027 88.3611 61.2022C87.67 49.1008 88.5245 38.8578 92.7251 27.3289C95.6516 19.3051 101.843 12.686 110.112 8.99746C120.055 4.56333 133.677 1.37707 144.696 0.997853C148.226 0.303066 150.711 0.668788 154.191 0.381502Z" fill="#2C4BCA"/>
<path d="M235.954 75.9586C239.981 75.758 248.777 75.8295 252.732 76.1261C254.198 76.1202 255.81 76.2719 257.284 76.3808C263.25 76.771 269.203 77.3056 275.138 77.9835C277.129 78.3614 279.113 78.7757 281.087 79.2261C292.33 81.9743 300.562 85.9705 306.597 95.5414C309.418 100.014 311.597 105.375 312.997 110.38C318.504 130.064 318.315 162.463 312.513 182.244C309.165 193.66 304.04 204.3 292.423 210.477C291.779 210.814 291.126 211.137 290.465 211.443C275.871 217.633 257.999 217.64 242.227 217.554C237.24 217.527 232.512 217.525 227.533 217.122C225.979 216.996 223.91 217.002 222.436 216.828C216.167 216.907 208.458 216.47 202.099 216.29C195.07 216.062 188.032 216.2 181.02 216.703C190.568 220.539 224.02 217.661 227.127 227.44C230.948 239.464 228.393 262.74 221.144 273.963C219.349 276.741 215.839 280.557 212.968 282.651C209.54 284.941 206.074 286.917 202.119 288.376C188.859 293.268 171.43 295.053 157.215 294.938C154.801 295.046 148.61 295.019 146.286 294.808C145.995 294.817 145.719 294.821 145.427 294.81C131.11 294.243 115.687 292.445 102.935 286.019C99.9368 284.509 96.5683 282.5 94.2344 280.205C79.0143 266.686 81.5963 236.561 80.9946 218.781L80.9748 216.452C80.8317 204.956 81.7067 190.09 84.7676 178.98C85.3013 177.224 85.7942 175.685 86.4259 173.95C88.9709 172.39 89.0587 172.498 90.3334 169.464C90.0821 168.69 90.0708 168.661 89.5291 168.037L89.7488 167.546C91.7655 165.297 92.6072 164.019 94.9942 161.938L97.409 160.313C98.6097 159.716 100.091 158.757 101.259 158.043L101.732 157.766C102.716 157.51 102.975 157.399 103.886 156.963C104.755 156.575 105.406 156.337 106.299 156.021C108.768 154.925 110.689 154.582 113.33 153.981C115.551 153.591 117.311 153.137 119.651 152.792C121.66 152.54 123.673 152.313 125.688 152.11L131.164 151.657L132.151 151.499C134.204 151.349 136.371 151.257 138.436 151.14C140.625 151.086 145.256 150.919 147.321 150.593C148.413 150.585 149.591 150.556 150.675 150.575C152.56 150.704 155.799 150.494 157.691 150.285C160.315 149.895 164.519 149.569 167.189 149.459C170.684 149.475 174.518 148.921 177.318 148.983L177.528 148.852L182.499 148.43C184.906 148.273 187.327 147.951 189.722 147.665L195.083 146.788C197.013 146.54 199.62 145.939 201.571 145.545C201.559 144.664 201.556 143.783 201.559 142.901L201.781 142.852C201.107 141.568 201.26 141.712 199.807 141.63C202.456 141.175 205.375 140.26 207.797 139.911L208.659 139.626L210.855 139.179C212.614 139.5 214.776 139.904 216.467 140.474C217.43 140.282 218.51 140.086 219.242 139.459C220.785 138.572 223.411 136.612 224.468 135.243C226.18 133.92 226.947 131.887 229.341 132.262C229.602 128.65 228.815 127.385 229.709 123.502C229.923 122.61 231.331 120.117 231.701 118.747C233.382 112.527 235.017 105.059 235.277 98.6502C235.55 96.7174 235.586 93.3879 235.667 91.3407C235.587 89.5055 235.483 87.5047 235.543 85.6842C235.613 83.5213 235.872 81.4801 235.794 79.301C235.791 78.2905 235.717 77.141 235.962 76.1753L235.954 75.9586Z" fill="url(#paint0_linear_21_230)"/>
<path d="M93.8305 276.045C98.1821 268.051 103.366 266.961 111.843 271.199C116.084 273.32 120.002 276.101 124.488 277.785C128.538 279.296 132.949 279.726 137.165 280.64C150.04 283.43 163.242 285.559 176.506 285.557C182.794 285.556 188.757 285.166 195.019 285.867C197.92 286.192 198.398 285.779 201.409 286.811C205.244 285.915 209.974 282.604 212.969 282.652C209.54 284.941 206.075 286.917 202.119 288.376C188.859 293.268 171.43 295.053 157.215 294.938C154.801 295.046 148.61 295.019 146.286 294.808C145.995 294.817 145.719 294.821 145.427 294.81C131.111 294.243 115.687 292.445 102.935 286.02C99.9368 284.509 96.5684 282.5 94.2345 280.205L94.7317 279.9C95.5841 278.107 92.5767 277.527 93.8305 276.045Z" fill="url(#paint1_linear_21_230)"/>
<path d="M93.8305 276.045L93.9676 276.187C94.8533 277.116 95.5504 278.202 96.4258 279.096C106.822 289.703 124.344 291.749 138.977 293.334C142.837 293.752 146.868 293.252 150.586 294.244C151.041 294.367 151.031 294.353 151.499 294.389L151.659 294.563C149.817 294.784 148.139 294.782 146.286 294.808C145.995 294.818 145.719 294.821 145.427 294.81C131.111 294.243 115.687 292.445 102.935 286.02C99.9368 284.509 96.5684 282.5 94.2345 280.205L94.7317 279.9C95.5841 278.107 92.5767 277.527 93.8305 276.045Z" fill="#BD7656"/>
<path d="M201.409 286.811C205.244 285.914 209.974 282.604 212.969 282.651C209.54 284.94 206.075 286.917 202.119 288.376C188.859 293.268 171.43 295.053 157.215 294.938C158.746 294.779 159.471 293.907 161.791 293.738C170.205 293.127 178.646 292.756 186.936 291.166C189.882 290.6 193.022 289.49 195.932 288.718C198.406 287.994 197.715 287.102 201.409 286.811Z" fill="#BD7656"/>
<path d="M235.794 79.301C237.182 79.4267 238.837 79.2917 239.995 79.5242C238.346 79.4868 237.398 79.3355 236.042 80.2465C235.579 81.0648 235.837 81.1624 236.504 81.8182C238.571 82.6345 244.456 82.0487 247.028 82.1936C250.662 82.398 254.137 82.634 257.824 82.9045C267.98 83.6657 278.663 84.1284 288.144 87.8817C290.772 88.9217 293.845 91.6069 294.967 94.0555C295.78 95.8302 296.13 99.9303 294.174 101.177C292.5 101.599 290.253 98.636 288.634 97.7896C272.194 89.1956 253.435 91.5192 235.743 88.5369C235.763 89.477 235.832 90.4185 235.667 91.3408C235.587 89.5056 235.483 87.5047 235.543 85.6843C235.614 83.5214 235.872 81.4802 235.794 79.301Z" fill="#F6D4AB"/>
<path d="M181.02 216.703C180.52 215.977 179.463 216.098 179.993 214.541L180.525 214.544C185.296 210.676 205.592 211.507 211.975 211.748C218.393 211.991 223.446 211.685 228.72 215.471C226.029 216.662 225.05 216.568 222.436 216.828C216.167 216.907 208.458 216.47 202.1 216.29C195.07 216.062 188.032 216.2 181.02 216.703Z" fill="url(#paint2_linear_21_230)"/>
<path d="M224.467 135.243C226.18 133.92 226.947 131.887 229.341 132.262C228.05 135.642 225.449 138.293 222.171 140.303C220.25 141.481 217.069 141.653 215.609 143.246L215.487 143.682C216.165 143.398 217.438 142.826 218.102 142.646L218.328 142.731L218.346 142.581L218.574 142.593L218.379 142.769L218.263 142.664L218.123 142.953C217.234 143.519 216.692 143.833 215.752 144.325C210.667 144.718 201.608 146.581 197.054 148.727C193.354 147.889 191.329 148.845 187.672 149.252C184.263 149.632 180.681 149.657 177.318 148.983L177.528 148.852L182.499 148.43C184.906 148.273 187.327 147.951 189.722 147.665L195.083 146.788C197.013 146.54 199.62 145.939 201.571 145.545C201.559 144.664 201.556 143.783 201.559 142.901L201.781 142.852C201.107 141.568 201.26 141.712 199.807 141.63C202.456 141.175 205.375 140.26 207.797 139.911L208.659 139.625L210.855 139.179C212.614 139.5 214.776 139.904 216.467 140.474C217.43 140.282 218.51 140.086 219.242 139.459C220.785 138.572 223.411 136.612 224.467 135.243Z" fill="#CE7326"/>
<path d="M210.855 139.179C212.614 139.5 214.776 139.904 216.467 140.474C212.38 142.687 206.198 144.481 201.571 145.545C201.559 144.664 201.556 143.783 201.559 142.901L201.781 142.852C201.107 141.568 201.26 141.712 199.807 141.63C202.456 141.175 205.375 140.26 207.797 139.911L208.659 139.626L210.855 139.179Z" fill="#FBF0EC"/>
<path d="M199.807 141.63C202.456 141.175 205.375 140.26 207.797 139.911C207.616 140.956 207.655 141.737 207.662 142.786C206.377 142.777 202.878 142.677 201.781 142.852C201.107 141.568 201.26 141.712 199.807 141.63Z" fill="#D7D6E4"/>
<path d="M235.954 75.9586C239.981 75.758 248.777 75.8295 252.732 76.1261C254.198 76.1202 255.81 76.2719 257.284 76.3808C263.25 76.771 269.203 77.3056 275.138 77.9835L274.846 78.625L275.631 79.1068C275.357 79.7242 275.089 80.3952 274.729 80.9682C273.814 80.9717 272.669 80.949 271.772 80.9845C267.743 81.0239 263.695 80.176 259.734 80.0084C253.195 79.7325 246.545 79.6626 239.995 79.5241C238.837 79.2916 237.182 79.4266 235.794 79.301C235.791 78.2905 235.717 77.141 235.962 76.1753L235.954 75.9586Z" fill="#FBF0EC"/>
<path d="M257.284 76.3806C263.25 76.7708 269.203 77.3054 275.138 77.9833L274.846 78.6248C270.944 78.713 266.121 77.5089 262.074 77.5434C260.596 77.5562 258.356 77.3951 257.284 76.3806Z" fill="#F0B868"/>
<path d="M235.954 75.9586C239.981 75.758 248.777 75.8295 252.732 76.1261C249.686 76.3636 237.906 77.5283 235.962 76.1753L235.954 75.9586Z" fill="#F0B868"/>
<path d="M125.688 152.11L131.164 151.657C130.855 152.144 130.762 152.34 130.316 152.744C125.365 152.86 118.386 153.469 113.984 155.656C118.589 155.451 119.477 154.837 123.548 154.042C119.008 156.415 114.683 157.589 109.651 158.287C104.124 159.054 99.1439 161.046 95.1833 164.657C93.33 166.274 91.8036 167.376 90.3334 169.464C90.0821 168.69 90.0709 168.661 89.5292 168.037L89.7488 167.546C91.7655 165.297 92.6073 164.019 94.9942 161.938L97.409 160.313C98.6097 159.716 100.091 158.757 101.259 158.043L101.732 157.766C102.716 157.51 102.975 157.399 103.886 156.963C104.755 156.575 105.406 156.337 106.299 156.021C108.768 154.925 110.689 154.582 113.33 153.981C115.551 153.591 117.311 153.137 119.651 152.792C121.66 152.54 123.673 152.313 125.688 152.11Z" fill="#BD7656"/>
<path d="M228.719 215.471C229.927 216.076 239.186 215.914 240.987 216.098C242.155 216.219 246.096 216.266 247.461 216.228C252.145 216.101 256.771 215.781 261.475 216.012C262.953 216.075 264.798 215.674 266.319 215.677C267.817 215.679 269.342 215.742 270.834 215.637C271.634 215.54 273.702 214.466 274.762 214.177C277.286 213.488 281.343 213.286 283.577 212.177C283.686 211.822 283.653 212.001 283.525 211.581C284.225 211.46 289.139 211.504 290.465 211.443C275.871 217.632 257.999 217.64 242.227 217.554C237.24 217.527 232.512 217.525 227.533 217.122C225.979 216.995 223.91 217.002 222.436 216.827C225.05 216.568 226.029 216.661 228.719 215.471Z" fill="#CE7326"/>
<path d="M275.138 77.9836C277.129 78.3615 279.113 78.7759 281.087 79.2262C280.85 79.815 280.609 80.4022 280.364 80.988C278.971 79.3371 277.693 80.453 275.631 79.107L274.846 78.6251L275.138 77.9836Z" fill="#F0B868"/>
<path d="M275.631 79.1069C277.693 80.453 278.971 79.337 280.364 80.988C278.573 81.3413 273.598 81.2925 271.772 80.9846C272.668 80.9491 273.814 80.9718 274.729 80.9683C275.089 80.3953 275.357 79.7243 275.631 79.1069Z" fill="#F6D4AB"/>
<path d="M175.859 247.717C174.687 247.567 174.341 248.035 173.503 247.803L173.537 247.656C174.705 246.84 176.187 246.213 177.622 245.917C184.909 244.415 190.477 243.489 197.108 246.992C198.233 247.29 202.318 252.057 202.412 253.589L202.427 253.815L202.552 254.103C204.348 257.697 205.828 262.61 204.089 266.314C202.202 270.333 200.65 271.393 196.451 273.154C192.272 274.907 189.749 275.527 185.344 276.413C183.196 276.846 182.177 277.413 179.697 277.557C177.993 277.667 176.283 277.444 174.68 276.904C171.804 275.91 170.629 274.409 169.067 272.245C168.922 272.045 168.303 272.706 167.696 271.125C166.339 267.591 166.192 260.79 167.377 257.241C167.534 256.769 167.961 256.736 168.461 256.55C169.064 254.672 169.969 253.295 171.598 252.018C171.798 250.078 174.053 249.125 175.859 247.717Z" fill="url(#paint3_linear_21_230)"/>
<path d="M200.791 255.556C201.498 254.852 201.7 254.64 202.552 254.103C204.348 257.697 205.828 262.61 204.089 266.315C202.202 270.333 200.65 271.394 196.451 273.154C192.272 274.907 189.749 275.527 185.344 276.414C183.196 276.846 182.177 277.413 179.697 277.557C177.993 277.667 176.283 277.444 174.68 276.904C171.804 275.911 170.629 274.409 169.067 272.245C168.922 272.045 168.303 272.707 167.696 271.125C166.339 267.592 166.192 260.791 167.377 257.242C167.534 256.769 167.961 256.736 168.461 256.55C166.968 263.277 167.618 273.672 176.753 275.593C178.799 276.023 181.74 275.734 183.651 274.982C184.426 274.866 185.487 274.808 186.292 274.741C192.312 274.172 196.378 271.237 198.725 266.107C198.925 266.156 198.933 266.17 199.169 266.165C199.86 266.146 200.508 265.849 200.941 265.352C202.74 263.301 201.034 258.367 200.807 255.763L200.791 255.556Z" fill="#CE7326"/>
<path d="M171.598 252.018C175.177 249.923 177.716 249.264 181.748 248.414L181.808 248.857C174.083 251.15 170.963 255.745 170.932 262.996C171.198 264.399 171.54 265.685 172.142 267.005C174.267 272.042 178.318 273.702 183.651 274.982C181.74 275.734 178.799 276.023 176.753 275.593C167.618 273.672 166.968 263.276 168.461 256.55C169.064 254.672 169.969 253.295 171.598 252.018Z" fill="#841D02"/>
<path d="M175.859 247.717C174.687 247.567 174.341 248.035 173.504 247.803L173.537 247.656C174.705 246.84 176.187 246.213 177.622 245.917C184.909 244.415 190.477 243.489 197.108 246.992C198.233 247.29 202.318 252.057 202.412 253.589L202.427 253.815C201.424 252.624 200.879 251.279 199.42 250.445C198.701 250.445 197.028 249.401 195.658 249.224L195.716 249.596C196.419 249.992 197.337 250.289 197.708 250.758L197.6 250.966C196.555 250.217 194.343 248.234 193.186 249.709L193.111 250.691C189.045 248.471 186.361 248.105 181.808 248.857L181.748 248.414C177.716 249.264 175.177 249.923 171.598 252.018C171.798 250.078 174.053 249.125 175.859 247.717Z" fill="#CE7326"/>
<path d="M175.859 247.717C174.686 247.567 174.341 248.035 173.503 247.803L173.537 247.656C174.705 246.84 176.187 246.213 177.622 245.917C184.909 244.415 190.477 243.489 197.108 246.992C196.035 247.397 192.092 246.644 190.694 246.5C188.867 246.314 187.11 246.576 185.331 246.456C182.626 246.273 178.089 245.856 175.859 247.717Z" fill="#F0B868"/>
<path d="M181.748 248.414C185.169 247.578 197.476 247.973 199.42 250.445C198.701 250.445 197.028 249.401 195.658 249.224L195.716 249.597C196.419 249.992 197.337 250.289 197.708 250.758L197.6 250.966C196.555 250.217 194.343 248.234 193.186 249.709L193.111 250.692C189.045 248.471 186.361 248.105 181.808 248.858L181.748 248.414Z" fill="#92381F"/>
<path d="M193.111 250.691L193.186 249.709C194.343 248.234 196.555 250.217 197.6 250.966L197.708 250.758C197.337 250.289 196.419 249.992 195.716 249.597L195.658 249.224C197.028 249.401 198.701 250.445 199.42 250.445C200.879 251.279 201.424 252.625 202.427 253.815L202.552 254.103C201.7 254.64 201.498 254.852 200.791 255.556L200.807 255.763C201.034 258.367 202.74 263.301 200.941 265.352C200.508 265.849 199.86 266.146 199.169 266.165C198.933 266.17 198.925 266.156 198.725 266.107C200.801 259.527 198.479 255.002 193.111 250.691Z" fill="url(#paint4_linear_21_230)"/>
<path d="M172.142 267.005C173.798 267.718 174.963 269.443 176.379 270.398C179.224 272.32 182.982 273.701 186.292 274.741C185.488 274.808 184.426 274.866 183.651 274.982C178.318 273.702 174.267 272.042 172.142 267.005Z" fill="#7B7087"/>
<path d="M170.932 262.996C172.671 263.829 172.797 266.426 174.821 268.171C177.072 270.111 184.754 272.891 186.292 274.741C182.982 273.701 179.224 272.319 176.379 270.398C174.963 269.443 173.798 267.718 172.142 267.005C171.54 265.685 171.198 264.4 170.932 262.996Z" fill="#928CA4"/>
<path d="M161.502 226.326C162.743 226.325 165.938 226.858 167.433 226.985C170.972 227.286 174.478 227.596 178.034 227.793C181.335 227.952 184.64 228.021 187.946 227.999C190.884 227.971 194.416 227.879 197.343 227.744C205.539 227.365 206.889 229.245 208.699 236.25C208.029 237.954 207.805 238.502 206.128 239.439C203.198 240.393 187.046 241.887 184.145 241.201C184.24 240.886 184.336 240.87 184.578 240.629C184.384 239.43 181.31 237.711 180.354 236.834C178.358 235.001 176.727 232.912 174.38 231.441C171.372 229.555 167.839 228.963 164.366 228.199C163.473 227.998 161.874 227.753 161.212 227.338C161.073 226.792 161.113 226.971 161.502 226.326Z" fill="#F0B868"/>
<path d="M301.289 115.219C301.222 113.599 300.723 110.224 302.355 109.288C303.906 109.377 303.965 111.414 303.904 112.49C304.785 117.772 305.423 122.87 305.875 128.193C306.412 134.519 309.213 142.184 307.666 148.501C307.592 147.636 307.746 147.598 307.274 147.027C305.321 147.084 303.347 154.558 302.036 156.319C301.6 154.425 300.781 150.896 300.619 149.027C300.348 145.909 300.453 141.96 300.488 138.786C300.642 130.928 300.909 123.071 301.289 115.219Z" fill="#F6D4AB"/>
<path d="M301.289 115.219C301.222 113.599 300.723 110.224 302.355 109.288C303.906 109.377 303.965 111.414 303.904 112.49C303.25 112.093 303.259 112.13 302.456 112.048C301.044 112.671 301.503 113.984 301.289 115.219Z" fill="#F0B868"/>
<path d="M302.036 156.319C303.347 154.558 305.321 147.084 307.274 147.027C307.746 147.598 307.592 147.636 307.666 148.501C307.114 159.839 307.047 173.387 302.878 184.21C301.324 184.194 300.467 184.203 298.936 184.369C299.056 180.463 299.645 176.666 299.973 172.793C300.476 166.864 300.398 162.15 302.036 156.319Z" fill="#FBF0EC"/>
<path d="M140.998 161.694C145.395 161.622 152.309 161.246 156.378 162.073C151.718 162.726 147.727 162.208 143.28 162.575C134.001 163.342 124.031 163.672 114.873 164.996C112.996 165.254 103.347 167.399 102.695 166.676C103.576 164.347 112.974 162.516 115.407 162.299C119.363 161.945 123.344 161.96 127.315 161.92L140.998 161.694Z" fill="#F6D4AB"/>
<path d="M207.506 225.89C201.577 225.263 161.852 224.019 166.32 214.202C166.652 213.975 166.711 213.852 167.158 214.195C170.461 216.75 172.347 219.685 176.794 220.802C187.566 223.507 199.027 223.504 210.08 224.799C211.401 224.808 211.823 224.975 213.079 225.333L213.232 225.502C211.713 226.18 209.129 226.166 207.506 225.89Z" fill="url(#paint5_linear_21_230)"/>
<path d="M210.08 224.799C211.401 224.808 211.823 224.975 213.079 225.333L213.232 225.502C211.713 226.18 209.129 226.166 207.506 225.89C208.346 225.882 209.797 225.984 210.44 225.547C210.455 225.006 210.537 225.259 210.08 224.799Z" fill="#F0B868"/>
<path d="M215.202 227.047C220.359 226.743 219.835 230.859 219.789 234.189C219.717 235.231 219.792 236.459 219.067 237.223C218.046 237.639 217.779 237.338 216.768 236.929L215.719 234.142C215.198 232.804 214.712 231.326 214.225 229.963C213.873 229.489 212.457 228.126 211.967 227.637C213.337 227.279 213.782 227.182 215.202 227.047Z" fill="#FBF0EC"/>
<path d="M219.789 234.189C219.717 235.231 219.792 236.459 219.067 237.223C218.046 237.639 217.779 237.338 216.768 236.929L215.719 234.142C217.14 234.268 218.407 234.484 219.789 234.189Z" fill="#F6D4AB"/>
<path d="M211.967 227.637C213.337 227.279 213.782 227.182 215.202 227.047C214.535 227.983 214.501 228.83 214.225 229.963C213.873 229.489 212.457 228.126 211.967 227.637Z" fill="#F6D4AB"/>
<path d="M98.9944 167.613C99.6346 167.741 99.386 167.598 99.805 167.986C99.895 168.938 98.9927 170.559 98.4988 171.46C97.2991 173.649 96.4831 175.734 95.6693 178.057C94.8688 178.04 93.9826 178.068 93.1746 178.077C89.4782 176.054 96.6733 169.051 98.9944 167.613Z" fill="#FBF0EC"/>
<path d="M201.973 274.856C202.453 274.758 202.246 274.713 202.605 274.92C202.484 275.059 202.32 275.258 202.143 275.367C194.406 280.102 184.187 280.144 175.231 279.574C173.08 279.436 171.344 278.314 170.148 276.824C169.869 276.311 169.825 276.323 169.811 275.763C170.199 275.753 171.901 276.978 172.623 277.293C182.676 281.688 192.492 277.434 201.973 274.856Z" fill="#F0B868"/>
<path d="M167.849 212.447C164.248 211.858 165.587 212.578 162.178 213.507C160.892 213.858 158.4 213.542 156.879 213.821C153.264 214.484 150.153 216.282 146.395 216.365C144.394 216.421 141.807 216.636 140.198 215.36C139.847 214.729 139.648 213.091 140.19 212.565C141.649 214.202 139.778 216.265 145.326 215.823C148.447 215.574 150.856 215.034 153.768 213.896C156.781 212.718 159.771 213.223 162.899 212.785C163.904 212.645 165.126 210.996 166.087 210.537C166.32 210.883 166.237 210.741 166.433 211.102L166.567 211.354C167.507 211.865 168.228 211.894 169.307 212.059C168.765 212.14 168.272 212.15 167.849 212.447Z" fill="#F0B868"/>
<path d="M170.191 212.27C171.357 211.771 174.392 210.672 175.626 210.836C176.515 211.557 175.574 212.169 175.314 213.163C175.968 213.709 176.658 214.223 177.294 214.756C176.757 214.693 171.759 213.957 171.596 213.869C169.685 213.621 169.328 213.609 167.849 212.447C168.272 212.15 168.765 212.14 169.307 212.059L170.191 212.27Z" fill="#F0B868"/>
<path d="M169.307 212.059L170.191 212.27C171.011 212.452 172.387 212.752 172.863 213.416L172.725 213.709C172.35 213.769 171.973 213.823 171.596 213.869C169.685 213.621 169.328 213.609 167.849 212.448C168.272 212.15 168.765 212.14 169.307 212.059Z" fill="#FBF0EC"/>
<path d="M154.191 0.381502C167.395 -0.574211 180.679 0.268135 193.615 2.8813C195.502 3.25579 198.019 3.70226 199.798 4.18159C199.607 4.75661 199.724 4.61195 199.355 5.06217C199.697 5.1479 200.322 5.32571 200.643 5.38129L203.363 5.90974L203.886 5.14426C205.87 5.75578 212.652 7.86522 213.999 8.96066C216.215 9.93765 218.228 11.2593 220.147 12.662C236.732 25.2922 235.226 48.4046 235.61 66.1315C235.682 69.4034 235.825 72.6009 235.847 75.8778L235.954 75.9586L235.962 76.1754C235.717 77.141 235.791 78.2905 235.794 79.301C235.872 81.4801 235.614 83.5213 235.543 85.6842C235.483 87.5047 235.587 89.5055 235.667 91.3408C235.586 93.3879 235.55 96.7175 235.277 98.6503C235.017 105.059 233.383 112.527 231.701 118.747C231.331 120.117 229.923 122.61 229.709 123.502C228.815 127.385 229.602 128.65 229.341 132.262C226.947 131.887 226.18 133.92 224.468 135.243C223.412 136.612 220.785 138.572 219.242 139.46C218.51 140.086 217.43 140.282 216.467 140.474C214.776 139.904 212.614 139.5 210.855 139.179L208.659 139.626C209.404 138.856 210.353 139.072 210.44 138.818C211.455 135.831 212.397 133.202 214.504 130.835C213.194 131.181 212.022 131.557 210.736 131.973C212.572 130.421 213.205 130.078 215.531 129.564C215.725 129.371 215.912 129.172 216.092 128.968C219.748 124.764 217.45 120.788 216.893 116.308C216.617 114.085 216.643 111.535 216.393 109.184C215.937 108.698 215.328 108.154 214.833 107.686C211.611 107.572 206.024 107.697 202.882 108.096C205.034 105.59 213.067 106.154 215.102 103.203C217.982 99.0252 215.464 72.9468 215.083 67.1745C214.565 59.3339 214.305 51.4297 213.258 43.629C212.734 39.724 211.793 35.9155 210.771 32.0987C208.536 32.6352 198.404 35.0296 196.729 34.873C197.536 34.2226 197.728 33.824 198.248 32.987C198.439 29.9229 198.174 28.0591 195.271 26.2243C193.184 24.9054 191.21 23.7698 188.782 23.0056C187.07 22.3725 184.974 22.24 183.266 21.7084C178.028 20.0791 171.797 19.3341 166.697 17.6688C158.926 19.5529 156.12 13.1883 150.06 11.7161C144.616 11.8928 145.521 12.2165 139.642 11.3074C133.216 11.9463 127.911 12.5662 121.624 14.1121C120.449 14.795 115.741 16.7214 115.305 17.424L115.654 17.7969C114.503 18.77 113.082 18.1625 112.169 18.6182C105.865 21.7641 104.128 29.4115 101.937 35.1809C101.273 36.9285 101.173 38.4331 100.005 39.8767C99.8318 40.0876 99.7922 40.1605 99.6925 40.4142L99.5264 42.1169C100.142 45.4795 100.505 56.5522 99.6743 59.7014C97.3292 61.853 96.6685 62.1786 95.9608 65.1515C95.1989 65.7748 94.5913 66.5976 94.4847 67.5529C93.5985 67.6179 93.89 67.4391 93.4313 67.8918C93.2867 68.7319 93.8792 69.7138 94.2613 70.5528L92.0211 70.6198C89.3465 67.8411 88.7244 64.8027 88.3612 61.2021C87.67 49.1008 88.5246 38.8578 92.7252 27.3289C95.6516 19.3051 101.843 12.686 110.112 8.99746C120.055 4.56333 133.677 1.37707 144.696 0.997853C148.226 0.303066 150.711 0.668788 154.191 0.381502Z" fill="#5782EF"/>
<path d="M112.544 15.5607C118.168 12.1425 125.401 10.8665 132.043 9.83059C152.553 6.63167 174.726 6.46653 195.213 9.9881C200.778 10.9447 208.428 13.2131 213.137 15.9731C214.06 16.5146 215.441 17.8256 216.246 18.5839C215.091 19.551 212.722 18.6164 211.158 18.6238C205.643 17.1989 200.414 15.7849 194.763 14.7601C187.893 13.5146 181.265 13.1126 174.308 12.6368C167.087 12.1428 159.518 11.5359 152.281 11.3457C148.645 10.6916 143.261 10.7117 139.642 11.3075C133.216 11.9464 127.911 12.5663 121.624 14.1122C118.91 14.5049 115.066 14.9094 112.544 15.5607Z" fill="#9FB2F4"/>
<path d="M233.205 81.7181C233.433 80.8648 234.331 75.3634 234.532 75.156C234.975 75.39 235.413 75.631 235.847 75.8778L235.954 75.9586L235.962 76.1754C235.717 77.141 235.791 78.2905 235.794 79.301C235.872 81.4801 235.613 83.5213 235.543 85.6842C235.483 87.5047 235.587 89.5055 235.667 91.3408C235.586 93.3879 235.55 96.7175 235.277 98.6503C235.017 105.059 233.382 112.527 231.701 118.747C231.331 120.117 229.923 122.61 229.709 123.502C228.815 127.385 229.602 128.65 229.341 132.262C226.947 131.887 226.18 133.92 224.467 135.243C223.411 136.612 220.785 138.572 219.242 139.46C218.51 140.086 217.43 140.282 216.467 140.474C214.776 139.904 212.614 139.5 210.855 139.179C212.03 138.492 214.85 137.417 216.216 136.864C214.905 132.122 220.941 127.272 223.043 123.157C224.531 120.243 225.394 117.055 226.833 114.234C228.153 110.064 229.233 105.834 230.068 101.56L231.571 91.4004C232.052 88.0683 232.395 84.9964 233.205 81.7181Z" fill="url(#paint6_linear_21_230)"/>
<path d="M233.205 81.7181C233.433 80.8648 234.331 75.3634 234.532 75.156C234.975 75.39 235.413 75.631 235.847 75.8778L235.954 75.9586L235.962 76.1754C235.717 77.141 235.791 78.2905 235.794 79.301C235.872 81.4801 235.614 83.5213 235.543 85.6842C235.483 87.5047 235.587 89.5055 235.667 91.3408C235.586 93.3879 235.55 96.7175 235.277 98.6503C235.208 97.8556 235.224 96.9411 235.213 96.1341L235.049 96.2553C234.925 96.648 234.913 96.7165 234.902 97.1131L234.895 97.4402C234.56 93.9141 235.087 84.1337 233.205 81.7181Z" fill="#B7A3F7"/>
<path d="M229.709 123.502C228.815 127.385 229.602 128.65 229.341 132.262C226.947 131.887 226.18 133.92 224.468 135.242C224.824 133.457 224.682 132.8 224.528 130.979C226.553 128.732 228.137 126.047 229.709 123.502Z" fill="url(#paint7_linear_21_230)"/>
<path d="M218.818 135.585C219.335 135.878 219.673 135.782 220.248 135.738C220.377 136.802 218.913 138.484 219.242 139.46C218.51 140.086 217.43 140.282 216.467 140.475C214.776 139.904 212.614 139.5 210.855 139.179C212.03 138.493 214.85 137.417 216.216 136.864C217.047 136.543 218.018 136 218.818 135.585Z" fill="#92381F"/>
<path d="M224.528 130.979C224.682 132.8 224.824 133.458 224.468 135.243C223.412 136.612 220.785 138.572 219.242 139.46C218.914 138.484 220.377 136.802 220.248 135.738C219.673 135.782 219.335 135.878 218.818 135.585C221.31 133.976 222.426 132.953 224.528 130.979Z" fill="#841D02"/>
<path d="M230.068 101.56L230.446 101.738C230.494 103.556 228.537 112.89 227.39 114.148L226.834 114.234C228.153 110.064 229.233 105.834 230.068 101.56Z" fill="#B7A3F7"/>
<path d="M154.191 0.381502C167.394 -0.574211 180.679 0.268135 193.615 2.8813C195.502 3.25579 198.019 3.70226 199.798 4.18159C199.607 4.75661 199.724 4.61195 199.355 5.06217C193.847 3.72689 193.274 5.98143 188.727 5.93763C175.614 4.33689 164.372 4.6056 151.279 4.62615C152.421 3.87263 154.638 2.97505 155.238 2.01895C155.364 1.81837 155.208 1.59268 155.109 1.3111L154.191 0.381502Z" fill="#BEC2F4"/>
<path d="M161.657 1.83065L161.968 1.80469L162.066 1.96417C159.537 2.8986 159.156 1.92377 155.741 3.58358C155.603 3.59639 155.465 3.6092 155.327 3.62201L155.436 3.33098C157.681 1.91855 158.987 1.97057 161.657 1.83065Z" fill="#B7A3F7"/>
<path d="M97.9945 28.0527C99.5601 26.2579 101.914 26.28 102.383 28.6119C101.379 31.4222 99.8864 37.4079 99.6924 40.4142L99.5264 42.117C99.0002 44.0961 99.6699 45.8215 97.3639 47.8361C96.6674 48.4445 96.557 48.6766 95.6071 48.6904C93.2271 47.0626 97.0923 30.8847 97.9945 28.0527Z" fill="#D7D6E4"/>
<path d="M92.7252 27.329L93.225 27.3123C93.5342 27.9005 93.5813 28.1508 93.749 28.7711C92.9175 32.0297 91.6375 36.7029 91.0883 39.9645C90.268 44.8366 89.9519 50.7085 89.7065 55.658C89.6406 56.9932 89.8362 60.236 88.8434 61.1155L88.3612 61.2022C87.67 49.1008 88.5246 38.8579 92.7252 27.329Z" fill="#8796F7"/>
<path d="M203.886 5.14429C205.87 5.75581 212.652 7.86525 213.999 8.96069C213.929 9.64493 214.644 10.3674 214.65 11.1748L214.012 11.3588C211.038 10.4371 209.492 10.1923 207.045 8.38213C208.001 8.66995 209.225 9.14741 210.185 9.49545C207.577 7.02044 206.82 6.95171 203.364 5.90978L203.886 5.14429Z" fill="#8796F7"/>
<path d="M188.727 5.93766C193.273 5.98146 193.847 3.72692 199.355 5.0622C199.696 5.14793 200.322 5.32574 200.643 5.38132C197.739 7.03379 193.928 7.0163 190.7 6.30481C190.3 6.21667 189.017 6.02881 188.727 5.93766Z" fill="#8796F7"/>
<path d="M216.246 18.5837C217.257 19.2705 218.557 20.6624 218.771 21.8241L218.55 22.1335C217.068 22.3296 212.278 19.6612 211.158 18.6236C212.722 18.6163 215.091 19.5509 216.246 18.5837Z" fill="#8796F7"/>
<path d="M144.696 0.997698C148.226 0.302912 150.711 0.668633 154.191 0.381348L155.109 1.31095C153.981 0.881968 153.702 0.784071 152.482 0.969469C149.275 1.45688 146.133 2.27745 142.991 3.03382L143.491 2.55759C144.192 1.89976 144.381 1.84561 144.696 0.997698Z" fill="#B7A3F7"/>
<path d="M213.999 8.96069C216.215 9.93769 218.228 11.2593 220.147 12.662C220.353 13.1041 220.458 12.9686 220.572 13.5357C219.551 13.6855 215.511 11.7385 214.012 11.3588L214.65 11.1748C214.644 10.3674 213.929 9.64494 213.999 8.96069Z" fill="#807FE6"/>
<path d="M97.9946 28.0527C97.896 26.4037 98.4988 24.6492 100.666 24.7266C101.209 24.7428 101.726 24.9522 102.105 25.3109C102.924 26.0963 102.719 27.6625 102.383 28.6119C101.914 26.28 99.5602 26.2579 97.9946 28.0527Z" fill="#8796F7"/>
<path d="M222.573 43.8551C224.131 43.3634 224.538 43.4693 226.101 43.7541C226.535 45.9431 227.19 48.9357 227.318 51.1124C227.657 56.9083 227.684 62.926 227.72 68.7284C227.808 75.8512 227.69 82.9749 227.367 90.0918C227.123 95.4847 226.972 100.194 225.764 105.507C224.89 102.041 223.456 98.7291 223.03 95.2571C222.525 91.1358 222.695 86.8878 222.714 82.7394C222.712 78.1983 222.683 73.6572 222.628 69.1166L222.428 52.6101C222.411 50.295 222.277 46.0579 222.573 43.8551Z" fill="#D7D6E4"/>
<path d="M218.529 27.3537L217.719 27.0507C216.973 26.0106 217.684 24.0695 218.669 23.2531C219.41 23.0688 219.026 23.0836 219.855 23.3437C223.249 23.9192 221.635 25.0726 222.712 27.3719C222.018 27.7395 221.066 28.2105 220.427 28.6184C219.857 28.2524 219.036 27.7587 218.529 27.3537Z" fill="#BEC2F4"/>
<path d="M219.855 23.3435C223.249 23.919 221.635 25.0723 222.712 27.3717C222.019 27.7393 221.066 28.2103 220.427 28.6182C219.857 28.2521 219.036 27.7585 218.529 27.3535C219.848 27.2653 220.691 27.389 221.347 26.2292C221.363 25.0349 220.612 24.3274 219.855 23.3435Z" fill="#8796F7"/>
<path d="M222.573 43.8553C222.573 42.9951 222.814 34.1405 222.853 34.0583C223.779 34.618 222.756 41.6107 223.458 42.6635C224.185 42.9316 224.703 43.034 225.386 42.6029C225.812 41.3264 224.688 33.3764 224.214 31.6195C223.964 30.6937 223.303 28.9974 222.936 28.0204L223.045 27.8425C224.778 29.9566 226.171 40.6923 226.101 43.7543C224.538 43.4696 224.131 43.3636 222.573 43.8553Z" fill="#8796F7"/>
<path d="M135.884 2.65009C138.295 2.53376 140.244 2.78528 142.641 3.08725C141.55 3.24456 140.329 3.35374 139.221 3.47243C136.843 3.6393 134.465 3.79386 132.085 3.93615C133.316 3.49342 134.637 3.07074 135.884 2.65009Z" fill="#B7A3F7"/>
<path d="M123.328 5.48901L123.708 5.51931L123.734 5.6755C121.056 7.26362 119.218 7.78612 116.404 8.91856C115.296 9.36473 114.31 10.0906 112.897 10.6591L112.588 10.5965L112.607 10.434C113.316 10.0143 115.825 8.50894 116.535 8.24397C119.007 7.32279 120.923 6.58568 123.328 5.48901Z" fill="#B7A3F7"/>
<path d="M196.729 34.8729C198.404 35.0296 208.536 32.6352 210.771 32.0986C211.793 35.9155 212.734 39.7239 213.258 43.629C214.305 51.4297 214.565 59.3339 215.083 67.1745C215.464 72.9468 217.982 99.0252 215.102 103.203C213.067 106.154 205.034 105.59 202.882 108.096C198.119 109.392 197.936 105.998 197.726 102.776C197.284 96.0346 197.1 89.2458 196.646 82.5133C196.294 77.2667 192.281 73.0315 189.581 68.6397C187.283 64.7992 185.35 60.8178 182.72 57.1173C182.373 56.6295 181.708 54.746 181.544 54.1715C180.696 51.0754 179.024 48.48 177.435 45.6815C176.177 43.4649 174.912 41.3094 175.404 38.7745L175.538 38.1863C178.997 37.901 182.63 38.2434 186.168 37.4945C190.128 36.6565 192.605 35.2257 196.729 34.8729Z" fill="url(#paint8_linear_21_230)"/>
<path d="M92.4208 77.6514C94.4627 77.6479 98.9735 77.7021 100.864 77.4312L100.87 77.5854L100.843 78.5284L96.8678 78.724C94.0919 78.9674 92.3533 79.2083 89.7836 80.2567C90.897 81.6761 91.7618 82.2679 91.4232 84.0765C95.2374 86.3774 96.1563 86.4316 100.177 87.8589C95.4844 87.5435 90.3794 87.683 85.3779 87.3573C82.6845 88.3437 78.9458 88.7782 76.0697 89.0221C57.9081 90.5598 26.0679 91.589 17.6373 109.755C8.46963 129.509 4.99875 152.355 6.01187 173.643C6.19495 177.489 6.94923 184.21 7.88466 187.989C8.42189 188.472 9.04453 189.004 9.55754 189.496C9.91481 191.876 9.96142 193.583 10.9244 195.842C11.3309 196.796 14.0141 201.007 14.1796 201.661C14.2327 202.162 14.3261 202.573 14.1823 203.053C13.7133 203.175 13.6808 203.154 13.1857 203.149C12.4435 202.485 10.6728 199.898 10.1277 198.986C1.26014 184.138 0.0710675 165.691 0.00130808 149.072C-0.0200698 143.987 0.217818 137.941 0.919109 132.929C0.946702 132.593 0.976493 132.257 1.00848 131.921C2.09184 120.535 5.43225 105.678 11.9444 95.7123C13.8429 92.8069 17.1905 89.6178 20.0039 87.4435C23.9928 84.4751 27.844 82.6802 32.7497 81.2224C35.3729 80.5479 37.725 79.9261 40.427 79.528C47.8058 78.1485 58.8157 77.3829 66.403 77.6938C74.3535 77.4518 84.3711 77.5415 92.4208 77.6514Z" fill="url(#paint9_linear_21_230)"/>
<path d="M32.4968 90.5372C31.4167 90.2204 29.3791 89.8627 29.2403 88.7236C29.8361 87.7525 31.9583 87.0426 33.1076 86.6809C49.4062 81.554 66.7009 82.2674 83.6408 82.9764C86.6504 83.1026 88.6387 82.8178 91.4232 84.0766C95.2374 86.3774 96.1563 86.4316 100.177 87.859C95.4844 87.5436 90.3794 87.6831 85.3779 87.3574C82.865 86.8573 76.5395 86.6923 73.8183 86.6336C60.3443 86.343 45.3466 86.3784 32.4968 90.5372Z" fill="#9FB2F4"/>
<path d="M33.6713 87.5374C34.2022 87.5881 34.0222 87.5497 34.5098 87.7487L34.6121 88.0768C34.2628 88.6843 33.9729 88.7868 33.3509 89.1632C32.7208 89.0292 32.402 89.0169 32.1871 88.4557C32.5172 87.9162 33.0331 87.8024 33.6713 87.5374Z" fill="#B7A3F7"/>
<path d="M0.919128 132.929C0.946721 132.593 0.976512 132.257 1.0085 131.921C2.09186 120.535 5.43227 105.678 11.9444 95.7124C13.8429 92.807 17.1905 89.6178 20.0039 87.4436L21.2603 89.0744C14.3502 93.2415 11.1321 99.6401 8.43075 106.549C7.05528 110.066 6.31857 111.965 5.47754 115.68C4.6924 119.128 3.98136 122.59 3.3449 126.065C2.9976 127.995 2.70973 129.941 2.33189 131.865C2.17828 132.648 1.63815 132.741 0.919128 132.929Z" fill="#8796F7"/>
<path d="M92.4208 77.6514C94.4627 77.6479 98.9735 77.7021 100.864 77.4312L100.87 77.5854L100.843 78.5284L96.8678 78.724C94.0919 78.9674 92.3533 79.2083 89.7837 80.2567C87.9132 81.1731 85.4427 80.6908 83.3532 80.6622C78.4721 80.5957 73.5022 79.8478 68.6458 79.7138C67.3374 79.5556 66.1807 79.5211 65.5865 78.2599L65.774 77.8943L66.403 77.6938C74.3536 77.4518 84.3712 77.5415 92.4208 77.6514Z" fill="#BEC2F4"/>
<path d="M92.4209 77.6514C94.4627 77.6479 98.9735 77.7021 100.864 77.4312L100.87 77.5854L100.843 78.5284L96.8679 78.724C97.1036 78.7506 91.9772 77.4183 92.4209 77.6514Z" fill="#D7D6E4"/>
<path d="M40.427 79.5281C47.8059 78.1485 58.8157 77.3829 66.403 77.6938L65.774 77.8943L65.5865 78.2599C66.1807 79.5212 67.3374 79.5557 68.6458 79.7138C65.6754 79.766 62.5169 79.6276 59.5792 79.1576C56.5488 78.6728 54.036 79.1778 51.0479 79.4857C48.1364 79.7749 45.2201 80.0198 42.3001 80.2193L42.5101 79.7049L42.1892 79.5084C41.557 79.5409 41.0614 79.5384 40.427 79.5281Z" fill="#8796F7"/>
<path d="M32.7497 81.2224C35.3729 80.5479 37.725 79.9261 40.427 79.528C41.0613 79.5384 41.557 79.5408 42.1892 79.5083L42.5101 79.7049L42.3001 80.2193C38.0058 80.9159 38.2715 81.0859 34.4562 82.7837C33.8389 82.2545 33.3021 81.8146 32.7497 81.2224Z" fill="#8796F7"/>
<path d="M21.3535 92.0213C22.3528 91.7351 22.8468 91.6286 23.8792 91.4675L24.1927 91.6902C23.9537 92.5406 23.9092 92.0366 23.4083 92.7032L25.8391 93.1244C25.447 93.8916 25.3462 94.1891 24.7536 94.8153C21.9643 97.8665 21.4494 99.0707 19.22 102.086C18.2905 102.411 17.842 102.541 17.0072 103.057C16.0707 103.627 14.8293 104.488 13.8029 104.727L13.433 104.607C13.3376 104.137 13.4028 104.099 13.5465 103.624C12.3034 100.483 16.6477 93.5289 20.1512 92.5652C20.3007 92.5214 21.1585 92.1105 21.3535 92.0213Z" fill="#D7D6E4"/>
<path d="M13.5465 103.624C12.3034 100.483 16.6477 93.5289 20.1512 92.5652C16.4688 96.857 15.9309 99.1894 13.5465 103.624Z" fill="#9FB2F4"/>
<path d="M23.4083 92.7031L25.8391 93.1244C25.447 93.8915 25.3462 94.1891 24.7536 94.8153C24.0978 94.328 23.247 93.6363 22.8725 92.948L23.4083 92.7031Z" fill="#BEC2F4"/>
<path d="M21.3535 92.0213C22.3528 91.7351 22.8468 91.6286 23.8792 91.4675L24.1927 91.6902C23.9537 92.5406 23.9092 92.0366 23.4083 92.7032L22.8725 92.9481C22.4889 92.6382 21.8015 92.276 21.3535 92.0213Z" fill="#8796F7"/>
<path d="M17.0072 103.058C17.842 102.541 18.2904 102.411 19.22 102.086C18.8509 103.127 17.9577 106.001 16.3375 105.726C16.4645 104.652 17.7113 104.858 18.0676 103.946C17.8323 103.371 17.7697 103.381 17.0072 103.058Z" fill="#9FB2F4"/>
<path d="M93.8203 161.863C94.2077 161.885 94.6095 161.9 94.9942 161.938C92.6073 164.02 91.7656 165.298 89.7489 167.546L89.5292 168.037C90.0709 168.661 90.0821 168.69 90.3334 169.464C89.0588 172.498 88.9709 172.39 86.4259 173.95C85.7942 175.685 85.3013 177.225 84.7676 178.98C81.7067 190.091 80.8318 204.956 80.9748 216.452L80.9946 218.781C75.5537 218.455 69.666 218.484 64.1774 218.417L64.4211 218.12L64.1715 217.95C63.401 217.445 63.5108 217.549 62.5191 217.545L62.704 217.31C62.8288 215.973 62.787 214.669 62.9424 213.208C63.7455 212.029 65.5099 210.806 66.1308 209.726C69.5915 203.707 71.8354 197.166 75.2028 191.084C75.5071 190.535 75.2628 187.924 75.445 187.157C75.7053 186.06 76.2636 185.074 76.4871 183.976C77.0705 180.16 76.6403 177.657 78.4491 174.115C78.4352 176.264 78.4496 178.413 78.493 180.561C80.7991 177.229 84.7639 170.708 86.2614 167.057C84.5699 168.699 83.0054 171.046 81.5336 172.94C82.2077 170.079 84.3578 166.292 87.3324 164.849C88.1527 164.452 89.1654 164.937 89.9487 165.244C91.6563 164.078 92.4985 163.377 93.8203 161.863Z" fill="#191961"/>
<path d="M62.704 217.31C63.7573 217.445 66.5204 217.227 67.7173 217.214C69.5234 217.194 73.3141 217.666 74.8636 217.166C75.0072 216.887 75.0469 216.797 75.1379 216.476C76.1308 216.315 79.6905 216.44 80.9748 216.452L80.9946 218.78C75.5537 218.454 69.666 218.484 64.1774 218.416L64.4211 218.12L64.1715 217.95C63.401 217.445 63.5108 217.549 62.5191 217.544L62.704 217.31Z" fill="#473E88"/>
<path d="M89.5292 168.037C90.0709 168.661 90.0821 168.69 90.3334 169.464C89.0588 172.498 88.9709 172.39 86.4259 173.95C86.9885 172.244 88.5948 169.563 89.5292 168.037Z" fill="#CE7326"/>
<path d="M84.7676 178.98C84.3803 178.018 84.5297 177.133 84.8802 176.175C85.4776 174.541 87.9459 168.009 89.7488 167.546L89.5292 168.037C88.5948 169.563 86.9885 172.244 86.4259 173.95C85.7942 175.685 85.3013 177.224 84.7676 178.98Z" fill="#010009"/>
<path d="M164.69 144.52C166.574 144.532 167.864 144.449 169.744 144.298C169.848 146.069 169.859 147.52 169.837 149.28C169.063 149.31 167.914 149.316 167.189 149.459C164.519 149.569 160.315 149.895 157.691 150.285C155.799 150.494 152.56 150.704 150.675 150.575C149.591 150.556 148.413 150.585 147.321 150.593C145.256 150.919 140.625 151.086 138.436 151.14C136.371 151.257 134.204 151.349 132.151 151.499L131.164 151.657L125.688 152.11C123.673 152.313 121.66 152.54 119.651 152.792C119.631 151.354 119.591 149.938 119.689 148.501C123.48 147.833 127.445 147.283 131.263 146.73C134.172 146.249 136.192 146.076 139.109 145.958C140.209 145.952 141.732 145.817 142.861 145.746C144.43 145.388 150.771 145.273 152.685 145.24L154.096 145.1L155.793 145.03C158.635 144.492 161.8 144.514 164.69 144.52Z" fill="#FBF0EC"/>
<path d="M155.793 145.03C158.635 144.492 161.8 144.515 164.69 144.52C164.08 144.703 163.842 144.643 163.615 145.22C163.292 146.038 163.462 147.697 163.501 148.583L157.407 148.668C157.436 147.444 157.653 146.282 157.174 145.229C156.57 144.882 156.655 145.006 155.793 145.03Z" fill="#D7D6E4"/>
<path d="M142.861 145.746C144.43 145.388 150.771 145.273 152.685 145.24C151.65 145.416 151.696 145.248 151.089 145.806C150.77 146.639 151.028 147.51 151.01 148.457C148.906 148.492 146.802 148.545 144.698 148.616C144.714 147.565 144.91 146.675 144.312 145.879C143.728 145.686 143.472 145.731 142.861 145.746Z" fill="#D7D6E4"/>
<path d="M125.94 148.623C127.961 148.628 130.109 148.703 132.139 148.745C132.113 149.663 132.137 150.581 132.151 151.499L131.164 151.658L125.688 152.11C126.189 151.539 125.966 149.455 125.94 148.623Z" fill="#D7D6E4"/>
<path d="M131.263 146.73C134.172 146.249 136.192 146.076 139.109 145.958C138.22 146.584 138.433 147.536 138.422 148.52L132.311 148.554C132.217 147.757 132.32 147.452 131.861 146.857L131.263 146.73Z" fill="#D7D6E4"/>
<path d="M138.592 148.71C140.65 148.771 142.526 148.749 144.58 148.714C144.647 149.364 144.613 149.903 145.011 150.421C145.644 150.746 146.559 150.618 147.321 150.593C145.256 150.919 140.625 151.086 138.436 151.14C138.46 150.357 138.538 149.499 138.592 148.71Z" fill="#D7D6E4"/>
<path d="M150.675 150.575C151.018 150.234 151.029 149.631 151.12 149.105C152.136 148.282 155.527 148.65 156.779 149.065C157.36 149.257 157.482 149.821 157.691 150.285C155.799 150.494 152.56 150.704 150.675 150.575Z" fill="#D7D6E4"/>
<path d="M21.0733 208.926C21.7913 207.627 18.5428 205.414 17.9015 204.044L18.0381 203.87C19.3738 204.683 21.6809 208.163 22.8403 208.655C33.2083 213.056 44.0918 215.421 55.6723 215.526C57.4532 217.188 57.3118 216.623 59.3467 217.176L62.5191 217.544C63.5108 217.549 63.401 217.445 64.1714 217.95L64.4211 218.12L64.1773 218.416C52.6531 218.487 35.6853 216.902 25.3109 212.29C21.9536 210.877 19.2924 209.14 16.6049 206.809L17.5066 205.95C18.7351 207.436 19.3792 207.889 21.0733 208.926Z" fill="#473E88"/>
<path d="M26.1611 211.58C34.7911 214.921 42.0874 215.986 51.3769 216.794C53.5982 216.988 57.1484 217.257 59.3467 217.176L62.5191 217.545C63.5108 217.549 63.401 217.445 64.1714 217.95L64.4211 218.12L64.1773 218.417C52.6531 218.488 35.6853 216.902 25.3109 212.29C25.6018 211.992 25.8306 211.836 26.1611 211.58Z" fill="url(#paint10_linear_21_230)"/>
<path d="M16.6049 206.809L17.5066 205.95C18.7351 207.436 19.3792 207.889 21.0733 208.926C22.5178 209.975 24.5066 210.829 26.1611 211.58C25.8306 211.836 25.6018 211.992 25.3109 212.29C21.9536 210.877 19.2924 209.14 16.6049 206.809Z" fill="#7B7087"/>
<path d="M179.304 143.82C180.019 143.804 180.718 143.804 181.426 143.712C181.852 143.841 182.05 143.804 182.182 144.088C182.659 145.113 182.514 147.274 182.499 148.43L177.528 148.852L177.318 148.983C174.518 148.921 170.684 149.475 167.189 149.459C167.914 149.316 169.063 149.31 169.837 149.28C169.859 147.52 169.848 146.069 169.744 144.298C171.362 143.98 176.067 143.99 177.835 143.974L179.304 143.82Z" fill="#D7D6E4"/>
<path d="M179.304 143.82C180.019 143.804 180.718 143.804 181.426 143.712C181.852 143.841 182.05 143.804 182.182 144.088C182.659 145.113 182.514 147.274 182.499 148.43L177.528 148.852C177.02 148.823 176.997 148.859 176.56 148.642C176.164 147.687 176.036 145.104 176.571 144.229L177.835 143.974L179.304 143.82Z" fill="#FBF0EC"/>
<path d="M112.532 150.052C113.465 150.902 113.322 152.498 113.329 153.729L113.33 153.981C110.689 154.582 108.768 154.925 106.299 156.021C105.406 156.337 104.755 156.575 103.886 156.963C102.975 157.399 102.716 157.51 101.732 157.766L101.259 158.043C100.615 157.001 100.414 156.586 99.4503 155.736C99.1342 155.693 98.8256 155.549 98.5202 155.434C99.2162 154.882 99.4353 154.795 100.263 154.388C101.181 153.965 102.102 153.546 103.027 153.132C103.377 153.055 106.295 152.007 106.887 151.812L112.532 150.052Z" fill="#FBF0EC"/>
<path d="M98.5202 155.434C99.2162 154.882 99.4353 154.795 100.263 154.388C100.936 154.7 100.916 154.677 101.627 154.724L102.578 155.115L102.94 155.944L103.886 156.963C102.975 157.399 102.716 157.51 101.732 157.766L101.259 158.043C100.615 157.001 100.414 156.586 99.4503 155.736C99.1342 155.693 98.8256 155.549 98.5202 155.434Z" fill="#807FE6"/>
<path d="M102.94 155.944L103.886 156.963C102.975 157.399 102.716 157.51 101.732 157.766C101.403 157.112 101.258 156.964 101.378 156.343C101.86 155.946 102.279 155.994 102.94 155.944Z" fill="#4C5CDC"/>
<path d="M103.027 153.132C103.377 153.055 106.295 152.007 106.887 151.812L106.898 154.287C105.365 154.257 102.81 154.013 101.627 154.724C100.916 154.677 100.936 154.7 100.263 154.389C101.181 153.965 102.102 153.546 103.027 153.132Z" fill="#D7D6E4"/>
<path d="M102.578 155.115C103.635 155.302 105.461 155.524 106.299 156.021C105.406 156.337 104.755 156.575 103.886 156.963L102.94 155.944L102.578 155.115Z" fill="#D7D6E4"/>
<path d="M134.111 78.6207L134.357 78.6379C135.232 78.6921 135.342 78.7143 136.105 78.603C137.529 78.3951 141.779 79.8263 143.02 80.4594C142.914 80.8132 143.024 80.6875 142.734 80.8649C142.115 80.6062 142.008 80.5166 141.321 80.587C141.22 80.7915 141.117 81.1216 140.936 81.16C136.826 82.0316 127.962 81.4689 124.201 81.0127C122.864 80.8477 121.543 80.5841 120.252 80.2244C119.052 79.9012 119.198 79.8761 118.657 78.9562C121.169 79.0124 123.599 79.0804 126.112 79.0089L131.847 78.802C132.488 78.699 133.436 78.6655 134.111 78.6207Z" fill="#1422AB"/>
<path d="M114.855 75.2488C116.374 75.37 117.892 75.5045 119.408 75.6528C121.735 75.8858 123.991 76.1036 126.307 76.4312C126.122 77.5171 126.056 77.8733 126.112 79.009C123.599 79.0804 121.169 79.0124 118.657 78.9562C117.411 78.9567 116.446 78.9484 115.205 78.8567L113.26 78.8326C113.242 77.8773 112.914 76.0326 113.577 75.4276C113.824 75.2025 114.413 75.2685 114.855 75.2488Z" fill="#D7D6E4"/>
<path d="M114.855 75.2488C116.374 75.37 117.892 75.5045 119.408 75.6528C119.445 76.7712 119.461 77.6738 119.414 78.7922C118.277 78.7951 116.263 78.7508 115.205 78.8567L113.26 78.8326C113.242 77.8773 112.914 76.0326 113.577 75.4276C113.824 75.2025 114.413 75.2685 114.855 75.2488Z" fill="#FBF0EC"/>
<path d="M181.426 143.712C182.402 143.459 187.674 143.181 188.86 143.113C188.724 144.366 188.147 147.208 189.722 147.665C187.327 147.951 184.906 148.273 182.499 148.43C182.514 147.274 182.659 145.113 182.182 144.088C182.05 143.804 181.852 143.841 181.426 143.712Z" fill="#D7D6E4"/>
<path d="M199.807 141.63C201.26 141.712 201.107 141.568 201.781 142.852L201.559 142.902C201.556 143.783 201.559 144.664 201.571 145.545C199.62 145.939 197.013 146.54 195.083 146.788C195.085 145.666 195.266 143.241 194.644 142.47C194.89 142.38 195.936 142.28 196.264 142.242C197.449 142.06 198.631 141.857 199.807 141.63Z" fill="#D7D6E4"/>
<path d="M199.807 141.63C201.26 141.712 201.107 141.568 201.781 142.852L201.559 142.902C200.184 142.848 197.307 142.874 196.264 142.242C197.449 142.06 198.631 141.857 199.807 141.63Z" fill="#FBF0EC"/>
<path d="M112.532 150.052C114.177 149.413 117.913 148.768 119.689 148.501C119.591 149.938 119.631 151.354 119.651 152.792C117.311 153.137 115.551 153.591 113.33 153.981L113.329 153.729C113.322 152.499 113.465 150.902 112.532 150.052Z" fill="#D7D6E4"/>
<path d="M194.644 142.47C195.266 143.242 195.085 145.666 195.083 146.788L189.722 147.665C188.147 147.208 188.724 144.366 188.86 143.113C190.771 143.029 192.745 142.724 194.644 142.47Z" fill="#FBF0EC"/>
<path d="M106.893 74.4668C108.942 74.6501 113.007 74.9166 114.855 75.2487C114.413 75.2684 113.824 75.2024 113.577 75.4275C112.914 76.0326 113.242 77.8772 113.26 78.8325C111.228 78.867 108.892 78.7246 106.84 78.6428C106.964 77.6619 106.976 75.4566 106.893 74.4668Z" fill="#D7D6E4"/>
<path d="M101.938 73.8105C103.473 74.1042 105.318 74.2801 106.893 74.4668C106.977 75.4566 106.964 77.6619 106.84 78.6428C104.842 78.5847 102.843 78.5467 100.843 78.5285L100.87 77.5855C101.728 77.6905 104.123 77.8028 104.808 77.3313C105.005 77.4471 104.946 77.4017 105.023 77.4732C102.95 76.1892 104.131 76.7509 103.413 74.9171C103.291 74.6048 102.149 74.4791 101.736 74.4481L101.056 74.1007L101.938 73.8105Z" fill="#FBF0EC"/>
<path d="M97.3693 156.045C97.754 155.896 98.1569 155.64 98.5202 155.434C98.8256 155.549 99.1342 155.693 99.4503 155.736C100.414 156.586 100.615 157.001 101.259 158.043C100.091 158.757 98.6097 159.716 97.409 160.313C97.0018 159.865 96.5405 159.149 96.189 158.641C95.7904 157.231 96.4788 157.133 97.3693 156.045Z" fill="#473E88"/>
<path d="M97.3693 156.045C97.754 155.896 98.1569 155.64 98.5202 155.434C98.8256 155.549 99.1342 155.693 99.4503 155.736C98.5984 156.044 98.8797 155.788 98.4832 156.434C98.5202 156.961 98.5481 157.488 98.5668 158.015C97.8022 158.247 96.9771 158.536 96.189 158.641C95.7904 157.231 96.4788 157.133 97.3693 156.045Z" fill="#4C5CDC"/>
<path d="M154.096 145.1C159.924 142.972 169.412 143.546 175.805 143.755C177.138 143.799 177.91 143.695 179.304 143.82L177.835 143.974C176.067 143.99 171.363 143.98 169.744 144.298C167.864 144.449 166.574 144.532 164.69 144.52C161.8 144.515 158.635 144.492 155.793 145.03L154.096 145.1Z" fill="#473E88"/>
<path d="M126.307 76.4312C127.972 76.6583 130.687 77.0101 132.268 77.4008C132.174 78.2176 132.323 78.3226 131.847 78.802L126.112 79.0089C126.056 77.8733 126.122 77.517 126.307 76.4312Z" fill="#FBF0EC"/>
<path d="M92.0211 70.6197L94.2612 70.5527C95.8938 72.0865 99.6604 73.0817 101.938 73.8104L101.056 74.1006C98.0407 74.0415 94.3673 72.3909 92.0211 70.6197Z" fill="#807FE6"/>
<path d="M92.6662 155.889C94.2618 155.43 95.9522 155.174 97.5799 154.695C99.3549 154.172 101.197 153.019 103.027 153.132C102.102 153.546 101.181 153.965 100.263 154.389C99.4353 154.795 99.2162 154.882 98.5202 155.434C98.1569 155.641 97.754 155.896 97.3693 156.045C97.5595 155.812 97.6576 155.655 97.8226 155.407L97.6281 155.225C96.3647 155.308 94.6282 155.992 93.4313 156.444C92.6817 157.372 91.4098 159.945 90.447 160.576C91.2249 159.066 91.9498 157.432 92.6662 155.889Z" fill="#191961"/>
<path d="M93.8203 161.863C95.0226 159.978 95.0403 159.254 95.8364 157.261C96.0963 156.61 96.683 156.27 97.3693 156.045C96.4789 157.133 95.7904 157.231 96.189 158.641C96.5405 159.149 97.0018 159.865 97.409 160.313L94.9942 161.938C94.6095 161.9 94.2077 161.884 93.8203 161.863Z" fill="#1422AB"/>
<path d="M14.1796 201.661C15.3325 203.27 16.2727 204.424 17.5066 205.95L16.6049 206.809C15.1585 205.61 14.3113 204.589 13.1857 203.149C13.6809 203.154 13.7133 203.175 14.1824 203.053C14.3261 202.573 14.2327 202.162 14.1796 201.661Z" fill="#4C5CDC"/>
<path d="M95.9607 65.1516C96.5314 65.7694 96.8968 66.0463 97.1207 66.8031C97.0248 67.4658 97.1872 67.2091 96.653 67.6175C95.8814 67.8338 95.2926 67.6702 94.4846 67.553C94.5913 66.5977 95.1989 65.7749 95.9607 65.1516Z" fill="#8796F7"/>
<path d="M141.322 80.5869C142.008 80.5164 142.115 80.6061 142.734 80.8648C143.085 81.2835 146.574 83.2503 147.438 83.8992C145.891 83.3538 141.787 81.9827 141.322 80.5869Z" fill="#BEC2F4"/>
<path d="M132.268 77.4006C132.986 77.5514 135.269 77.9534 135.75 78.2963L135.614 78.457L134.111 78.6205C133.436 78.6654 132.488 78.6989 131.847 78.8018C132.323 78.3225 132.174 78.2175 132.268 77.4006Z" fill="#D7D6E4"/>
<path d="M175.404 38.7745C174.674 38.7401 173.819 38.8031 173.252 38.4937C174.012 38.1843 174.697 38.2237 175.538 38.1863L175.404 38.7745Z" fill="#5782EF"/>
<path d="M122.413 23.4775C127.551 19.2917 135.191 19.0291 140.656 22.8494C145.382 22.3616 148.61 26.8884 148.9 30.8284C149.283 36.047 149.3 41.3133 143.302 43.9974C139.178 45.7401 135.129 47.0467 130.477 47.0294C126.4 46.5368 122.822 47.1265 119.414 44.3901C113.527 39.6628 112.956 28.7532 120.076 24.7226C120.816 24.3038 121.571 23.5115 122.413 23.4775Z" fill="url(#paint11_linear_21_230)"/>
<path d="M140.656 22.8492C145.382 22.3615 148.61 26.8883 148.9 30.8283C149.283 36.0468 149.3 41.3132 143.302 43.9973C139.178 45.74 135.129 47.0466 130.477 47.0293L130.503 46.5396C136.913 47.1348 142.971 43.7396 145.333 38.2285C147.695 32.7173 145.784 26.4345 140.656 22.8492Z" fill="#191961"/>
<path d="M130.477 47.0297C126.4 46.537 122.822 47.1267 119.414 44.3904C113.527 39.663 112.956 28.7535 120.076 24.7228C120.816 24.304 121.571 23.5118 122.413 23.4778C118.136 26.9611 116.506 32.4412 118.26 37.441C120.014 42.4403 124.82 46.0113 130.503 46.54L130.477 47.0297Z" fill="#191961"/>
<path d="M113.146 23.1421C114.449 21.7005 119.412 18.5739 121.34 17.8339C130.061 14.487 144.324 13.2396 149.857 22.102C150.442 23.0317 151.68 24.9177 151.088 25.9105C150.55 25.8819 150.771 25.9785 150.407 25.6055L150.265 24.6162L150.055 24.5265C150.011 25.2981 150.143 26.0524 150.104 26.5879C150.009 27.9 149.799 29.4879 149.6 30.792C148.963 27.0249 149.042 24.1408 145.166 21.6029C141.884 19.4543 138.34 18.7793 134.424 19.3316L134.253 19.1902C134.747 18.6961 135.344 18.4497 136.071 18.4699C139.77 18.6064 144.005 19.7445 146.674 22.2045C148.205 23.6155 149.555 25.3542 149.455 27.3969C149.43 27.8862 149.391 27.8793 149.627 28.2971C150.474 27.6896 149.295 25.0976 149.869 24.1038C150.399 24.4881 150.637 24.9754 150.984 25.5168C151.128 24.6458 149.986 22.8243 149.454 22.0429C142.172 11.3283 121.571 15.3941 113.594 23.0859C113.56 23.6993 113.393 25.236 113.58 25.7164C113.963 25.3424 114.269 25.0936 114.495 24.6541C115.326 23.0445 122.51 18.7498 124.106 19.3178C123.878 19.5814 124.01 19.5662 123.684 19.6312C122.236 19.9184 121.002 20.7348 119.686 21.3822C112.17 25.0803 110.329 31.3182 112.467 38.4952C112.964 40.1639 113.811 42.3071 113.019 43.9029C113.811 45.3406 122.167 48.1853 122.794 49.5875C119.514 50.0231 115.955 48.7598 113.934 46.3309C112.008 44.3995 112.003 44.5946 112.703 41.9568C112.975 40.932 112.23 39.1337 110.662 39.2712L110.126 39.8698C110.027 40.126 109.993 40.0964 109.766 40.3166C109.069 40.2043 109.244 40.1949 108.622 39.6924C108.153 38.2252 108.094 36.6146 108.33 35.0947C109.003 30.7649 108.195 27.1501 112.107 24.0476L113.146 23.1421Z" fill="#4C5CDC"/>
<path d="M113.146 23.1421C113.547 26.21 112.079 27.5999 111.421 30.2245C111.045 31.7267 109.917 38.545 110.112 39.7767L110.126 39.8698C110.027 40.126 109.993 40.0964 109.766 40.3167C109.069 40.2043 109.244 40.195 108.622 39.6924C108.153 38.2252 108.094 36.6146 108.33 35.0947C109.003 30.7649 108.195 27.1501 112.107 24.0476L113.146 23.1421Z" fill="#5782EF"/>
<path d="M112.107 24.0476C112.272 24.7551 112.032 24.8546 111.673 25.5454C110.756 27.3077 110.048 29.1154 109.635 31.0334C109.182 32.8298 110.211 38.6922 109.49 39.8599C109.045 39.8264 109.041 39.8293 108.622 39.6924C108.153 38.2252 108.094 36.6146 108.33 35.0946C109.003 30.7649 108.195 27.1501 112.107 24.0476Z" fill="#807FE6"/>
<path d="M113.934 46.3309C113.757 45.8437 113.42 45.2362 113.573 44.8445C114.361 45.1051 116.04 46.289 117.033 46.8044C118.905 47.7765 120.999 48.5884 122.794 49.5876C119.514 50.0231 115.955 48.7599 113.934 46.3309Z" fill="#BEC2F4"/>
<path d="M101.736 74.448C102.149 74.479 103.291 74.6047 103.413 74.917C104.131 76.7508 102.95 76.1892 105.023 77.4731C104.946 77.4017 105.005 77.447 104.808 77.3312C104.123 77.8027 101.728 77.6904 100.87 77.5854L100.864 77.4312C100.834 75.9788 101.005 75.7305 101.736 74.448Z" fill="#FBF0EC" fill-opacity="0.941176"/>
<path d="M199.798 4.18164C201.101 4.36039 202.604 4.80292 203.886 5.1443L203.363 5.90979L200.643 5.38134C200.322 5.32576 199.696 5.14795 199.355 5.06222C199.724 4.612 199.606 4.75666 199.798 4.18164Z" fill="#B7A3F7"/>
<defs>
<linearGradient id="paint0_linear_21_230" x1="124.823" y1="295.843" x2="253.241" y2="61.7282" gradientUnits="userSpaceOnUse">
<stop stop-color="#DE8A1C"/>
<stop offset="1" stop-color="#F8CD50"/>
</linearGradient>
<linearGradient id="paint1_linear_21_230" x1="147.951" y1="274.948" x2="145.344" y2="294.057" gradientUnits="userSpaceOnUse">
<stop stop-color="#D17513"/>
<stop offset="1" stop-color="#A75426"/>
</linearGradient>
<linearGradient id="paint2_linear_21_230" x1="204.234" y1="211.649" x2="204.032" y2="216.962" gradientUnits="userSpaceOnUse">
<stop stop-color="#E56A0C"/>
<stop offset="1" stop-color="#D24A00"/>
</linearGradient>
<linearGradient id="paint3_linear_21_230" x1="178.319" y1="270.206" x2="191.57" y2="250.134" gradientUnits="userSpaceOnUse">
<stop stop-color="#B3B0CC"/>
<stop offset="1" stop-color="white"/>
</linearGradient>
<linearGradient id="paint4_linear_21_230" x1="193.476" y1="257.41" x2="201.585" y2="257.353" gradientUnits="userSpaceOnUse">
<stop stop-color="#7F1200"/>
<stop offset="1" stop-color="#963E25"/>
</linearGradient>
<linearGradient id="paint5_linear_21_230" x1="188.516" y1="216.327" x2="187.817" y2="223.859" gradientUnits="userSpaceOnUse">
<stop stop-color="#FBDAA5"/>
<stop offset="1" stop-color="#EFC8B3"/>
</linearGradient>
<linearGradient id="paint6_linear_21_230" x1="214.699" y1="109.919" x2="235.446" y2="108.798" gradientUnits="userSpaceOnUse">
<stop stop-color="#6C6AE0"/>
<stop offset="1" stop-color="#A29CF9"/>
</linearGradient>
<linearGradient id="paint7_linear_21_230" x1="229.041" y1="129.913" x2="225.12" y2="129.542" gradientUnits="userSpaceOnUse">
<stop stop-color="#C36815"/>
<stop offset="1" stop-color="#B05007"/>
</linearGradient>
<linearGradient id="paint8_linear_21_230" x1="182.172" y1="74.2158" x2="217.688" y2="67.1319" gradientUnits="userSpaceOnUse">
<stop stop-color="#6878DD"/>
<stop offset="1" stop-color="#7E93ED"/>
</linearGradient>
<linearGradient id="paint9_linear_21_230" x1="66.0388" y1="155.002" x2="11.3906" y2="96.0419" gradientUnits="userSpaceOnUse">
<stop stop-color="#4161E3"/>
<stop offset="1" stop-color="#6193F7"/>
</linearGradient>
<linearGradient id="paint10_linear_21_230" x1="45.8332" y1="211.322" x2="42.91" y2="218.795" gradientUnits="userSpaceOnUse">
<stop stop-color="#786284"/>
<stop offset="1" stop-color="#80798C"/>
</linearGradient>
<linearGradient id="paint11_linear_21_230" x1="128.699" y1="45.8811" x2="134.029" y2="20.5572" gradientUnits="userSpaceOnUse">
<stop stop-color="#C8C9E5"/>
<stop offset="1" stop-color="#F7F6F9"/>
</linearGradient>
</defs>
</svg>
