<svg width="120" height="49" viewBox="0 0 120 49" fill="none" xmlns="http://www.w3.org/2000/svg">
<path d="M0.972867 36.8454L1.09057 36.6855C1.70781 37.1244 2.44964 39.1109 3.90127 40.1939C4.83055 39.827 5.75192 39.7349 6.65426 40.2916C11.0387 43.0039 16.0506 43.7986 20.8121 41.8092C22.359 41.1629 23.9144 40.2042 25.5159 39.8719C26.1005 39.7505 26.5331 40.0556 26.9993 40.349C27.8241 39.6772 28.1704 39.4144 28.8563 38.5421C29.2282 38.0692 29.8338 36.8881 30.1623 36.7106C30.4692 37.1514 30.4125 38.9129 30.2961 39.4727C29.9953 40.9146 29.6783 41.4701 28.8121 42.6462C29.638 43.2104 31.1826 44.0554 31.0127 45.3314C30.8227 45.4702 30.1837 45.6556 29.9425 45.6724C28.4212 45.7781 26.6912 50.495 25.1431 48.3212C24.9848 47.7356 24.9151 47.4376 24.832 46.8365C21.7899 48.1685 19.0139 48.7705 15.72 48.7384C15.2306 48.7338 14.2124 48.7049 13.7579 48.5799C12.0825 48.5917 8.75955 47.7437 7.20979 47.0689C6.82713 46.935 6.77453 46.8272 6.48725 46.9737C5.97717 47.8378 6.36631 49.3986 4.80437 48.8426C2.69793 47.2759 2.71836 45.5526 0.00453482 45.4539C0.654093 44.0425 1.06743 43.3487 2.46399 42.7914C2.26818 42.5474 2.08195 42.2942 1.90575 42.0326C0.749776 40.2872 0.69671 38.8772 0.972867 36.8454Z" fill="#DF1D1C"/>
<path d="M0.972867 36.8454L1.09057 36.6855C1.70781 37.1244 2.44964 39.1109 3.90127 40.1939C4.83055 39.827 5.75192 39.7349 6.65426 40.2916C11.0387 43.0039 16.0506 43.7986 20.8121 41.8092C22.359 41.1629 23.9144 40.2042 25.5159 39.8719C26.1005 39.7505 26.5331 40.0556 26.9993 40.349C27.8241 39.6772 28.1704 39.4144 28.8563 38.5421C29.2282 38.0692 29.8338 36.8881 30.1623 36.7106C30.4692 37.1514 30.4125 38.9129 30.2961 39.4727C29.9953 40.9146 29.6783 41.4701 28.8121 42.6462C29.638 43.2104 31.1826 44.0554 31.0127 45.3314C30.8227 45.4702 30.1837 45.6556 29.9425 45.6724C28.4212 45.7781 26.6912 50.495 25.1431 48.3212C24.9848 47.7356 24.9151 47.4376 24.832 46.8365C21.7899 48.1685 19.0139 48.7705 15.72 48.7384C15.2306 48.7338 14.2124 48.7049 13.7579 48.5799C17.4595 48.6 20.4098 48.3763 23.9405 46.8521C25.2876 46.2704 26.5317 45.5219 27.9086 45.0437C26.691 39.9176 27.0004 38.9966 22.2005 41.4771C20.8024 42.1996 19.1494 42.6534 17.632 42.9092C14.4103 43.4523 11.3567 42.9409 8.39135 41.4486C7.24881 40.8738 5.82003 40.1246 4.54885 40.0711C3.96665 40.6628 3.38415 43.9858 3.18011 44.9807C4.45059 45.3383 6.13819 46.2533 7.20979 47.0689C6.82713 46.935 6.77453 46.8272 6.48725 46.9737C5.97717 47.8378 6.36631 49.3986 4.80437 48.8426C2.69793 47.2759 2.71836 45.5526 0.00453482 45.4539C0.654093 44.0425 1.06743 43.3487 2.46399 42.7914C2.26818 42.5474 2.08195 42.2942 1.90575 42.0326C0.749776 40.2872 0.69671 38.8772 0.972867 36.8454Z" fill="#5D1212"/>
<path d="M30.1165 36.8728C30.2968 37.8675 30.2862 38.4516 30.2961 39.4727C29.9953 40.9146 29.6783 41.4701 28.8121 42.6462C29.638 43.2104 31.1826 44.0554 31.0127 45.3314C30.8227 45.4702 30.1837 45.6556 29.9425 45.6724C28.4212 45.7781 26.6912 50.495 25.1431 48.3212C26.3456 45.1804 29.9095 49.7315 26.953 40.639C28.5527 39.5293 29.1626 38.5868 30.1165 36.8728Z" fill="#DF1D1C"/>
<path d="M0.972867 36.8454C2.26244 38.6457 2.12481 39.082 4.00111 40.4857C3.69437 41.7262 2.77481 44.9466 2.97699 46.0995C3.77178 46.9555 5.91684 47.2762 5.97154 48.3717C5.70619 48.7279 5.20326 48.8309 4.80437 48.8426C2.69793 47.2759 2.71836 45.5526 0.00453454 45.4539C0.654093 44.0425 1.06743 43.3487 2.46399 42.7914C2.26818 42.5474 2.08195 42.2942 1.90575 42.0326C0.749776 40.2872 0.69671 38.8772 0.972867 36.8454Z" fill="#DF1D1C"/>
<path d="M3.26188 45.3002C4.10887 45.499 5.34598 45.9002 5.95209 46.6093C6.23382 46.939 6.16886 47.0956 6.15601 47.4942C5.27375 47.0291 3.87122 46.8427 3.27165 46.0883C3.10663 45.8807 3.21252 45.559 3.26188 45.3002Z" fill="#DF1D1C"/>
<path d="M27.6549 45.3656C27.7274 45.3914 27.8864 45.5157 27.9599 45.5682C28.3547 46.5118 25.9455 47.0682 25.3354 47.3343C25.2369 47.377 25.1226 47.3585 25.0088 47.3564L25.1951 47.3938L25.0461 47.1961L25.0858 46.9064C25.5927 46.1325 26.8579 45.6665 27.6549 45.3656Z" fill="#DF1D1C"/>
<path d="M20.541 44.7112C20.7807 45.0372 20.9515 45.3737 20.8321 45.7918C20.4371 45.7582 20.7136 45.4114 20.254 45.2362C20.038 45.4971 20.0666 45.656 19.9876 46.0437C19.6602 45.9597 19.8278 45.5442 19.4446 45.3412C19.3659 45.6202 19.3149 45.7877 19.2065 46.0539C19.0306 45.9441 19.001 45.6776 18.9148 45.4125C18.6129 45.371 18.6977 45.9456 18.3306 46.2555C17.962 45.9756 17.9266 45.5613 18.1697 45.1569C18.2939 45.2949 18.3626 45.3837 18.4733 45.5308L18.5207 45.2126C18.8444 44.8305 19.6223 45.1448 20.541 44.7112Z" fill="#DDC1C9"/>
<path d="M12.5974 45.0719C13.0713 45.5021 12.6742 45.3374 12.9597 45.9525C13.3464 45.9163 13.0412 45.5486 13.404 45.1846L13.5684 45.2781C13.5272 45.6635 13.5254 45.7397 13.37 46.0843C13.0822 46.3359 13.2143 46.2915 12.8774 46.2762C12.4674 45.9079 12.5458 45.5989 12.5974 45.0719Z" fill="#ECECF0"/>
<path d="M11.5432 30.1286C11.6326 30.1562 11.7211 30.1869 11.8086 30.2211C13.4392 30.8527 11.6386 34.2446 12.7582 34.5023C13.9414 33.8402 12.6594 30.6897 13.9178 30.0943C14.967 30.4173 14.7153 32.0833 14.6183 32.9458C14.5399 33.692 14.4847 35.1767 13.9562 35.7008C13.5145 36.1392 13.0985 35.585 12.536 35.4909C11.9032 35.3753 11.2612 35.568 10.6239 35.5146C10.2494 35.4832 9.71361 35.0413 9.89817 34.5617C10.1558 33.8924 10.5115 33.7134 11.0879 33.4633L11.0943 33.4079C11.2397 32.0497 11.0914 32.0859 11.0018 30.79C10.9827 30.5139 11.3356 30.3002 11.5432 30.1286Z" fill="white"/>
<path d="M42.2513 23.1189C43.0863 23.0945 43.8049 23.1064 44.6401 23.1378C44.6985 25.1943 44.2183 31.1675 45.3732 32.058C50.3746 35.9143 49.1322 24.3536 49.1237 23.1578L51.5486 23.1529L51.5518 25.6986L51.5644 29.0716C51.5552 31.7072 51.0807 34.3348 48.31 34.936C46.7916 35.2836 44.3778 35.0629 43.34 33.6361C41.5935 31.2348 42.144 25.9742 42.2513 23.1189Z" fill="#FAFAFA"/>
<path d="M18.3527 30.069C19.2172 30.035 20.6591 30.0058 20.7458 31.3859C20.8094 32.3947 20.1254 33.1155 19.56 33.8217C19.9268 33.6308 20.3575 33.3375 20.761 33.5456C21.8131 34.0878 22.2296 36.2767 21.7515 37.3439C21.4564 37.5536 21.5892 37.5236 21.2553 37.4674C20.7503 37.0607 20.4659 35.6067 20.2397 34.8871C19.9683 34.859 19.7251 35.0518 19.44 35.1986C19.0966 35.4237 18.0469 36.1535 17.6896 35.7002C16.5358 34.236 19.5362 32.9182 19.3404 31.3376C19.0758 31.0561 18.7448 31.0088 18.4029 31.1446C18.272 31.5702 18.5548 31.7875 18.5717 32.4754C18.334 33.0547 17.9321 33.2581 17.3625 33.0668C16.7784 32.6214 16.7782 31.9126 17.0084 31.2392C17.2367 30.5711 17.8034 30.34 18.3527 30.069Z" fill="white"/>
<path d="M13.5072 21.6891L13.4166 21.6065C12.7031 18.7303 13.8873 17.2988 14.4116 14.5788C14.5162 14.1904 14.2977 12.3157 14.4155 12.0906C16.3137 8.46605 13.7612 3.1967 15.3329 0.00355321C15.9596 1.28163 15.9418 1.64603 15.7469 3.09729C15.7088 3.57541 15.6746 4.05389 15.6441 4.53271C15.5891 6.51662 15.2016 8.99044 15.7442 10.8954C15.9605 11.6552 17.7767 14.3535 18.2621 15.226C20.3974 19.0634 22.7853 22.9613 24.8058 26.8658C24.7934 27.3268 24.8128 28.0974 24.669 28.4961L24.5418 28.4989C23.4166 27.8005 22.8443 26.9337 22.3746 25.6206C21.9795 24.9934 21.621 23.9703 21.2786 23.3144C19.8424 20.5632 17.7589 14.372 16.044 12.1923L15.9682 12.2257L15.9658 12.5782C16.3927 15.0475 17.0195 17.1778 17.5204 19.6101C17.7458 20.7051 16.984 21.2773 16.9261 22.2339C16.924 22.2576 17.5315 22.6908 17.5967 22.736L17.6152 22.9161C17.4943 23.0667 17.432 23.1711 17.2653 23.2553C16.1796 23.2706 15.0937 23.2645 14.0083 23.2369L13.4521 23.3124C13.1859 23.0749 13.1293 23.1066 13.05 22.7887C13.2587 22.5067 13.5657 22.4608 13.899 22.3521L13.8057 21.934L13.5072 21.6891Z" fill="#463C2D"/>
<path d="M14.7575 12.1832L15.9682 12.2257L15.9658 12.5782C15.901 14.7135 16.8957 17.1653 17.1951 19.6742C15.9453 19.6695 14.6955 19.6555 13.4457 19.6319C13.9355 16.6022 14.5003 15.5095 14.7575 12.1832Z" fill="#F5A61B"/>
<path d="M18.2056 15.6345C18.905 16.7058 19.5851 17.8775 20.2061 19.0175C21.6211 21.6149 23.2833 24.118 24.5224 26.8185C24.6977 27.2007 24.5874 28.0719 24.5418 28.499C23.4166 27.8005 22.8443 26.9337 22.3746 25.6206C22.1203 24.6496 21.6123 23.6638 21.2371 22.7416C20.3467 20.5528 18.9014 17.8579 18.2056 15.6345Z" fill="#F5A61B"/>
<path d="M15.3677 6.03741C15.1293 5.07216 14.6271 1.2962 15.2953 0.647826C15.6895 1.14007 15.6412 2.37355 15.7469 3.09729C15.7088 3.57542 15.6746 4.05389 15.6441 4.53271C15.5246 4.87824 15.4288 5.64247 15.3677 6.03741Z" fill="#F5A61B"/>
<path d="M13.8057 21.934C14.3665 21.9257 15.5842 21.971 16.055 21.7904L16.3961 22.1942C16.1971 22.7792 14.3251 22.5438 13.8991 22.3521L13.8057 21.934Z" fill="#6C5021"/>
<path d="M14.0083 23.2369L13.6548 23.0734C14.2334 22.7834 16.4297 22.8391 17.0396 23.0041C17.1035 23.0716 17.2171 23.1819 17.2653 23.2553C16.1796 23.2706 15.0937 23.2645 14.0083 23.2369Z" fill="#F5A61B"/>
<path d="M13.5072 21.6891C14.0654 21.6545 15.5751 21.4907 16.0254 21.7429L16.055 21.7904C15.5842 21.971 14.3665 21.9257 13.8057 21.934L13.5072 21.6891Z" fill="#9E701D"/>
<path d="M13.2399 19.8794L17.4224 19.8819L17.1451 21.3044C16.3395 21.5282 14.4645 21.4424 13.561 21.4272C13.4405 20.9281 13.3414 20.3866 13.2399 19.8794Z" fill="#F5A61B"/>
<path d="M15.2817 9.69561C15.7187 10.0073 15.6572 11.4183 15.3279 11.8559C14.7226 11.1125 15.0073 10.5628 15.2817 9.69561Z" fill="#F5A61B"/>
<path d="M80.2585 25.9447C80.3073 25.9407 80.3562 25.9374 80.4053 25.9351C83.5306 25.7812 84.4815 28.2887 84.5548 31.2773C83.7803 31.2953 79.2904 31.1284 78.9146 31.5079C79.2688 33.9577 82.6143 32.6755 83.867 32.2144C83.9325 32.8611 83.9041 33.6322 83.8973 34.292C82.1953 35.2396 79.8292 35.5052 78.1845 34.2782C77.2658 33.5939 76.6375 32.5285 76.4425 31.3248C75.9505 28.376 77.7263 26.3959 80.2585 25.9447ZM81.3138 29.8118C81.6476 29.8084 81.9053 29.8461 82.179 29.6317C82.6531 28.5593 80.8226 28.0025 80.0613 28.0393C79.611 28.3198 79.1164 28.587 78.9105 29.1288C79.0525 30.0878 80.635 29.8335 81.3138 29.8118Z" fill="#FAFAFA"/>
<path d="M110.526 26.1812L113.006 26.1623L114.992 32.0948C115.654 30.3399 116.352 28.029 116.956 26.2061C117.748 26.1788 118.62 26.195 119.42 26.1913C118.864 28.1057 117.551 31.2047 116.837 33.2687C115.618 36.8694 114.889 39.5494 110.856 38.1583C110.956 37.5609 111.164 36.7783 111.307 36.1759C112.732 36.5121 113.134 36.5854 113.831 35.0846C112.827 32.1633 111.573 29.1577 110.526 26.1812Z" fill="#FAFAFA"/>
<path d="M3.01737 21.6109C3.50802 19.0864 3.994 18.4943 5.76726 16.9626C5.54828 17.939 5.39219 18.4596 5.04362 19.3793C4.82868 19.7427 4.57785 20.1931 4.33582 20.524C3.89669 21.0074 3.53347 21.3364 3.05818 21.766L2.98717 23.1384C3.39898 22.3184 3.8355 21.3505 4.40624 20.6722C4.67179 20.4048 5.08776 20.0611 5.37888 19.8049L5.8014 19.5267L5.9319 19.5985C5.98381 20.4733 4.74771 22.259 4.27285 22.9519L5.35774 22.1955C5.17159 22.9473 4.48589 24.4087 4.4223 24.9392C4.08608 27.7445 4.23099 28.9514 2.50725 31.3037C2.60854 32.0241 3.12874 33.9414 2.87526 34.4156C2.73452 34.3955 2.61211 34.3793 2.47355 34.3415L2.384 34.3164C3.62405 35.6689 4.13286 36.8572 4.83876 38.6088C2.28943 37.9326 1.13115 35.5891 0.558223 32.9541C1.27544 33.3465 1.47585 33.4893 2.10009 34.0097C0.523065 31.6485 0.542057 30.4388 0.44294 27.6852C0.675501 28.0025 0.98926 28.3611 1.24388 28.6676C0.516892 26.179 0.464379 25.0611 1.17642 22.5508C2.03381 24.4747 2.34724 26.9935 2.30285 29.121C2.30006 29.2528 2.02747 29.7229 1.95283 29.8527C1.98484 30.2537 2.25591 30.7202 2.43737 31.0882C2.4058 28.9181 2.5473 28.3532 3.28536 26.3539L2.39572 27.4204L2.58136 25.8702L2.58462 25.9693C1.28471 23.7013 1.59478 21.4318 2.71938 19.1882C2.87266 20.0077 2.93719 20.7806 3.01737 21.6109Z" fill="#088427"/>
<path d="M57.9516 26.0083C58.2425 25.9921 58.534 25.9873 58.8254 25.9939C62.6556 26.1106 61.8219 32.0802 61.728 34.9181L59.388 34.9105C59.3951 33.3337 59.49 31.6427 59.3691 30.083C59.2432 28.4581 58.3364 28.1943 57.0839 28.4758C55.8048 29.63 56.1577 33.1985 56.1931 34.9069L53.8691 34.9033L53.8733 26.091C54.3393 26.0764 55.5135 25.986 55.9533 26.17C56.0743 26.2207 56.1296 26.6923 56.1738 26.9003C56.3295 26.9071 57.5113 26.1796 57.9516 26.0083Z" fill="#FAFAFA"/>
<path d="M94.5936 26.0792C96.3607 25.984 96.9509 26.0567 98.6225 26.5884L98.2532 28.5708C97.4997 28.3021 94.5594 27.3792 94.4189 28.7805C95.1473 29.7338 98.7381 29.5033 99.0176 31.7993C99.2789 33.9473 97.9523 34.7451 96.2822 35.0974C94.4427 35.1473 93.9048 35.1101 92.1422 34.4103L92.3685 32.2909C93.0287 32.5726 96.5545 34.0695 96.6273 32.3871C95.9149 31.3655 92.4873 31.4922 92.1413 29.4208C91.7941 27.343 93.0298 26.5772 94.5936 26.0792Z" fill="#FAFAFA"/>
<path d="M67.3351 26.118L69.7936 26.1103C70.4093 28.0526 71.0399 29.9891 71.6853 31.9197C72.358 30.1359 73.0053 27.969 73.5766 26.1391C74.3953 26.1273 75.2142 26.1247 76.0329 26.1312C75.8474 26.7863 75.5384 27.6301 75.3152 28.2879L72.9412 34.9226C72.1382 34.9481 71.2518 34.9259 70.4421 34.9243C69.3579 32.0099 68.3221 29.0741 67.3351 26.118Z" fill="#FAFAFA"/>
<path d="M105.608 23.8623C106.278 23.8249 107.215 23.8667 107.905 23.8762L107.972 26.217L110.003 26.1788L110.01 28.3181L107.923 28.3169C107.931 29.5528 107.51 31.8445 108.389 32.7182C108.742 33.0687 109.416 32.9088 109.871 32.8498L110.153 34.4302C110.024 35.1189 109.397 35.1318 108.843 35.1667C104.85 35.4185 105.512 31.4155 105.595 28.3555L104.26 28.3175L104.268 26.2016L105.658 26.2028C105.602 25.5988 105.615 24.4996 105.608 23.8623Z" fill="#FAFAFA"/>
<path d="M14.0083 23.2369C15.0937 23.2645 16.1796 23.2706 17.2653 23.2553C17.128 23.6782 17.1252 23.5263 17.1884 23.9078C17.5317 24.1645 17.8358 24.1553 18.2624 24.0957L18.4038 24.2101C18.4865 25.8847 19.2195 25.2211 19.1826 27.0415L19.1088 27.485C18.8181 27.5257 18.4441 27.5641 18.1656 27.6381C17.9018 27.4898 17.6577 27.5169 17.3561 27.5088C16.8576 27.7723 16.059 28.1652 15.6007 28.4513C14.8385 28.0876 14.187 27.8728 13.4717 27.5499C12.9425 27.3741 12.3694 27.6579 11.5338 27.2405C11.5077 26.744 11.5311 26.6493 11.6327 26.1649L11.804 25.6618C12.6399 24.6691 12.1639 24.4711 12.455 23.9531C12.9171 24.1174 13.0156 24.1516 13.4828 24.0011C13.5166 23.7007 13.4934 23.6167 13.4521 23.3124L14.0083 23.2369Z" fill="#463C2D"/>
<path d="M14.0083 23.2369C15.0937 23.2645 16.1796 23.2706 17.2653 23.2553C17.128 23.6782 17.1252 23.5263 17.1884 23.9078C17.5318 24.1645 17.8358 24.1553 18.2624 24.0957L18.4038 24.2101L18.3058 24.2807L18.1153 24.4042C17.6283 24.7188 17.7191 24.7282 17.1474 24.7103C16.1414 24.6616 15.135 24.6226 14.1282 24.5934L13.7686 24.2378L13.654 24.188L13.9991 24.0011L13.4828 24.0011C13.5166 23.7007 13.4934 23.6167 13.4521 23.3124L14.0083 23.2369Z" fill="#35322C"/>
<path d="M13.9991 24.0011C14.8166 24.0148 16.3834 23.8066 17.0264 24.1281L17.1354 24.3657L17.1474 24.7103C16.1414 24.6616 15.135 24.6226 14.1282 24.5934L13.7686 24.2378L13.654 24.188L13.9991 24.0011Z" fill="#F5A61B"/>
<path d="M13.7686 24.2378C14.2583 24.352 16.7668 24.5236 17.1354 24.3657L17.1474 24.7103C16.1414 24.6616 15.135 24.6226 14.1282 24.5934L13.7686 24.2378Z" fill="#6C5021"/>
<path d="M17.1474 24.7103C17.7191 24.7282 17.6283 24.7188 18.1153 24.4042L18.3058 24.2807C18.2668 24.7149 18.331 24.8888 18.0998 25.116C17.0142 25.3527 13.7611 25.318 12.7049 24.9456L12.6591 24.8154C13.1445 24.5995 13.6041 24.5957 14.1282 24.5934C15.135 24.6226 16.1414 24.6616 17.1474 24.7103Z" fill="#F5A61B"/>
<path d="M13.4717 27.5499C14.587 27.34 16.2329 27.3989 17.3561 27.5088C16.8576 27.7723 16.059 28.1652 15.6007 28.4513C14.8385 28.0876 14.187 27.8728 13.4717 27.5499Z" fill="#F5A61B"/>
<path d="M11.804 25.6618C12.1691 25.8965 12.3214 25.9595 12.5483 26.3539C12.5933 26.7291 12.6254 26.5905 12.4451 26.8804C12.0877 26.9499 12.233 26.9688 11.8972 26.8035C11.7062 26.5393 11.6962 26.4967 11.6327 26.1649L11.804 25.6618Z" fill="#F5A61B"/>
<path d="M13.4666 25.7503C13.9313 25.8898 14.1629 26.0209 14.3237 26.5301C14.1762 26.9016 14.2732 26.7736 13.9291 26.9978C13.4763 26.9575 13.2484 27.001 13.0145 26.5425C13.0436 26.1698 13.2321 26.0167 13.4666 25.7503Z" fill="#F5A61B"/>
<path d="M14.7617 25.897C15.1429 25.9089 15.375 25.8866 15.7176 26.0722C15.9919 26.3457 15.9802 26.5501 16.0279 26.9481C15.636 26.949 15.1541 27.0067 14.8457 26.7729C14.6537 26.3586 14.7199 26.427 14.7617 25.897Z" fill="#F5A61B"/>
<path d="M16.7002 25.8814C17.1131 25.9023 17.3514 25.9181 17.6359 26.2498C17.7155 26.6952 17.7253 26.5088 17.565 26.9627C17.0858 26.9656 16.8376 27.0056 16.4836 26.6691C16.462 26.2002 16.4677 26.3378 16.7002 25.8814Z" fill="#F5A61B"/>
<path d="M18.3445 26.0221C18.4858 25.8934 18.6807 25.8638 18.8482 25.9453C19.0157 26.027 19.1271 26.2059 19.1361 26.4076C19.145 26.6095 19.0501 26.7995 18.8907 26.8989C18.6722 27.0349 18.3957 26.9644 18.2537 26.7363C18.1117 26.5082 18.1511 26.1981 18.3445 26.0221Z" fill="#F5A61B"/>
<path d="M90.2399 26.0545C90.334 26.047 90.4282 26.0412 90.5224 26.0372C91.634 25.9943 91.3385 27.4768 91.3067 28.3316C91.1918 28.3318 91.077 28.333 90.9621 28.3352C87.6029 28.4042 88.3397 32.3048 88.4511 34.9592L86.2567 34.9572C86.0168 34.6174 86.1527 27.2027 86.159 26.1723L88.3746 26.1559L88.4863 27.315C89.1387 26.5581 89.3448 26.3819 90.2399 26.0545Z" fill="#FAFAFA"/>
<path d="M27.9168 23.6314C27.8366 21.6971 27.9527 20.7518 28.01 18.9262C28.9735 21.0134 29.1234 21.7338 29.1964 24.0455L29.6223 22.599C29.8123 23.1377 30.1061 23.9109 30.1032 24.4812C29.8466 26.573 29.8477 28.2983 28.7483 30.2408C28.6075 29.2203 28.6647 26.8537 28.6537 25.715C28.4975 25.5747 28.59 25.626 28.3476 25.6156C28.2226 25.9402 28.3562 26.583 28.3834 27.0164L28.2855 27.1341L28.0599 26.9466C27.9264 27.2865 28.0587 27.5964 28.1599 27.9522C27.5128 26.8472 27.4273 26.5566 26.6375 25.5484C26.6238 25.0374 26.0247 23.8231 25.7913 23.2676C25.5687 22.7581 25.5342 22.6417 25.4242 22.0887L26.894 23.2247C26.495 22.7218 26.0958 22.2586 25.6789 21.7753C25.2365 20.9307 24.8567 20.1827 24.5848 19.2421C26.4668 20.5575 27.1659 21.2203 27.9168 23.6314Z" fill="#088427"/>
<path d="M25.7913 23.2676L25.9534 23.2586C26.2959 23.8214 27.9992 26.5405 28.0599 26.9467C27.9264 27.2865 28.0587 27.5964 28.1599 27.9522C27.5128 26.8472 27.4273 26.5566 26.6375 25.5484C26.6238 25.0374 26.0247 23.8231 25.7913 23.2676Z" fill="#FAFAFA"/>
<path d="M19.1088 27.485L19.1826 27.0415C22.4337 27.0604 22.1862 27.4261 22.9885 30.8073C23.2023 31.7084 24.5734 38.1337 24.9023 38.1711L25.2004 39.0718C24.7246 38.824 24.6138 38.7633 24.0994 38.6767L24.1551 38.7829C24.5482 38.9405 24.6233 38.8877 24.8399 39.2095C24.503 39.6877 22.2539 39.7542 21.6501 39.8085C20.1393 40.1352 18.8291 40.4443 17.5482 41.4078C17.3767 41.1606 16.9602 40.5315 16.785 40.3383L16.8962 40.0918C17.0787 40.1502 17.3168 40.1946 17.4995 40.1249C19.2758 39.4464 20.8279 38.9375 22.6934 38.6211L22.7732 38.4781C22.9853 38.1922 23.0576 38.167 23.3614 38.0023L22.9359 37.7593C22.8971 36.3647 22.357 34.9716 22.3424 34.0411L22.5 34.0942C22.5293 32.9959 22.0523 32.5139 22.0987 31.1658C21.9007 30.0984 21.7364 29.1587 21.3443 28.1553L21.0426 28.0333C20.9803 28.2685 21.0335 28.2482 21.1702 28.5486L20.9552 29.4085C20.7566 28.6137 20.6267 28.0994 20.519 27.2806C20.0682 27.3158 19.5606 27.4118 19.1088 27.485ZM17.8601 40.6603C19.0385 40.1421 19.6167 39.9071 20.8643 39.6345L20.8948 39.5075L20.8719 39.4848C20.1811 39.6118 18.2076 39.9377 17.775 40.4776C17.797 40.5324 17.8259 40.6275 17.8601 40.6603Z" fill="#4673AA"/>
<path d="M22.0987 31.1658C22.3073 32.0242 23.5119 37.0683 23.8128 37.4341L23.7497 37.6399C23.9678 38.0069 23.8565 38.0966 24.0906 38.5313L24.005 38.6002L24.0994 38.6767L24.1551 38.7829C24.5482 38.9405 24.6233 38.8877 24.8399 39.2095C24.503 39.6877 22.2539 39.7542 21.6501 39.8085C20.1393 40.1352 18.8291 40.4443 17.5483 41.4078C17.3767 41.1606 16.9602 40.5315 16.785 40.3383L16.8962 40.0918C17.0787 40.1502 17.3168 40.1946 17.4995 40.1249C19.2758 39.4464 20.8279 38.9375 22.6935 38.6211L22.7732 38.4781C22.9853 38.1922 23.0576 38.167 23.3614 38.0023L22.9359 37.7593C22.8971 36.3647 22.357 34.9716 22.3425 34.0411L22.5 34.0942C22.5293 32.9959 22.0523 32.5139 22.0987 31.1658ZM17.8601 40.6603C19.0385 40.1421 19.6167 39.9071 20.8643 39.6345L20.8948 39.5075L20.8719 39.4848C20.1811 39.6118 18.2076 39.9377 17.775 40.4776C17.797 40.5324 17.8259 40.6276 17.8601 40.6603Z" fill="#5682B8"/>
<path d="M24.1551 38.7829C24.5482 38.9405 24.6233 38.8877 24.8399 39.2095C24.503 39.6876 22.2539 39.7542 21.6501 39.8085C22.2943 38.9444 23.4237 39.5326 24.1551 38.7829Z" fill="#4673AA"/>
<path d="M22.3425 34.0411L22.5 34.0942C22.6702 34.7873 23.3061 37.4125 23.3614 38.0023L22.9359 37.7593C22.8971 36.3647 22.357 34.9716 22.3425 34.0411Z" fill="#CCD1E0"/>
<path d="M20.8719 39.4848L20.8948 39.5075L20.8643 39.6345C19.6167 39.9071 19.0385 40.1421 17.8601 40.6603C17.8259 40.6276 17.797 40.5324 17.775 40.4777C18.2076 39.9377 20.1811 39.6118 20.8719 39.4848Z" fill="#ECECF0" fill-opacity="0.054902"/>
<path d="M21.3443 28.1553L21.4555 27.92C21.8004 28.3866 23.7768 36.5973 23.8128 37.4341C23.5119 37.0683 22.3073 32.0242 22.0987 31.1658C21.9007 30.0984 21.7364 29.1588 21.3443 28.1553Z" fill="#ECECF0"/>
<path d="M100.617 26.1889L102.946 26.1949C102.978 29.0932 102.946 32.068 102.945 34.9722L100.601 34.9749L100.617 26.1889Z" fill="#FAFAFA"/>
<path d="M63.8897 26.1165C64.6277 26.1478 65.4713 26.1203 66.2185 26.113L66.1977 34.9178L63.8735 34.9259L63.8897 26.1165Z" fill="#FAFAFA"/>
<path d="M30.1032 24.4812C30.327 25.7697 30.1315 26.7884 29.974 28.0713L30.0401 28.1179C30.1664 27.9676 30.3197 27.7367 30.4713 27.6807C30.7193 29.3896 30.0675 32.0767 29.2962 33.6359C29.6729 33.3823 30.0983 33.0799 30.4863 32.8625C30.3177 33.4175 30.1484 34.0107 29.965 34.5564C28.9513 37.1029 28.3696 37.8085 26.0003 38.9103C26.1914 38.4428 26.6607 37.2289 26.8791 36.8468C27.0855 36.3704 27.5841 35.5728 27.8603 35.1027C27.7777 34.4226 28.0176 33.7356 28.1984 33.0818C28.1873 32.8084 28.3871 31.7654 28.4434 31.4377C28.2559 31.2075 28.0452 30.8716 27.8747 30.6163C28.0648 30.5465 28.2542 30.4482 28.4392 30.3599C28.4634 30.5813 28.4536 30.6406 28.5849 30.8141C28.7749 30.5707 28.7144 30.6307 28.7484 30.2408C29.8477 28.2983 29.8466 26.573 30.1032 24.4812Z" fill="#FAFAFA"/>
<path d="M26.8791 36.8468C27.3411 36.6766 28.9966 33.7206 29.9363 33.6102C30.099 33.9545 30.0101 34.1055 29.965 34.5564C28.9513 37.1029 28.3696 37.8085 26.0003 38.9103C26.1914 38.4428 26.6607 37.2289 26.8791 36.8468Z" fill="#088427"/>
<path d="M28.1984 33.0818C28.4292 32.8797 28.4096 32.5327 28.4584 32.2112C28.6811 30.7464 29.665 29.4903 30.2786 28.2092C30.2061 30.2026 30.2247 31.7646 29.0367 33.4042C28.7169 33.8457 28.0734 34.6684 27.8603 35.1027C27.7777 34.4225 28.0176 33.7356 28.1984 33.0818Z" fill="#088427"/>
<path d="M14.2306 12.4289C12.3465 17.1692 10.1586 21.8048 8.20995 26.5169C7.68748 27.7806 7.17428 28.0767 6.12201 28.7549C6.17919 27.3511 6.13449 26.7488 6.95328 25.6193L6.98313 25.5515C7.51082 24.1819 9.12755 21.3665 9.89951 19.967C11.2353 17.5451 12.6813 14.6103 14.2306 12.4289Z" fill="#F5A61B"/>
<path d="M14.2306 12.4289C12.3465 17.1692 10.1586 21.8048 8.20995 26.5169C7.68748 27.7806 7.17428 28.0767 6.12201 28.7549C6.17919 27.3511 6.13449 26.7488 6.95328 25.6193C6.75559 26.7071 6.32132 26.3031 6.43259 28.242L7.52665 27.5578C8.63884 25.1335 9.70681 22.6849 10.7295 20.2133C11.2304 19.014 12.0918 17.0411 12.4186 15.8116C11.0414 17.9462 9.79804 20.6962 8.50924 22.94C8.13558 23.5907 7.42694 25.0236 6.98313 25.5515C7.51082 24.1819 9.12755 21.3665 9.89951 19.967C11.2353 17.5451 12.6813 14.6103 14.2306 12.4289Z" fill="#463C2D"/>
<path d="M6.52221 39.0371C6.8129 38.6362 7.96008 29.201 8.61086 28.0409C8.79909 27.7053 8.92441 27.728 9.23112 27.5813C9.28905 27.9715 9.19639 28.0848 9.21637 28.3702C8.71909 28.9972 7.79222 35.8268 7.61161 37.0616L7.62963 37.196C7.59919 37.7239 7.49008 38.1603 7.69971 38.5592C7.98522 38.7091 8.12092 38.6976 8.43265 38.7245C9.99812 38.9361 12.2012 39.1356 13.602 39.884L14.0614 40.1766C14.305 40.0535 14.6807 39.9653 14.9491 39.8896C15.1 39.9684 15.2494 40.0385 15.3905 40.1353C14.9486 40.5023 14.6493 40.7565 14.4349 41.3434L14.3226 41.1624L14.2898 41.1136C13.7906 40.3547 12.7822 40.1633 11.9955 39.9364C11.3838 39.7601 7.45795 39.1549 7.13202 39.3856C7.50812 39.5857 9.96362 39.7365 10.6115 39.8627C11.8464 40.103 12.3485 40.2788 13.5041 40.8416L13.3041 41.0938C11.4687 40.1162 8.41578 39.9636 6.43009 39.9236C6.4838 39.6463 6.49963 39.3227 6.52221 39.0371Z" fill="#4673AA"/>
<path d="M8.43265 38.7245C9.99812 38.9361 12.2012 39.1356 13.602 39.884L14.0614 40.1766C13.6392 40.2315 11.2102 39.3805 10.5212 39.2532C9.77802 39.1158 8.91728 38.9415 8.1172 38.8297L8.43265 38.7245Z" fill="#CCD1E0"/>
<path d="M7.61161 37.0616L7.62963 37.196C7.59919 37.7239 7.49008 38.1603 7.69971 38.5592C7.98522 38.7091 8.12092 38.6976 8.43265 38.7245L8.1172 38.8298C7.74928 38.8577 7.54288 38.9407 7.28174 38.6637C7.19575 38.2712 7.48679 37.4845 7.61161 37.0616Z" fill="#ECECF0"/>
<path d="M9.09076 29.2837C9.2508 29.053 9.31368 28.9526 9.50789 28.7599L9.68337 28.7451C9.74793 29.1342 9.6742 29.1629 9.54662 29.5769C9.36281 30.3068 9.2357 30.8265 9.11878 31.5767L9.17286 31.7302C9.37739 32.3805 8.40596 36.5957 8.34371 37.8715L8.46332 37.8967C10.6047 38.3002 12.7544 38.124 14.7235 39.2087C15.0118 39.3674 15.3341 39.5423 15.6585 39.5387L15.7936 39.3865L16.0229 39.4935L17.1144 39.03C17.0088 39.3199 16.9144 39.3713 16.6728 39.5234L16.6851 39.6219C17.2706 39.4443 17.274 39.2601 17.9295 39.1894L18.3034 39.4063C17.9056 39.5698 17.2039 39.8142 16.8962 40.0918L16.785 40.3383C16.0592 40.159 16.2109 40.0863 15.3906 40.1353C15.2494 40.0385 15.1 39.9684 14.9491 39.8896C14.6807 39.9653 14.305 40.0535 14.0614 40.1766L13.602 39.884C12.2012 39.1356 9.99812 38.9361 8.43265 38.7245C8.12092 38.6976 7.98522 38.7091 7.69971 38.5592C7.49008 38.1603 7.59919 37.7239 7.62963 37.196C7.85822 36.6513 8.82955 30.489 9.09076 29.2837Z" fill="url(#paint0_linear_1_1215)"/>
<path d="M9.11878 31.5767L9.17286 31.7302C9.37739 32.3805 8.40596 36.5957 8.34371 37.8715C8.29682 38.0063 8.28311 37.9968 8.19446 38.1133C8.02889 37.5015 8.87078 32.4659 9.11878 31.5767Z" fill="#ECECF0"/>
<path d="M13.602 39.8841C13.9482 39.5384 13.8024 39.5931 14.1853 39.5374C14.4622 39.6548 14.6792 39.7545 14.9491 39.8896C14.6807 39.9653 14.305 40.0535 14.0614 40.1766L13.602 39.8841Z" fill="#5682B8"/>
<path d="M26.9819 29.1578C26.7926 28.2814 26.4077 26.3943 26.6375 25.5484C27.4273 26.5566 27.5128 26.8472 28.1599 27.9522C28.4261 28.9169 28.5982 29.3514 28.4392 30.3599C28.2542 30.4482 28.0648 30.5465 27.8747 30.6163C27.6566 30.2333 27.2748 29.5003 26.9978 29.216C27.5303 30.4594 28.4737 33.8657 27.4075 34.8898C27.0008 34.799 26.9568 34.2172 26.8605 33.805C26.3898 32.6187 26.3567 31.5092 26.3626 30.2505C26.3296 29.7139 26.3566 28.7241 26.3561 28.1549L26.9819 29.1578Z" fill="#088427"/>
<path d="M26.3626 30.2505C26.7922 30.8025 27.0231 33.1378 26.8605 33.805C26.3898 32.6187 26.3567 31.5092 26.3626 30.2505Z" fill="#07621E"/>
<path d="M11.5338 27.2405C12.3694 27.6579 12.9425 27.3741 13.4717 27.5499C14.187 27.8728 14.8385 28.0876 15.6007 28.4513C16.059 28.1652 16.8576 27.7723 17.3561 27.5088C17.6577 27.5169 17.9018 27.4898 18.1656 27.6381C17.2182 27.9036 16.6654 28.057 15.8046 28.6304C15.8386 32.0641 15.9224 36.0488 16.0229 39.4935L15.7936 39.3865C15.5314 36.4078 15.5836 31.7917 15.5076 28.7007C13.8302 27.6558 12.0987 27.6195 10.2284 27.6839C10.1137 28.7308 9.82435 30.0125 9.66723 31.0911C9.33074 33.3983 9.04998 35.648 8.46332 37.8967L8.34371 37.8715C8.40596 36.5957 9.37739 32.3805 9.17286 31.7302C9.48715 31.2093 9.51481 30.2086 9.54662 29.5769C9.6742 29.1629 9.74794 29.1342 9.68338 28.7451L9.50789 28.7599C9.31368 28.9526 9.2508 29.053 9.09077 29.2837C9.12499 28.9311 9.22704 28.7069 9.34526 28.3794L9.21638 28.3702C9.19639 28.0848 9.28905 27.9715 9.23112 27.5813C9.91997 27.3814 10.8091 27.3187 11.5338 27.2405Z" fill="#4673AA" fill-opacity="0.980392"/>
<path d="M24.9023 38.1711C24.8318 36.9547 24.8399 33.2053 25.8303 32.4409C27.1596 32.6576 26.5384 38.0815 25.3319 39.1512L25.2004 39.0718L24.9023 38.1711Z" fill="#088427"/>
<path d="M4.8967 32.2083C6.31211 33.1662 6.19466 37.2947 5.75996 38.8862C4.09787 38.0384 4.27435 33.8088 4.8967 32.2083Z" fill="#088427"/>
<path d="M101.222 22.045C103.117 21.9517 104.112 23.5598 102.362 24.8752C100.48 24.9401 99.4709 23.4121 101.222 22.045Z" fill="#FAFAFA"/>
<path d="M64.4011 21.9849C65.1768 22.0682 65.8121 22.0646 66.2944 22.851C66.8066 23.6861 66.2033 24.4019 65.6139 24.8508C63.8093 24.9801 62.6968 23.4485 64.4011 21.9849Z" fill="#FAFAFA"/>
<path d="M4.41899 28.3261C4.76981 29.8307 4.47265 33.7884 3.51165 34.9543L3.35993 34.8413C2.58092 32.2793 3.20319 30.5061 4.41899 28.3261Z" fill="#088427"/>
<path d="M17.6507 13.0347C17.8989 13.1147 18.3416 13.438 18.5131 13.64C19.6506 14.9794 22.656 17.4169 22.9904 19.1606L21.8683 18.9315C20.6089 17.3171 18.767 14.7423 17.6507 13.0347Z" fill="#463C2D"/>
<path d="M19.4674 15.0828C20.1827 15.4271 22.4982 17.9909 22.7232 18.8806C22.6606 18.869 22.5982 18.8563 22.5359 18.8426C21.5234 18.6177 20.079 16.1051 19.4674 15.0828Z" fill="#F5A61B"/>
<path d="M22.7468 37.5483L22.9359 37.7593L23.3614 38.0023C23.0576 38.167 22.9853 38.1922 22.7732 38.4781C21.7561 38.4661 19.3072 39.0516 18.3034 39.4063L17.9295 39.1894C17.274 39.2601 17.2706 39.4443 16.6851 39.6219L16.6728 39.5234C16.9144 39.3713 17.0088 39.3199 17.1144 39.03C18.1661 38.1824 21.4252 38.0027 22.7468 37.5483Z" fill="#4673AA"/>
<path d="M17.3122 11.5325C18.2389 11.8555 21.1152 13.7872 21.89 14.5879C22.1776 14.8851 22.3894 15.2856 22.577 15.6698C22.2513 15.6639 21.8032 15.649 21.5225 15.4694C20.026 14.5113 18.4864 12.8868 17.3122 11.5325Z" fill="#463C2D" fill-opacity="0.988235"/>
<path d="M18.825 12.8188C19.9412 13.0821 21.5656 14.3483 22.1413 15.4101C21.1316 15.4177 19.5756 13.6126 18.825 12.8188Z" fill="#F5A61B"/>
<path d="M24.974 17.0566C26.5087 17.7539 27.4665 19.9759 27.7915 21.6671C26.3963 21.3978 25.2231 18.4569 24.974 17.0566Z" fill="#088427"/>
<path d="M13.041 11.6402L13.0649 11.7887C12.94 12.0388 12.653 12.4273 12.4475 12.6057C11.3647 13.5447 9.77955 15.573 8.40006 15.6862C8.27641 14.3807 12.0396 12.2661 13.041 11.6402Z" fill="#463C2D"/>
<path d="M11.2624 13.0675L11.4094 13.1218C11.1877 13.7723 9.48416 15.0713 8.90576 15.4716C8.79466 15.4212 8.78514 15.3903 8.68905 15.2983L8.73427 15.0266C9.23569 14.3038 10.5173 13.5491 11.2624 13.0675Z" fill="#F5A61B"/>
<path d="M18.17 3.43237C18.3436 3.49352 18.2634 3.4417 18.3803 3.64714C18.4076 5.1865 16.9331 7.57239 16.1776 8.87159L16.1243 8.89939L16.0647 8.79318C16.504 7.08383 17.0075 4.64845 18.17 3.43237Z" fill="#35322C"/>
<path d="M18.0093 3.78089C18.1168 3.90095 18.1067 3.93035 18.1703 4.09932C18.0774 5.13513 17.374 6.35483 16.8221 7.19418C16.7866 7.16148 16.7488 7.05734 16.7242 7.00289C16.9328 5.94073 17.3802 4.62948 18.0093 3.78089Z" fill="#F5A61B"/>
<path d="M17.2229 10.394C18.6009 10.4963 20.9623 10.7664 21.6634 12.1724C20.3691 12.495 18.2348 11.2671 17.2229 10.394Z" fill="#F5A61B"/>
<path d="M13.0525 10.4296L13.1212 10.4423L13.1523 10.6138C12.6102 11.2858 10.1129 12.3214 9.26939 12.3298C9.11208 12.2399 9.18034 12.2791 9.06435 12.0764L9.12417 11.8418C9.80706 11.0049 11.9529 10.6845 13.0525 10.4296Z" fill="#463C2D"/>
<path d="M11.6254 10.9814L11.7255 11.0368L11.6965 11.2143C11.1396 11.6612 10.244 11.9738 9.58182 12.1786L9.42201 11.9947L9.49939 11.7684C10.0514 11.2797 10.9297 11.1318 11.6254 10.9814Z" fill="#F5A61B"/>
<path d="M10.6226 5.93113C11.9866 6.26607 13.1618 8.00977 13.8586 9.27521C13.2209 8.95212 12.6128 8.56191 12.0431 8.10987C11.3156 7.52153 10.7704 6.92685 10.6226 5.93113Z" fill="#F5A61B"/>
<path d="M20.9553 29.4085L21.1702 28.5486C21.3975 29.1468 21.4628 29.579 21.5233 30.2209C21.6471 31.533 21.9962 32.7843 22.3425 34.0411C22.357 34.9716 22.8971 36.3647 22.9359 37.7593L22.7468 37.5483C22.5821 37.1024 22.2033 35.3091 22.0917 34.7913L20.9553 29.4085Z" fill="#4673AA"/>
<path d="M19.7581 5.93022C19.9953 5.93876 19.9006 5.88981 20.0592 6.0613C20.0768 7.08181 17.8238 8.67267 17.1262 9.19227L17.0037 9.27642L16.8819 9.23474C17.0508 8.36536 19.0043 6.37168 19.7581 5.93022Z" fill="#FAFAFA"/>
<path d="M19.6742 6.2617C19.9174 6.95113 18.3275 7.99479 17.8745 8.31921C17.741 7.69933 19.2408 6.53157 19.6742 6.2617Z" fill="#F5A61B"/>
<path d="M9.45357 8.46578C11.1305 8.58491 12.129 9.06603 13.4925 10.0516C12.4162 10.0678 11.2907 9.91225 10.2683 9.53754C9.96155 9.2279 9.70719 8.83247 9.45357 8.46578Z" fill="#F5A61B"/>
<path d="M9.74906 17.5627C9.12913 18.0049 9.15661 18.5661 8.29216 18.7565L8.18101 18.6297C8.42549 17.7221 10.59 15.5423 11.2586 15.018L11.2386 15.5892C10.8835 16.0485 10.0663 17.2287 9.74906 17.5627Z" fill="#F5A61B"/>
<path d="M20.1201 8.40574C20.5115 8.38935 20.7246 8.33272 20.9758 8.66744L20.8611 8.9378C20.1483 9.62318 19.0995 9.80501 18.1983 10.006C18.132 10.0351 17.75 10.0973 17.6553 10.1143L17.57 10.0203C17.7565 9.60003 19.6215 8.67295 20.1201 8.40574Z" fill="#35322C"/>
<path d="M20.112 8.61098C20.4555 8.64995 20.4975 8.58556 20.6939 8.81323C20.5233 9.23231 19.7506 9.40319 19.3823 9.49341C19.1332 9.55543 19.0598 9.55957 18.8039 9.56273L18.7588 9.45553C19.0863 9.13023 19.7002 8.83531 20.112 8.61098Z" fill="#F5A61B"/>
<path d="M9.74906 17.5627C9.39029 18.3845 8.78961 19.0833 7.91512 19.051L7.86234 18.8526C8.16066 17.5632 11.8308 14.0688 12.9145 12.9423C12.3703 13.9388 11.8698 14.6668 11.2386 15.5892L11.2586 15.018C10.59 15.5423 8.4255 17.7222 8.18102 18.6297L8.29217 18.7565C9.15662 18.5661 9.12913 18.0049 9.74906 17.5627Z" fill="black"/>
<path d="M21.1702 28.5486C21.0335 28.2482 20.9803 28.2685 21.0426 28.0333L21.3443 28.1553C21.7364 29.1587 21.9007 30.0984 22.0987 31.1658C22.0523 32.5139 22.5293 32.9959 22.5 34.0942L22.3425 34.0411C21.9962 32.7843 21.6471 31.533 21.5233 30.2209C21.4628 29.579 21.3975 29.1468 21.1702 28.5486Z" fill="#8FA9C7" fill-opacity="0.0117647"/>
<path d="M12.4574 4.56237C12.359 4.07825 12.2962 4.10298 12.4076 3.68415L12.5797 3.65619C13.0681 4.06015 13.4961 4.94476 13.591 5.56883C13.6247 6.01085 13.8286 6.97214 13.9161 7.44366C13.2397 6.45782 12.937 5.67357 12.4574 4.56237Z" fill="#F5A61B"/>
<path d="M22.7732 38.4781L22.6935 38.6211C20.8279 38.9375 19.2758 39.4464 17.4995 40.1249C17.3169 40.1946 17.0787 40.1502 16.8962 40.0918C17.2039 39.8142 17.9056 39.5698 18.3034 39.4063C19.3072 39.0516 21.7561 38.4661 22.7732 38.4781Z" fill="#ECECF0" fill-opacity="0.0352941"/>
<path d="M13.5041 40.8416C12.3485 40.2788 11.8464 40.103 10.6115 39.8627C9.96362 39.7365 7.50813 39.5857 7.13202 39.3856C7.45796 39.1549 11.3838 39.7601 11.9955 39.9364C12.7822 40.1633 13.7906 40.3547 14.2898 41.1136L14.3226 41.1624C14.0533 41.0687 13.7712 40.9485 13.5041 40.8416Z" fill="#ECECF0" fill-opacity="0.0627451"/>
<path d="M9.21638 28.3702L9.34526 28.3794C9.22704 28.7069 9.12499 28.9311 9.09076 29.2837C8.82956 30.489 7.85822 36.6513 7.62963 37.196L7.61162 37.0616C7.79222 35.8268 8.71909 28.9972 9.21638 28.3702Z" fill="#ECECF0" fill-opacity="0.0784314"/>
<path d="M12.4574 4.56237C12.937 5.67357 13.2397 6.45782 13.9161 7.44366C13.8286 6.97214 13.6247 6.01085 13.591 5.56883C14.0348 6.5055 14.3494 7.99395 14.5436 9.02069C13.7715 7.72844 12.6893 6.07671 12.4574 4.56237Z" fill="black"/>
<path d="M3.05818 21.766C3.53347 21.3364 3.8967 21.0074 4.33582 20.5239L4.40625 20.6722C3.8355 21.3505 3.39898 22.3184 2.98717 23.1384L3.05818 21.766Z" fill="#ECECF0" fill-opacity="0.01"/>
<path d="M4.33582 20.5239C4.57785 20.1931 4.82868 19.7427 5.04362 19.3792L5.44352 19.3051L5.55025 19.3974L5.37888 19.8049C5.08776 20.0611 4.67179 20.4048 4.40624 20.6722L4.33582 20.5239Z" fill="url(#paint1_linear_1_1215)"/>
<path d="M6.43009 39.9236L6.24677 39.9235C6.21707 39.5161 6.07914 38.5164 6.35516 38.259C6.54 38.5108 6.5103 38.7051 6.52221 39.0371C6.49963 39.3227 6.4838 39.6463 6.43009 39.9236Z" fill="url(#paint2_linear_1_1215)"/>
<path d="M25.4242 22.0887L25.2549 21.9684L25.2684 21.5366C25.5086 21.8038 25.402 21.7652 25.6789 21.7753C26.0958 22.2586 26.495 22.7218 26.894 23.2247L25.4242 22.0887Z" fill="#ECECF0" fill-opacity="0.0117647"/>
<path d="M13.5041 40.8416C13.7712 40.9485 14.0533 41.0687 14.3226 41.1624L14.4349 41.3434L14.2937 41.4392C13.9228 41.4774 13.6526 41.2777 13.3041 41.0938L13.5041 40.8416Z" fill="#5682B8" fill-opacity="0.972549"/>
<path d="M9.54662 29.5769C9.51481 30.2086 9.48714 31.2093 9.17286 31.7302L9.11878 31.5767C9.2357 30.8265 9.36281 30.3068 9.54662 29.5769Z" fill="#ECECF0" fill-opacity="0.117647"/>
<defs>
<linearGradient id="paint0_linear_1_1215" x1="11.0594" y1="39.7318" x2="14.6697" y2="30.8707" gradientUnits="userSpaceOnUse">
<stop stop-color="#496FA3"/>
<stop offset="1" stop-color="#5685B7"/>
</linearGradient>
<linearGradient id="paint1_linear_1_1215" x1="5.30956" y1="19.7654" x2="4.85388" y2="19.5548" gradientUnits="userSpaceOnUse">
<stop stop-color="white" stop-opacity="0"/>
<stop offset="1" stop-color="#EDF6F0" stop-opacity="0.054902"/>
</linearGradient>
<linearGradient id="paint2_linear_1_1215" x1="6.50968" y1="39.1229" x2="6.04511" y2="39.0412" gradientUnits="userSpaceOnUse">
<stop stop-color="white" stop-opacity="0"/>
<stop offset="1" stop-color="#D4D2D5" stop-opacity="0.0588235"/>
</linearGradient>
</defs>
</svg>
