<svg width="81" height="27" viewBox="0 0 81 27" fill="none" xmlns="http://www.w3.org/2000/svg">
<path d="M0.656729 19.8599L0.736181 19.7737C1.15285 20.0103 1.65362 21.081 2.63353 21.6648C3.26084 21.467 3.88281 21.4174 4.49193 21.7174C7.45162 23.1794 10.8349 23.6077 14.0491 22.5354C15.0933 22.1871 16.1433 21.6703 17.2244 21.4912C17.6191 21.4258 17.9111 21.5902 18.2258 21.7484C18.7826 21.3863 19.0164 21.2446 19.4793 20.7744C19.7304 20.5196 20.1392 19.883 20.361 19.7873C20.5681 20.0248 20.5298 20.9743 20.4513 21.276C20.2482 22.0532 20.0342 22.3527 19.4495 22.9866C20.007 23.2907 21.0497 23.7462 20.935 24.4339C20.8068 24.5087 20.3754 24.6087 20.2126 24.6177C19.1856 24.6747 18.0178 27.2172 16.9727 26.0454C16.8659 25.7298 16.8188 25.5692 16.7627 25.2452C14.7092 25.9631 12.8353 26.2876 10.6117 26.2703C10.2814 26.2678 9.59404 26.2523 9.28721 26.1849C8.15625 26.1913 5.9131 25.7342 4.86694 25.3704C4.60862 25.2983 4.57312 25.2402 4.37919 25.3191C4.03486 25.7849 4.29755 26.6262 3.24317 26.3265C1.82123 25.482 1.83502 24.5531 0.00305933 24.5C0.441541 23.7392 0.720565 23.3652 1.6633 23.0648C1.53113 22.9333 1.40541 22.7969 1.28647 22.6558C0.506132 21.7151 0.47031 20.9551 0.656729 19.8599Z" fill="#DF1D1C"/>
<path d="M0.656729 19.8599L0.736181 19.7737C1.15285 20.0103 1.65362 21.081 2.63353 21.6648C3.26084 21.467 3.88281 21.4174 4.49193 21.7174C7.45162 23.1794 10.8349 23.6077 14.0491 22.5354C15.0933 22.1871 16.1433 21.6703 17.2244 21.4912C17.6191 21.4258 17.9111 21.5902 18.2258 21.7484C18.7826 21.3863 19.0164 21.2446 19.4793 20.7744C19.7304 20.5196 20.1392 19.883 20.361 19.7873C20.5681 20.0248 20.5298 20.9743 20.4513 21.276C20.2482 22.0532 20.0342 22.3527 19.4495 22.9866C20.007 23.2907 21.0497 23.7462 20.935 24.4339C20.8068 24.5087 20.3754 24.6087 20.2126 24.6177C19.1856 24.6747 18.0178 27.2172 16.9727 26.0454C16.8659 25.7298 16.8188 25.5692 16.7627 25.2452C14.7092 25.9631 12.8353 26.2876 10.6117 26.2703C10.2814 26.2678 9.59404 26.2523 9.28721 26.1849C11.786 26.1957 13.7776 26.0752 16.1609 25.2536C17.0703 24.9401 17.9101 24.5366 18.8396 24.2789C18.0177 21.5159 18.2265 21.0194 14.9864 22.3564C14.0426 22.7459 12.9267 22.9905 11.9024 23.1283C9.7276 23.4211 7.66629 23.1455 5.66454 22.3411C4.89328 22.0312 3.92879 21.6275 3.07068 21.5986C2.67767 21.9175 2.28446 23.7086 2.14672 24.2449C3.00435 24.4377 4.14356 24.9308 4.86694 25.3704C4.60862 25.2983 4.57312 25.2402 4.37919 25.3191C4.03486 25.7849 4.29755 26.6262 3.24317 26.3265C1.82123 25.482 1.83502 24.5531 0.00305933 24.5C0.441541 23.7392 0.720565 23.3652 1.6633 23.0648C1.53113 22.9333 1.40541 22.7969 1.28647 22.6558C0.506132 21.7151 0.47031 20.9551 0.656729 19.8599Z" fill="#5D1212"/>
<path d="M20.33 19.8747C20.4517 20.4109 20.4446 20.7257 20.4513 21.276C20.2482 22.0532 20.0342 22.3527 19.4495 22.9866C20.007 23.2907 21.0497 23.7462 20.935 24.4339C20.8068 24.5087 20.3754 24.6087 20.2126 24.6177C19.1856 24.6747 18.0178 27.2172 16.9727 26.0454C17.7845 24.3525 20.1903 26.8056 18.1945 21.9047C19.2744 21.3065 19.6861 20.7985 20.33 19.8747Z" fill="#DF1D1C"/>
<path d="M0.656728 19.8599C1.52725 20.8303 1.43434 21.0655 2.70093 21.8221C2.49387 22.4907 1.87312 24.2265 2.0096 24.848C2.54612 25.3093 3.99414 25.4822 4.03106 26.0727C3.85194 26.2647 3.51244 26.3202 3.24317 26.3265C1.82123 25.482 1.83502 24.5531 0.0030592 24.5C0.441541 23.7392 0.720565 23.3652 1.6633 23.0648C1.53113 22.9333 1.40541 22.7969 1.28647 22.6558C0.506131 21.7151 0.47031 20.9551 0.656728 19.8599Z" fill="#DF1D1C"/>
<path d="M2.20192 24.4171C2.77367 24.5243 3.60878 24.7405 4.01793 25.1227C4.20811 25.3004 4.16426 25.3849 4.15559 25.5997C3.56003 25.349 2.61325 25.2485 2.20851 24.8419C2.09712 24.73 2.1686 24.5566 2.20192 24.4171Z" fill="#DF1D1C"/>
<path d="M18.6683 24.4523C18.7173 24.4662 18.8246 24.5333 18.8742 24.5616C19.1408 25.0702 17.5144 25.37 17.1025 25.5135C17.0361 25.5365 16.9589 25.5265 16.8821 25.5254L17.0079 25.5456L16.9073 25.439L16.9341 25.2829C17.2763 24.8657 18.1304 24.6145 18.6683 24.4523Z" fill="#DF1D1C"/>
<path d="M13.8661 24.0996C14.0279 24.2754 14.1432 24.4567 14.0626 24.6821C13.796 24.664 13.9826 24.4771 13.6724 24.3826C13.5266 24.5232 13.5459 24.6089 13.4926 24.8179C13.2716 24.7726 13.3847 24.5486 13.126 24.4392C13.0729 24.5896 13.0385 24.6799 12.9653 24.8233C12.8465 24.7642 12.8265 24.6205 12.7684 24.4776C12.5645 24.4553 12.6218 24.765 12.374 24.932C12.1252 24.7811 12.1013 24.5578 12.2654 24.3399C12.3493 24.4142 12.3956 24.4621 12.4703 24.5414L12.5023 24.3699C12.7208 24.1639 13.2459 24.3333 13.8661 24.0996Z" fill="#DDC1C9"/>
<path d="M8.50384 24.2941C8.82372 24.5259 8.55565 24.4371 8.74839 24.7687C9.00946 24.7492 8.80339 24.551 9.0483 24.3548L9.15927 24.4052C9.13146 24.6129 9.13024 24.654 9.02534 24.8397C8.83111 24.9753 8.92024 24.9514 8.69284 24.9432C8.4161 24.7447 8.46903 24.5781 8.50384 24.2941Z" fill="#ECECF0"/>
<path d="M7.7922 16.2395C7.85254 16.2544 7.91226 16.2709 7.97135 16.2894C9.07208 16.6298 7.85656 18.458 8.61239 18.5969C9.41106 18.2401 8.54567 16.542 9.39519 16.221C10.1034 16.3951 9.93353 17.2931 9.86804 17.758C9.81513 18.1602 9.77782 18.9605 9.42109 19.243C9.12293 19.4793 8.84208 19.1806 8.46237 19.1298C8.03522 19.0675 7.60186 19.1714 7.17163 19.1426C6.91885 19.1257 6.55714 18.8875 6.68172 18.629C6.85561 18.2682 7.09577 18.1718 7.48484 18.037L7.48916 18.0071C7.58735 17.275 7.48719 17.2945 7.42671 16.596C7.41384 16.4472 7.65206 16.332 7.7922 16.2395Z" fill="white"/>
<path d="M28.5216 12.4612C29.0852 12.4481 29.5703 12.4545 30.1341 12.4714C30.1735 13.5799 29.8494 16.7995 30.629 17.2795C34.0052 19.3581 33.1665 13.1267 33.1608 12.4822L34.7977 12.4796L34.7998 13.8517L34.8083 15.6698C34.8022 17.0904 34.4818 18.5067 32.6115 18.8307C31.5865 19.0181 29.9571 18.8992 29.2565 18.1301C28.0776 16.8357 28.4492 14.0003 28.5216 12.4612Z" fill="#FAFAFA"/>
<path d="M12.3889 16.2074C12.9725 16.189 13.9458 16.1733 14.0044 16.9172C14.0473 17.461 13.5856 17.8495 13.2039 18.2301C13.4515 18.1272 13.7422 17.9691 14.0146 18.0813C14.7248 18.3736 15.006 19.5534 14.6833 20.1286C14.4841 20.2416 14.5737 20.2254 14.3483 20.1952C14.0074 19.976 13.8154 19.1922 13.6627 18.8044C13.4796 18.7892 13.3153 18.8932 13.1229 18.9723C12.8911 19.0936 12.1825 19.487 11.9413 19.2427C11.1624 18.4534 13.1878 17.7431 13.0557 16.8912C12.877 16.7394 12.6536 16.7139 12.4228 16.7872C12.3344 17.0166 12.5253 17.1337 12.5368 17.5045C12.3763 17.8167 12.105 17.9264 11.7205 17.8232C11.3262 17.5831 11.3261 17.2011 11.4814 16.8381C11.6355 16.478 12.0181 16.3535 12.3889 16.2074Z" fill="white"/>
<path d="M9.11798 11.6906L9.05686 11.6461C8.57519 10.0958 9.37454 9.32418 9.7285 7.85808C9.7991 7.64873 9.65159 6.63827 9.7311 6.51692C11.0125 4.56326 9.28946 1.72304 10.3504 0.0019152C10.7735 0.690809 10.7615 0.88722 10.6299 1.66946C10.6042 1.92717 10.5811 2.18507 10.5605 2.44316C10.5234 3.5125 10.2618 4.84591 10.6281 5.87268C10.7741 6.28221 12.0001 7.73665 12.3278 8.20691C13.7692 10.2753 15.3811 12.3763 16.745 14.4809C16.7367 14.7293 16.7498 15.1447 16.6527 15.3596L16.5669 15.3611C15.8073 14.9846 15.4209 14.5174 15.1039 13.8097C14.8372 13.4716 14.5952 12.9201 14.364 12.5666C13.3945 11.0837 11.9881 7.74662 10.8304 6.57174L10.7793 6.58974L10.7776 6.77974C11.0659 8.11073 11.489 9.25893 11.8271 10.57C11.9792 11.1602 11.465 11.4686 11.4259 11.9842C11.4245 11.997 11.8346 12.2305 11.8786 12.2548L11.8911 12.3519C11.8095 12.4331 11.7674 12.4894 11.6549 12.5348C10.922 12.543 10.189 12.5397 9.45625 12.5248L9.08076 12.5655C8.90111 12.4375 8.86289 12.4546 8.80935 12.2832C8.95022 12.1313 9.15748 12.1065 9.3825 12.0479L9.31948 11.8226L9.11798 11.6906Z" fill="#463C2D"/>
<path d="M9.96198 6.5668L10.7793 6.58974L10.7776 6.77975C10.7339 7.93066 11.4054 9.25222 11.6075 10.6045C10.7638 10.602 9.92015 10.5944 9.07649 10.5817C9.4071 8.9487 9.78837 8.35972 9.96198 6.5668Z" fill="#F5A61B"/>
<path d="M12.2897 8.42712C12.7618 9.00453 13.2209 9.63609 13.6401 10.2506C14.5952 11.6506 15.7173 12.9997 16.5538 14.4553C16.6721 14.6613 16.5976 15.1309 16.5669 15.3611C15.8073 14.9846 15.4209 14.5174 15.1039 13.8097C14.9322 13.2863 14.5893 12.755 14.336 12.2578C13.735 11.0781 12.7593 9.62552 12.2897 8.42712Z" fill="#F5A61B"/>
<path d="M10.3739 3.2542C10.213 2.73393 9.87398 0.698662 10.325 0.349182C10.5911 0.614505 10.5585 1.27936 10.6299 1.66946C10.6042 1.92717 10.5811 2.18507 10.5605 2.44316C10.4798 2.6294 10.4151 3.04133 10.3739 3.2542Z" fill="#F5A61B"/>
<path d="M9.31948 11.8226C9.69803 11.8181 10.52 11.8425 10.8378 11.7452L11.0681 11.9628C10.9338 12.2781 9.67012 12.1512 9.3825 12.0479L9.31948 11.8226Z" fill="#6C5021"/>
<path d="M9.45625 12.5248L9.21763 12.4367C9.60819 12.2804 11.0908 12.3104 11.5025 12.3994C11.5456 12.4357 11.6223 12.4952 11.6549 12.5348C10.922 12.543 10.189 12.5397 9.45625 12.5248Z" fill="#F5A61B"/>
<path d="M9.11799 11.6906C9.49479 11.6719 10.5139 11.5836 10.8179 11.7196L10.8378 11.7452C10.52 11.8425 9.69803 11.8181 9.31948 11.8226L9.11799 11.6906Z" fill="#9E701D"/>
<path d="M8.93753 10.7151L11.761 10.7165L11.5737 11.4832C11.0299 11.6038 9.76424 11.5576 9.15433 11.5494C9.07296 11.2804 9.00609 10.9885 8.93753 10.7151Z" fill="#F5A61B"/>
<path d="M10.3158 5.226C10.6108 5.39401 10.5693 6.15455 10.3471 6.39039C9.93845 5.98969 10.1307 5.69341 10.3158 5.226Z" fill="#F5A61B"/>
<path d="M54.1782 13.9844C54.2112 13.9822 54.2442 13.9804 54.2773 13.9792C56.387 13.8962 57.0289 15.2478 57.0784 16.8587C56.5556 16.8684 53.5247 16.7784 53.271 16.983C53.5101 18.3034 55.7685 17.6123 56.6141 17.3638C56.6583 17.7123 56.6391 18.128 56.6346 18.4836C55.4856 18.9944 53.8884 19.1375 52.7782 18.4762C52.158 18.1073 51.7339 17.5331 51.6022 16.8843C51.2701 15.2948 52.4689 14.2276 54.1782 13.9844ZM54.8906 16.0688C55.1159 16.0669 55.2899 16.0872 55.4746 15.9717C55.7947 15.3936 54.559 15.0936 54.0451 15.1134C53.7411 15.2646 53.4072 15.4086 53.2682 15.7006C53.3641 16.2175 54.4324 16.0805 54.8906 16.0688Z" fill="#FAFAFA"/>
<path d="M74.61 14.1118L76.2841 14.1017L77.6247 17.2993C78.0717 16.3534 78.5431 15.1078 78.9506 14.1253C79.4856 14.1105 80.0737 14.1193 80.6139 14.1173C80.2385 15.1492 79.3522 16.8196 78.8705 17.9321C78.0472 19.8728 77.5557 21.3174 74.8328 20.5676C74.9006 20.2456 75.041 19.8238 75.1376 19.499C76.0991 19.6803 76.3707 19.7198 76.8414 18.9108C76.1633 17.3363 75.3167 15.7162 74.61 14.1118Z" fill="#FAFAFA"/>
<path d="M2.03686 11.6484C2.36807 10.2877 2.69613 9.96858 3.89316 9.14295C3.74535 9.66925 3.63998 9.94987 3.40468 10.4455C3.25958 10.6414 3.09026 10.8842 2.92688 11.0625C2.63045 11.3231 2.38525 11.5005 2.06441 11.732L2.01648 12.4718C2.29447 12.0298 2.58914 11.508 2.97442 11.1424C3.15367 10.9983 3.43447 10.813 3.63099 10.675L3.91621 10.525L4.00431 10.5637C4.03934 11.0353 3.20492 11.9977 2.88437 12.3712L3.61672 11.9635C3.49106 12.3688 3.02818 13.1564 2.98525 13.4424C2.75829 14.9545 2.85611 15.605 1.69251 16.8729C1.76088 17.2612 2.11204 18.2946 1.94093 18.5502C1.84593 18.5394 1.7633 18.5307 1.66976 18.5103L1.60931 18.4968C2.4464 19.2258 2.78987 19.8663 3.26639 20.8104C1.54547 20.4459 0.763576 19.1828 0.376825 17.7625C0.860981 17.974 0.996267 18.051 1.41765 18.3314C0.353092 17.0588 0.365912 16.4067 0.299003 14.9225C0.455993 15.0935 0.667795 15.2868 0.839677 15.452C0.348925 14.1106 0.313476 13.5081 0.794136 12.155C1.37292 13.192 1.58449 14.5497 1.55453 15.6964C1.55265 15.7674 1.36863 16.0208 1.31825 16.0908C1.33986 16.3069 1.52284 16.5584 1.64534 16.7567C1.62403 15.587 1.71955 15.2826 2.21777 14.2049L1.61722 14.7798L1.74254 13.9442L1.74474 13.9976C0.867234 12.7752 1.07655 11.5519 1.83571 10.3426C1.93918 10.7843 1.98274 11.2009 2.03686 11.6484Z" fill="#088427"/>
<path d="M39.12 14.0187C39.3164 14.0099 39.5131 14.0073 39.7098 14.0109C42.2954 14.0738 41.7327 17.2914 41.6693 18.8211L40.0896 18.817C40.0945 17.9671 40.1585 17.0556 40.0769 16.2149C39.9919 15.3391 39.3797 15.1969 38.5342 15.3486C37.6708 15.9707 37.9091 17.8942 37.933 18.8151L36.3641 18.8131L36.367 14.0632C36.6815 14.0554 37.4742 14.0066 37.7711 14.1058C37.8527 14.1331 37.8901 14.3873 37.9199 14.4995C38.025 14.5031 38.8228 14.111 39.12 14.0187Z" fill="#FAFAFA"/>
<path d="M63.855 14.0569C65.0479 14.0056 65.4464 14.0447 66.5748 14.3313L66.3254 15.3998C65.8168 15.255 63.8319 14.7576 63.7371 15.5129C64.2288 16.0267 66.6528 15.9025 66.8414 17.14C67.0179 18.2978 66.1224 18.7278 64.995 18.9177C63.7532 18.9447 63.3901 18.9246 62.2002 18.5474L62.353 17.405C62.7987 17.5568 65.1787 18.3637 65.2279 17.4569C64.747 16.9062 62.4332 16.9745 62.1996 15.858C61.9653 14.7381 62.7994 14.3253 63.855 14.0569Z" fill="#FAFAFA"/>
<path d="M45.4543 14.0778L47.1139 14.0736C47.5296 15.1205 47.9552 16.1643 48.3909 17.205C48.845 16.2435 49.282 15.0755 49.6676 14.0891C50.2203 14.0828 50.7731 14.0814 51.3257 14.0849C51.2005 14.438 50.9919 14.8928 50.8412 15.2474L49.2387 18.8235C48.6966 18.8372 48.0983 18.8253 47.5517 18.8244C46.8198 17.2536 46.1206 15.6711 45.4543 14.0778Z" fill="#FAFAFA"/>
<path d="M71.2903 12.8619C71.7427 12.8418 72.3752 12.8643 72.8406 12.8695L72.8861 14.1311L74.2573 14.1106L74.2619 15.2636L72.853 15.263C72.8582 15.9292 72.574 17.1644 73.1675 17.6353C73.4056 17.8243 73.8606 17.738 74.1682 17.7063L74.3585 18.5581C74.271 18.9293 73.8481 18.9363 73.4742 18.9551C70.7786 19.0908 71.2257 16.9332 71.2814 15.2838L70.3806 15.2633L70.3854 14.1228L71.324 14.1235C71.2863 13.7979 71.2951 13.2055 71.2903 12.8619Z" fill="#FAFAFA"/>
<path d="M9.45625 12.5248C10.189 12.5397 10.922 12.543 11.6549 12.5348C11.5622 12.7627 11.5603 12.6808 11.603 12.8865C11.8347 13.0248 12.04 13.0199 12.3279 12.9878L12.4234 13.0494C12.4793 13.952 12.974 13.5944 12.9491 14.5755L12.8993 14.8146C12.7031 14.8365 12.4506 14.8572 12.2626 14.8971C12.0845 14.8172 11.9198 14.8318 11.7162 14.8274C11.3797 14.9694 10.8406 15.1812 10.5312 15.3355C10.0166 15.1394 9.57688 15.0236 9.09402 14.8496C8.73675 14.7548 8.34994 14.9078 7.78588 14.6828C7.7682 14.4152 7.784 14.3642 7.85259 14.103L7.96826 13.8319C8.53252 13.2968 8.21118 13.1901 8.40772 12.9109C8.71962 12.9994 8.7861 13.0179 9.10149 12.9368C9.12434 12.7748 9.1087 12.7295 9.08076 12.5655L9.45625 12.5248Z" fill="#463C2D"/>
<path d="M9.45625 12.5248C10.189 12.5397 10.922 12.543 11.6549 12.5348C11.5622 12.7627 11.5603 12.6808 11.603 12.8865C11.8347 13.0248 12.04 13.0199 12.3279 12.9878L12.4234 13.0494L12.3572 13.0874L12.2287 13.154C11.8999 13.3236 11.9612 13.3286 11.5753 13.319C10.8962 13.2927 10.2168 13.2717 9.53718 13.256L9.29446 13.0643L9.21707 13.0375L9.45006 12.9368L9.10149 12.9368C9.12434 12.7748 9.1087 12.7295 9.08076 12.5655L9.45625 12.5248Z" fill="#35322C"/>
<path d="M9.45006 12.9368C10.0019 12.9441 11.0595 12.8319 11.4936 13.0052L11.5672 13.1333L11.5753 13.319C10.8962 13.2927 10.2168 13.2717 9.53718 13.256L9.29446 13.0643L9.21707 13.0375L9.45006 12.9368Z" fill="#F5A61B"/>
<path d="M9.29446 13.0643C9.62503 13.1259 11.3184 13.2184 11.5672 13.1333L11.5753 13.319C10.8962 13.2928 10.2168 13.2717 9.53718 13.256L9.29446 13.0643Z" fill="#6C5021"/>
<path d="M11.5753 13.319C11.9612 13.3286 11.8999 13.3236 12.2287 13.154L12.3572 13.0874C12.3309 13.3215 12.3743 13.4152 12.2182 13.5377C11.4853 13.6653 9.28935 13.6465 8.57641 13.4458L8.54551 13.3757C8.87314 13.2593 9.18341 13.2572 9.53718 13.256C10.2168 13.2717 10.8962 13.2927 11.5753 13.319Z" fill="#F5A61B"/>
<path d="M9.09402 14.8496C9.84692 14.7364 10.9579 14.7682 11.7162 14.8274C11.3797 14.9694 10.8406 15.1812 10.5312 15.3355C10.0166 15.1394 9.57689 15.0236 9.09402 14.8496Z" fill="#F5A61B"/>
<path d="M7.96826 13.8319C8.21473 13.9584 8.3175 13.9923 8.47068 14.2049C8.50105 14.4072 8.52272 14.3325 8.40101 14.4887C8.15979 14.5262 8.25781 14.5364 8.03116 14.4473C7.90223 14.3048 7.8955 14.2819 7.8526 14.103L7.96826 13.8319Z" fill="#F5A61B"/>
<path d="M9.0906 13.8796C9.40428 13.9548 9.5606 14.0254 9.66913 14.2999C9.56962 14.5002 9.63509 14.4311 9.40279 14.552C9.09714 14.5303 8.94327 14.5537 8.78536 14.3066C8.80505 14.1057 8.93227 14.0232 9.0906 13.8796Z" fill="#F5A61B"/>
<path d="M9.96486 13.9587C10.2221 13.965 10.3788 13.9531 10.6101 14.0531C10.7952 14.2005 10.7874 14.3107 10.8196 14.5252C10.555 14.5257 10.2297 14.5568 10.0215 14.4308C9.89191 14.2074 9.93661 14.2443 9.96486 13.9587Z" fill="#F5A61B"/>
<path d="M11.2734 13.9502C11.5521 13.9615 11.713 13.97 11.905 14.1488C11.9588 14.3889 11.9654 14.2884 11.8572 14.5331C11.5337 14.5346 11.3662 14.5562 11.1272 14.3748C11.1126 14.1221 11.1164 14.1962 11.2734 13.9502Z" fill="#F5A61B"/>
<path d="M12.3834 14.0261C12.4787 13.9567 12.6103 13.9407 12.7234 13.9847C12.8365 14.0287 12.9117 14.1252 12.9177 14.2339C12.9238 14.3427 12.8597 14.4451 12.7521 14.4987C12.6046 14.572 12.418 14.534 12.3221 14.411C12.2262 14.2881 12.2528 14.1209 12.3834 14.0261Z" fill="#F5A61B"/>
<path d="M60.9161 14.0435C60.9796 14.0395 61.0432 14.0364 61.1068 14.0342C61.8572 14.0111 61.6577 14.8102 61.6362 15.2709C61.5587 15.271 61.4811 15.2717 61.4036 15.2728C59.136 15.31 59.6333 17.4125 59.7086 18.8432L58.2273 18.8422C58.0653 18.659 58.157 14.6624 58.1613 14.1071L59.6569 14.0982L59.7323 14.723C60.1727 14.315 60.3118 14.22 60.9161 14.0435Z" fill="#FAFAFA"/>
<path d="M18.8451 12.7375C18.791 11.6949 18.8694 11.1854 18.908 10.2014C19.5585 11.3264 19.6596 11.7147 19.7089 12.9607L19.9964 12.181C20.1247 12.4714 20.323 12.8881 20.3211 13.1955C20.1478 14.323 20.1486 15.253 19.4065 16.3C19.3114 15.7499 19.35 14.4743 19.3426 13.8606C19.2371 13.7849 19.2996 13.8126 19.1359 13.807C19.0516 13.9819 19.1418 14.3284 19.1601 14.562L19.094 14.6254L18.9417 14.5244C18.8516 14.7076 18.9409 14.8747 19.0092 15.0664C18.5724 14.4708 18.5147 14.3142 17.9815 13.7708C17.9723 13.4953 17.5679 12.8408 17.4103 12.5414C17.2601 12.2668 17.2368 12.204 17.1625 11.906L18.1547 12.5183C17.8853 12.2472 17.6159 11.9975 17.3344 11.7371C17.0358 11.2818 16.7794 10.8786 16.5959 10.3716C17.8663 11.0806 18.3383 11.4379 18.8451 12.7375Z" fill="#088427"/>
<path d="M17.4104 12.5414L17.5197 12.5366C17.7509 12.8399 18.9007 14.3055 18.9417 14.5244C18.8516 14.7076 18.9409 14.8747 19.0092 15.0664C18.5724 14.4708 18.5147 14.3142 17.9815 13.7708C17.9723 13.4953 17.5679 12.8408 17.4104 12.5414Z" fill="#FAFAFA"/>
<path d="M12.8993 14.8146L12.9491 14.5755C15.1438 14.5857 14.9767 14.7829 15.5183 16.6054C15.6626 17.0911 16.5882 20.5543 16.8102 20.5745L17.0114 21.06C16.6902 20.9264 16.6154 20.8937 16.2682 20.847L16.3058 20.9043C16.5712 20.9892 16.6219 20.9608 16.7681 21.1342C16.5406 21.3919 15.0224 21.4278 14.6148 21.457C13.5949 21.6331 12.7105 21.7997 11.8459 22.3191C11.73 22.1859 11.449 21.8467 11.3307 21.7426L11.4057 21.6097C11.5289 21.6412 11.6897 21.6652 11.813 21.6276C13.0121 21.2619 14.0598 20.9876 15.3191 20.817L15.373 20.7399C15.5161 20.5858 15.565 20.5723 15.77 20.4835L15.4828 20.3525C15.4566 19.6008 15.092 18.8499 15.0822 18.3484L15.1885 18.377C15.2083 17.785 14.8863 17.5252 14.9177 16.7986C14.784 16.2232 14.673 15.7168 14.4084 15.1759L14.2047 15.1101C14.1627 15.2369 14.1986 15.226 14.2909 15.3879L14.1458 15.8514C14.0117 15.423 13.924 15.1458 13.8513 14.7044C13.5469 14.7234 13.2043 14.7751 12.8993 14.8146ZM12.0564 21.9161C12.8519 21.6369 13.2422 21.5102 14.0844 21.3632L14.105 21.2948L14.0895 21.2826C13.6232 21.351 12.291 21.5267 11.999 21.8177C12.0138 21.8473 12.0333 21.8985 12.0564 21.9161Z" fill="#4673AA"/>
<path d="M14.9177 16.7986C15.0585 17.2613 15.8716 19.9801 16.0748 20.1772L16.0321 20.2882C16.1794 20.486 16.1043 20.5343 16.2623 20.7686L16.2045 20.8058L16.2682 20.847L16.3058 20.9043C16.5712 20.9892 16.6219 20.9608 16.7681 21.1342C16.5406 21.3919 15.0224 21.4278 14.6148 21.457C13.5949 21.6331 12.7105 21.7997 11.8459 22.3191C11.73 22.1859 11.449 21.8467 11.3307 21.7426L11.4057 21.6097C11.5289 21.6412 11.6897 21.6652 11.813 21.6276C13.0121 21.2619 14.0598 20.9876 15.3191 20.817L15.373 20.7399C15.5161 20.5859 15.565 20.5723 15.77 20.4835L15.4828 20.3525C15.4566 19.6008 15.092 18.8499 15.0822 18.3484L15.1885 18.377C15.2083 17.785 14.8863 17.5252 14.9177 16.7986ZM12.0564 21.9161C12.8519 21.6369 13.2422 21.5102 14.0844 21.3632L14.105 21.2948L14.0895 21.2826C13.6232 21.351 12.291 21.5267 11.999 21.8177C12.0138 21.8473 12.0333 21.8985 12.0564 21.9161Z" fill="#5682B8"/>
<path d="M16.3058 20.9043C16.5712 20.9892 16.6219 20.9608 16.7681 21.1342C16.5406 21.3919 15.0224 21.4278 14.6148 21.457C15.0497 20.9913 15.8121 21.3083 16.3058 20.9043Z" fill="#4673AA"/>
<path d="M15.0822 18.3484L15.1885 18.377C15.3034 18.7506 15.7327 20.1656 15.77 20.4835L15.4828 20.3525C15.4566 19.6008 15.092 18.8499 15.0822 18.3484Z" fill="#CCD1E0"/>
<path d="M14.0895 21.2826L14.105 21.2948L14.0844 21.3632C13.2422 21.5102 12.8519 21.6369 12.0564 21.9161C12.0333 21.8985 12.0138 21.8473 11.999 21.8177C12.291 21.5267 13.6232 21.351 14.0895 21.2826Z" fill="#ECECF0" fill-opacity="0.054902"/>
<path d="M14.4084 15.1759L14.4835 15.0491C14.7163 15.3006 16.0504 19.7262 16.0748 20.1772C15.8716 19.9801 15.0585 17.2612 14.9177 16.7986C14.784 16.2232 14.673 15.7168 14.4084 15.1759Z" fill="#ECECF0"/>
<path d="M67.9211 14.116L69.493 14.1192C69.5148 15.6814 69.4936 17.2849 69.4929 18.8502L67.9105 18.8517L67.9211 14.116Z" fill="#FAFAFA"/>
<path d="M43.1285 14.077C43.6267 14.0938 44.1962 14.079 44.7006 14.0751L44.6865 18.8209L43.1176 18.8253L43.1285 14.077Z" fill="#FAFAFA"/>
<path d="M20.3211 13.1955C20.4721 13.8901 20.3402 14.4391 20.2338 15.1306L20.2784 15.1557C20.3637 15.0747 20.4672 14.9503 20.5695 14.9201C20.737 15.8412 20.2969 17.2896 19.7763 18.13C20.0306 17.9933 20.3177 17.8303 20.5797 17.7131C20.4658 18.0122 20.3516 18.332 20.2277 18.6261C19.5435 19.9987 19.1508 20.3791 17.5514 20.9729C17.6804 20.7209 17.9972 20.0666 18.1446 19.8607C18.284 19.6039 18.6206 19.174 18.807 18.9206C18.7513 18.554 18.9132 18.1837 19.0352 17.8313C19.0278 17.6839 19.1626 17.1218 19.2006 16.9451C19.074 16.821 18.9318 16.64 18.8167 16.5024C18.945 16.4648 19.0729 16.4118 19.1978 16.3642C19.2141 16.4835 19.2075 16.5155 19.2962 16.609C19.4244 16.4778 19.3835 16.5101 19.4065 16.3C20.1486 15.253 20.1478 14.323 20.3211 13.1955Z" fill="#FAFAFA"/>
<path d="M18.1446 19.8607C18.4565 19.7689 19.574 18.1756 20.2084 18.1161C20.3182 18.3017 20.2582 18.3831 20.2277 18.6261C19.5435 19.9987 19.1508 20.3791 17.5514 20.9729C17.6804 20.7209 17.9972 20.0666 18.1446 19.8607Z" fill="#088427"/>
<path d="M19.0352 17.8313C19.191 17.7224 19.1778 17.5354 19.2107 17.3621C19.3611 16.5725 20.0253 15.8955 20.4395 15.205C20.3905 16.2794 20.4031 17.1213 19.6011 18.0051C19.3852 18.243 18.9509 18.6865 18.807 18.9206C18.7513 18.554 18.9132 18.1837 19.0352 17.8313Z" fill="#088427"/>
<path d="M9.60632 6.69926C8.33446 9.25431 6.85754 11.7529 5.5421 14.2928C5.1894 14.9739 4.84297 15.1335 4.13264 15.4991C4.17123 14.7424 4.14106 14.4178 4.69378 13.809L4.71393 13.7724C5.07015 13.0342 6.16152 11.5167 6.68263 10.7623C7.58432 9.45695 8.56047 7.87503 9.60632 6.69926Z" fill="#F5A61B"/>
<path d="M9.60632 6.69926C8.33446 9.25431 6.85754 11.7529 5.5421 14.2928C5.1894 14.9739 4.84297 15.1335 4.13264 15.4991C4.17123 14.7424 4.14106 14.4178 4.69378 13.809C4.56034 14.3953 4.26718 14.1775 4.34229 15.2226L5.08083 14.8538C5.83161 13.5471 6.55254 12.2273 7.24289 10.8951C7.58106 10.2487 8.16252 9.18526 8.38311 8.52257C7.45346 9.6731 6.61413 11.1554 5.74413 12.3648C5.49189 12.7156 5.01352 13.4879 4.71393 13.7724C5.07015 13.0342 6.16152 11.5167 6.68263 10.7623C7.58432 9.45695 8.56047 7.87503 9.60632 6.69926Z" fill="#463C2D"/>
<path d="M4.40279 21.0412C4.59902 20.8252 5.37342 15.7395 5.81273 15.1142C5.93979 14.9334 6.02439 14.9456 6.23143 14.8665C6.27054 15.0768 6.20799 15.1379 6.22148 15.2917C5.88579 15.6297 5.26011 19.3109 5.13819 19.9764L5.15035 20.0489C5.1298 20.3335 5.05615 20.5686 5.19766 20.7837C5.39039 20.8645 5.482 20.8583 5.69243 20.8728C6.74919 20.9868 8.23634 21.0944 9.182 21.4978L9.49211 21.6554C9.65657 21.5891 9.91018 21.5416 10.0914 21.5007C10.1932 21.5432 10.2941 21.581 10.3893 21.6332C10.091 21.831 9.88899 21.968 9.74422 22.2844L9.6684 22.1868L9.64627 22.1605C9.30929 21.7515 8.62856 21.6483 8.09753 21.526C7.68458 21.431 5.03446 21.1047 4.81444 21.2291C5.06833 21.337 6.7259 21.4182 7.16325 21.4862C7.99683 21.6158 8.33578 21.7105 9.1159 22.0139L8.98089 22.1499C7.74193 21.6229 5.68104 21.5407 4.34061 21.5191C4.37686 21.3696 4.38755 21.1952 4.40279 21.0412Z" fill="#4673AA"/>
<path d="M5.69243 20.8727C6.74919 20.9868 8.23634 21.0944 9.182 21.4978L9.49211 21.6554C9.20709 21.6851 7.5674 21.2263 7.10227 21.1578C6.60061 21.0837 6.01957 20.9898 5.47949 20.9295L5.69243 20.8727Z" fill="#CCD1E0"/>
<path d="M5.13819 19.9764L5.15035 20.0489C5.1298 20.3335 5.05615 20.5686 5.19766 20.7837C5.3904 20.8645 5.482 20.8583 5.69243 20.8727L5.47949 20.9295C5.23112 20.9446 5.09179 20.9893 4.91551 20.84C4.85747 20.6284 5.05393 20.2044 5.13819 19.9764Z" fill="#ECECF0"/>
<path d="M6.13669 15.7841C6.24472 15.6598 6.28716 15.6057 6.41827 15.5018L6.53673 15.4938C6.58031 15.7035 6.53053 15.719 6.44441 15.9421C6.32033 16.3356 6.23452 16.6157 6.1556 17.0201L6.1921 17.1028C6.33017 17.4533 5.67441 19.7253 5.63239 20.413L5.71313 20.4266C7.15868 20.6441 8.60984 20.5491 9.93905 21.1337C10.1337 21.2193 10.3512 21.3135 10.5702 21.3116L10.6614 21.2296L10.8162 21.2873L11.553 21.0374C11.4818 21.1937 11.418 21.2214 11.2549 21.3034L11.2632 21.3565C11.6585 21.2607 11.6607 21.1615 12.1032 21.1233L12.3557 21.2403C12.0871 21.3284 11.6134 21.4601 11.4057 21.6097L11.3307 21.7426C10.8407 21.646 10.9431 21.6068 10.3893 21.6332C10.2941 21.581 10.1932 21.5432 10.0914 21.5007C9.91018 21.5416 9.65657 21.5891 9.49211 21.6554L9.182 21.4978C8.23634 21.0944 6.74919 20.9868 5.69243 20.8727C5.482 20.8583 5.3904 20.8645 5.19766 20.7837C5.05615 20.5686 5.1298 20.3334 5.15035 20.0489C5.30466 19.7553 5.96036 16.4337 6.13669 15.7841Z" fill="url(#paint0_linear_1_1215)"/>
<path d="M6.1556 17.0201L6.1921 17.1028C6.33017 17.4533 5.67441 19.7253 5.63239 20.413C5.60073 20.4857 5.59148 20.4805 5.53163 20.5433C5.41987 20.2136 5.98818 17.4993 6.1556 17.0201Z" fill="#ECECF0"/>
<path d="M9.182 21.4978C9.41565 21.3114 9.31724 21.3409 9.57573 21.3109C9.76266 21.3742 9.90912 21.4279 10.0914 21.5008C9.91018 21.5416 9.65657 21.5891 9.49211 21.6555L9.182 21.4978Z" fill="#5682B8"/>
<path d="M18.214 15.7163C18.0862 15.2439 17.8264 14.2267 17.9815 13.7708C18.5147 14.3142 18.5724 14.4708 19.0092 15.0664C19.1889 15.5864 19.3051 15.8206 19.1978 16.3642C19.0729 16.4118 18.945 16.4648 18.8167 16.5024C18.6695 16.2959 18.4118 15.9008 18.2248 15.7476C18.5842 16.4178 19.221 18.2538 18.5014 18.8058C18.2268 18.7569 18.1971 18.4433 18.1321 18.2211C17.8143 17.5817 17.792 16.9837 17.796 16.3052C17.7737 16.016 17.7919 15.4825 17.7916 15.1757L18.214 15.7163Z" fill="#088427"/>
<path d="M17.796 16.3052C18.086 16.6027 18.2419 17.8615 18.1321 18.2211C17.8143 17.5817 17.792 16.9837 17.796 16.3052Z" fill="#07621E"/>
<path d="M7.78588 14.6828C8.34995 14.9078 8.73676 14.7548 9.09402 14.8496C9.57688 15.0236 10.0166 15.1394 10.5312 15.3355C10.8406 15.1812 11.3797 14.9694 11.7162 14.8274C11.9198 14.8318 12.0845 14.8172 12.2626 14.8971C11.6231 15.0402 11.2499 15.1229 10.6689 15.432C10.6918 17.2828 10.7483 19.4305 10.8162 21.2873L10.6614 21.2296C10.4844 19.6241 10.5197 17.1359 10.4683 15.4699C9.33602 14.9066 8.16721 14.8871 6.90465 14.9218C6.82723 15.4861 6.63189 16.1769 6.52583 16.7583C6.29868 18.0019 6.10916 19.2145 5.71314 20.4266L5.63239 20.413C5.67441 19.7253 6.33017 17.4533 6.1921 17.1028C6.40426 16.822 6.42294 16.2826 6.44441 15.9421C6.53054 15.719 6.58031 15.7035 6.53673 15.4938L6.41827 15.5018C6.28717 15.6057 6.24472 15.6598 6.13669 15.7841C6.15979 15.594 6.22868 15.4732 6.30849 15.2967L6.22148 15.2917C6.20799 15.1379 6.27054 15.0768 6.23143 14.8665C6.69644 14.7588 7.29663 14.725 7.78588 14.6828Z" fill="#4673AA" fill-opacity="0.980392"/>
<path d="M16.8102 20.5745C16.7626 19.9189 16.7681 17.8979 17.4367 17.4859C18.334 17.6027 17.9147 20.5262 17.1002 21.1028L17.0114 21.06L16.8102 20.5745Z" fill="#088427"/>
<path d="M3.3055 17.3605C4.26097 17.8768 4.18169 20.1021 3.88824 20.9599C2.76625 20.503 2.88538 18.2232 3.3055 17.3605Z" fill="#088427"/>
<path d="M68.3294 11.8824C69.6088 11.8321 70.2805 12.6989 69.0988 13.4079C67.8288 13.4429 67.1475 12.6193 68.3294 11.8824Z" fill="#FAFAFA"/>
<path d="M43.4737 11.85C43.9974 11.8949 44.4262 11.893 44.7518 12.3169C45.0976 12.767 44.6903 13.1528 44.2924 13.3947C43.0742 13.4644 42.3233 12.6389 43.4737 11.85Z" fill="#FAFAFA"/>
<path d="M2.98302 15.2679C3.21984 16.079 3.01925 18.2122 2.37053 18.8406L2.26811 18.7797C1.74224 17.3987 2.1623 16.443 2.98302 15.2679Z" fill="#088427"/>
<path d="M11.9151 7.02582C12.0826 7.06892 12.3814 7.24318 12.4972 7.35203C13.2651 8.07399 15.2939 9.38782 15.5196 10.3277L14.7621 10.2042C13.912 9.33402 12.6686 7.9462 11.9151 7.02582Z" fill="#463C2D"/>
<path d="M13.1414 8.12975C13.6243 8.31532 15.1873 9.69722 15.3392 10.1768C15.297 10.1705 15.2548 10.1637 15.2128 10.1563C14.5293 10.0351 13.5542 8.68077 13.1414 8.12975Z" fill="#F5A61B"/>
<path d="M15.3551 20.2388L15.4828 20.3525L15.77 20.4835C15.565 20.5723 15.5161 20.5858 15.373 20.7399C14.6863 20.7335 13.0332 21.0491 12.3557 21.2403L12.1032 21.1233C11.6607 21.1615 11.6585 21.2607 11.2632 21.3565L11.2549 21.3034C11.418 21.2214 11.4818 21.1937 11.553 21.0374C12.263 20.5806 14.463 20.4837 15.3551 20.2388Z" fill="#4673AA"/>
<path d="M11.6866 6.21609C12.3121 6.3902 14.2537 7.43142 14.7768 7.86297C14.9709 8.02316 15.1139 8.23901 15.2405 8.44614C15.0206 8.44293 14.7182 8.43494 14.5287 8.33809C13.5185 7.8217 12.4792 6.94605 11.6866 6.21609Z" fill="#463C2D" fill-opacity="0.988235"/>
<path d="M12.7077 6.9094C13.4612 7.05132 14.5578 7.73382 14.9464 8.30617C14.2648 8.31026 13.2144 7.33726 12.7077 6.9094Z" fill="#F5A61B"/>
<path d="M16.8586 9.19364C17.8946 9.56947 18.5412 10.7672 18.7605 11.6787C17.8187 11.5335 17.0268 9.94839 16.8586 9.19364Z" fill="#088427"/>
<path d="M8.80329 6.27414L8.8194 6.35418C8.73508 6.489 8.54136 6.69838 8.40267 6.79454C7.67172 7.30067 6.60165 8.39392 5.67043 8.45499C5.58696 7.75131 8.12725 6.61151 8.80329 6.27414Z" fill="#463C2D"/>
<path d="M7.60261 7.04349L7.70185 7.07276C7.55224 7.42335 6.40225 8.12355 6.0118 8.33929C5.9368 8.31215 5.93038 8.29546 5.86551 8.24589L5.89603 8.09945C6.23452 7.70987 7.09968 7.30307 7.60261 7.04349Z" fill="#F5A61B"/>
<path d="M12.2656 1.85007C12.3828 1.88303 12.3286 1.8551 12.4076 1.96583C12.426 2.79556 11.4306 4.08157 10.9207 4.78184L10.8846 4.79683L10.8444 4.73958C11.141 3.81823 11.4809 2.50555 12.2656 1.85007Z" fill="#35322C"/>
<path d="M12.1571 2.03793C12.2297 2.10264 12.2229 2.11849 12.2658 2.20956C12.2031 2.76787 11.7282 3.42529 11.3557 3.87771C11.3317 3.86008 11.3062 3.80395 11.2896 3.7746C11.4304 3.20209 11.7325 2.49532 12.1571 2.03793Z" fill="#F5A61B"/>
<path d="M11.6262 5.60244C12.5564 5.6576 14.1505 5.80314 14.6238 6.56103C13.7501 6.73491 12.3093 6.07305 11.6262 5.60244Z" fill="#F5A61B"/>
<path d="M8.81101 5.62163L8.85742 5.62847L8.8784 5.72089C8.51249 6.08312 6.82671 6.64131 6.25727 6.64582C6.15108 6.59738 6.19715 6.61852 6.11885 6.50926L6.15924 6.38282C6.62022 5.9317 8.06879 5.75901 8.81101 5.62163Z" fill="#463C2D"/>
<path d="M7.84767 5.91904L7.91528 5.94892L7.89566 6.04458C7.51974 6.28545 6.91517 6.45398 6.46817 6.56433L6.36029 6.4652L6.41253 6.34327C6.78515 6.07985 7.37803 6.00012 7.84767 5.91904Z" fill="#F5A61B"/>
<path d="M7.17077 3.19692C8.0915 3.37745 8.88484 4.31732 9.35522 4.9994C8.92471 4.82525 8.51424 4.61493 8.12964 4.37127C7.63858 4.05415 7.27055 3.73362 7.17077 3.19692Z" fill="#F5A61B"/>
<path d="M14.1458 15.8514L14.2909 15.3879C14.4443 15.7103 14.4884 15.9433 14.5292 16.2893C14.6128 16.9965 14.8485 17.671 15.0822 18.3484C15.092 18.8499 15.4566 19.6008 15.4828 20.3525L15.3551 20.2388C15.244 19.9984 14.9882 19.0318 14.9129 18.7527L14.1458 15.8514Z" fill="#4673AA"/>
<path d="M13.3376 3.19643C13.4978 3.20103 13.4338 3.17464 13.5409 3.26708C13.5528 3.81714 12.0319 4.67463 11.561 4.95469L11.4783 5.00005L11.3961 4.97759C11.5101 4.50898 12.8288 3.43438 13.3376 3.19643Z" fill="#FAFAFA"/>
<path d="M13.281 3.3751C13.4452 3.74671 12.3719 4.30924 12.0661 4.48411C11.976 4.14999 12.9884 3.52056 13.281 3.3751Z" fill="#F5A61B"/>
<path d="M6.3816 4.56311C7.51359 4.62732 8.18761 4.88665 9.10808 5.41788C8.38147 5.42659 7.62171 5.34277 6.93156 5.1408C6.7245 4.9739 6.5528 4.76076 6.3816 4.56311Z" fill="#F5A61B"/>
<path d="M6.58107 9.46641C6.16258 9.70474 6.18114 10.0072 5.5976 10.1099L5.52256 10.0415C5.6876 9.55236 7.14873 8.37738 7.60007 8.09481L7.58656 8.40268C7.34687 8.65022 6.79525 9.28638 6.58107 9.46641Z" fill="#F5A61B"/>
<path d="M13.582 4.53075C13.8462 4.52192 13.9901 4.49139 14.1596 4.67181L14.0822 4.81754C13.601 5.18696 12.893 5.28497 12.2847 5.39328C12.2399 5.40899 11.982 5.44249 11.9181 5.45166L11.8605 5.401C11.9864 5.17448 13.2454 4.67478 13.582 4.53075Z" fill="#35322C"/>
<path d="M13.5765 4.64137C13.8084 4.66238 13.8368 4.62768 13.9694 4.75039C13.8542 4.97628 13.3326 5.06838 13.084 5.11701C12.9158 5.15044 12.8663 5.15267 12.6935 5.15438L12.6631 5.0966C12.8841 4.92125 13.2985 4.76229 13.5765 4.64137Z" fill="#F5A61B"/>
<path d="M6.58107 9.46641C6.33888 9.90937 5.93339 10.286 5.34307 10.2686L5.30744 10.1617C5.50882 9.46671 7.98632 7.5832 8.71785 6.97596C8.35051 7.51308 8.01264 7.90551 7.58656 8.40268L7.60007 8.09482C7.14873 8.37738 5.6876 9.55236 5.52256 10.0415L5.5976 10.1099C6.18114 10.0072 6.16259 9.70474 6.58107 9.46641Z" fill="black"/>
<path d="M14.2909 15.3879C14.1986 15.226 14.1627 15.2369 14.2047 15.1101L14.4084 15.1759C14.673 15.7168 14.784 16.2232 14.9177 16.7986C14.8863 17.5252 15.2083 17.785 15.1885 18.377L15.0822 18.3484C14.8485 17.671 14.6128 16.9965 14.5292 16.2893C14.4884 15.9433 14.4443 15.7103 14.2909 15.3879Z" fill="#8FA9C7" fill-opacity="0.0117647"/>
<path d="M8.40929 2.45915C8.34289 2.1982 8.30051 2.21153 8.37571 1.98578L8.49189 1.97071C8.82158 2.18845 9.11046 2.66526 9.17455 3.00164C9.19727 3.23989 9.33496 3.75803 9.39398 4.01218C8.93741 3.48081 8.73305 3.05809 8.40929 2.45915Z" fill="#F5A61B"/>
<path d="M15.373 20.7399L15.3191 20.817C14.0598 20.9876 13.0121 21.2619 11.813 21.6276C11.6897 21.6652 11.5289 21.6412 11.4057 21.6097C11.6134 21.4601 12.0871 21.3284 12.3557 21.2403C13.0332 21.0491 14.6863 20.7335 15.373 20.7399Z" fill="#ECECF0" fill-opacity="0.0352941"/>
<path d="M9.1159 22.0139C8.33578 21.7105 7.99684 21.6158 7.16325 21.4862C6.7259 21.4182 5.06833 21.337 4.81444 21.2291C5.03446 21.1047 7.68458 21.431 8.09753 21.526C8.62856 21.6483 9.30929 21.7515 9.64627 22.1605L9.6684 22.1868C9.48665 22.1363 9.29618 22.0715 9.1159 22.0139Z" fill="#ECECF0" fill-opacity="0.0627451"/>
<path d="M6.22148 15.2917L6.30848 15.2967C6.22868 15.4732 6.15979 15.594 6.13668 15.7841C5.96036 16.4337 5.30466 19.7553 5.15035 20.0489L5.13819 19.9764C5.26011 19.3109 5.88579 15.6297 6.22148 15.2917Z" fill="#ECECF0" fill-opacity="0.0784314"/>
<path d="M8.40929 2.45915C8.73306 3.05809 8.93741 3.48081 9.39399 4.01218C9.33497 3.75803 9.19728 3.23989 9.17456 3.00164C9.47412 3.50651 9.68649 4.30879 9.81757 4.86221C9.29642 4.16568 8.56586 3.27539 8.40929 2.45915Z" fill="black"/>
<path d="M2.06441 11.732C2.38526 11.5005 2.63045 11.3231 2.92688 11.0625L2.97442 11.1424C2.58914 11.508 2.29447 12.0298 2.01648 12.4718L2.06441 11.732Z" fill="#ECECF0" fill-opacity="0.01"/>
<path d="M2.92688 11.0625C3.09026 10.8842 3.25958 10.6414 3.40467 10.4455L3.67463 10.4056L3.74667 10.4553L3.63099 10.675C3.43447 10.813 3.15367 10.9983 2.97442 11.1424L2.92688 11.0625Z" fill="url(#paint1_linear_1_1215)"/>
<path d="M4.34061 21.5191L4.21686 21.519C4.19681 21.2995 4.1037 20.7606 4.29002 20.6219C4.41481 20.7576 4.39476 20.8623 4.40279 21.0412C4.38755 21.1952 4.37686 21.3696 4.34061 21.5191Z" fill="url(#paint2_linear_1_1215)"/>
<path d="M17.1625 11.9059L17.0482 11.8411L17.0574 11.6084C17.2195 11.7524 17.1475 11.7316 17.3344 11.7371C17.6159 11.9975 17.8853 12.2472 18.1547 12.5183L17.1625 11.9059Z" fill="#ECECF0" fill-opacity="0.0117647"/>
<path d="M9.1159 22.0139C9.29618 22.0715 9.48665 22.1363 9.6684 22.1868L9.74422 22.2844L9.6489 22.336C9.39855 22.3566 9.21616 22.249 8.98089 22.1499L9.1159 22.0139Z" fill="#5682B8" fill-opacity="0.972549"/>
<path d="M6.44441 15.9422C6.42293 16.2826 6.40426 16.822 6.1921 17.1028L6.1556 17.0201C6.23452 16.6157 6.32033 16.3356 6.44441 15.9422Z" fill="#ECECF0" fill-opacity="0.117647"/>
<defs>
<linearGradient id="paint0_linear_1_1215" x1="7.46562" y1="21.4157" x2="9.10398" y2="16.3797" gradientUnits="userSpaceOnUse">
<stop stop-color="#496FA3"/>
<stop offset="1" stop-color="#5685B7"/>
</linearGradient>
<linearGradient id="paint1_linear_1_1215" x1="3.5842" y1="10.6537" x2="3.30457" y2="10.4918" gradientUnits="userSpaceOnUse">
<stop stop-color="white" stop-opacity="0"/>
<stop offset="1" stop-color="#EDF6F0" stop-opacity="0.054902"/>
</linearGradient>
<linearGradient id="paint2_linear_1_1215" x1="4.39434" y1="21.0875" x2="4.08599" y2="21.0196" gradientUnits="userSpaceOnUse">
<stop stop-color="white" stop-opacity="0"/>
<stop offset="1" stop-color="#D4D2D5" stop-opacity="0.0588235"/>
</linearGradient>
</defs>
</svg>
